<?xml version="1.0" encoding="UTF-8"?>
<svg width="411px" height="307px" viewBox="0 0 411 307" version="1.1" xmlns="http://www.w3.org/2000/svg" xmlns:xlink="http://www.w3.org/1999/xlink">
    <!-- Generator: Sketch 54.1 (76490) - https://sketchapp.com -->
    <title>Slice 1</title>
    <desc>Created with Sketch.</desc>
    <defs>
        <linearGradient x1="-0.0147538163%" y1="50.0590145%" x2="100.001736%" y2="50.0590145%" id="linearGradient-1">
            <stop stop-color="#FFFFFF" offset="0%"></stop>
            <stop stop-color="#F7F7F7" offset="33%"></stop>
            <stop stop-color="#E0E0E0" offset="84%"></stop>
            <stop stop-color="#DCDCDC" offset="91%"></stop>
        </linearGradient>
        <linearGradient x1="-0.000170055236%" y1="50.005294%" x2="99.999956%" y2="50.005294%" id="linearGradient-2">
            <stop stop-color="#FFFFFF" offset="0%"></stop>
            <stop stop-color="#F7F7F7" offset="33%"></stop>
            <stop stop-color="#E0E0E0" offset="84%"></stop>
            <stop stop-color="#DCDCDC" offset="91%"></stop>
        </linearGradient>
        <linearGradient x1="0.00354595666%" y1="49.8130929%" x2="99.996454%" y2="49.8130929%" id="linearGradient-3">
            <stop stop-color="#FFFFFF" offset="0%"></stop>
            <stop stop-color="#F7F7F7" offset="33%"></stop>
            <stop stop-color="#E0E0E0" offset="84%"></stop>
            <stop stop-color="#DCDCDC" offset="91%"></stop>
        </linearGradient>
        <linearGradient x1="0.0172443525%" y1="50%" x2="100%" y2="50%" id="linearGradient-4">
            <stop stop-color="#FFFFFF" offset="0%"></stop>
            <stop stop-color="#F7F7F7" offset="33%"></stop>
            <stop stop-color="#E0E0E0" offset="84%"></stop>
            <stop stop-color="#DCDCDC" offset="91%"></stop>
        </linearGradient>
        <linearGradient x1="0.00151021425%" y1="49.9902769%" x2="100.005412%" y2="49.9902769%" id="linearGradient-5">
            <stop stop-color="#FFFFFF" offset="0%"></stop>
            <stop stop-color="#F7F7F7" offset="33%"></stop>
            <stop stop-color="#E0E0E0" offset="84%"></stop>
            <stop stop-color="#DCDCDC" offset="91%"></stop>
        </linearGradient>
    </defs>
    <g id="Page-1" stroke="none" stroke-width="1" fill="none" fill-rule="evenodd">
        <g id="Asset-3">
            <polygon id="Blue_Shadow" fill="#ACB8BF" fill-rule="nonzero" points="292.637789 124.972944 206.020986 175.305972 118.669014 124.984521 205.442113 74.628338"></polygon>
            <g id="Linx_Bare_Metal" transform="translate(118.090141, 12.156338)" fill-rule="nonzero">
                <g id="Server">
                    <polygon id="Path" fill="#707070" points="0.538352113 50.8540141 87.1030563 101.158099 174.559225 50.7613944 87.6761408 0.544140845"></polygon>
                    <polygon id="Path" fill="#E5E5E4" points="0.538352113 50.8540141 0.567295775 78.3562817 87.1262113 128.660366 87.1030563 101.158099"></polygon>
                    <polygon id="Path" fill="#B8B9B9" points="87.1030563 101.158099 87.1262113 128.660366 174.588169 78.263662 174.559225 50.7613944"></polygon>
                    <polygon id="Path" fill="#B8B9B9" points="79.6355915 103.103113 79.6355915 119.728352 75.3750845 117.27393 75.3750845 100.660268"></polygon>
                    <polygon id="Path" fill="#B8B9B9" points="70.1362817 97.6096056 73.9394789 99.8498451 73.9394789 116.463507 70.1710141 114.234845"></polygon>
                    <path d="M14.1013521,70.6225352 C12.978338,69.956831 12.0521408,70.4662394 12.0289859,71.7802817 C12.0878053,73.2178533 12.8299447,74.5407974 14.0260986,75.3403521 C15.1491127,76.0060563 16.0753099,75.4908592 16.0984648,74.1826056 C16.0405771,72.7447702 15.2982168,71.4214323 14.1013521,70.6225352 L14.1013521,70.6225352 Z" id="Path" fill="#B8B9B9"></path>
                    <path d="M6.24604225,66.1246901 C5.12302817,65.4589859 4.19683099,65.9741831 4.17367606,67.2824366 C4.23156374,68.720272 4.97392404,70.04361 6.17078873,70.842507 C7.29380282,71.514 8.22,70.9988028 8.24315493,69.6847606 C8.18248118,68.2477149 7.44078068,66.9255532 6.24604225,66.1246901 L6.24604225,66.1246901 Z" id="Path" fill="#B8B9B9"></path>
                </g>
            </g>
            <g id="Linux_Containers" transform="translate(0.000000, 82.778873)">
                <polygon id="Blue_Shadow-2" fill="#ACB8BF" fill-rule="nonzero" points="175.340704 105.598056 88.040831 156.330507 0 105.615423 87.4619577 54.8656056"></polygon>
                <polygon id="Path" points="88.7991549 116.712423 88.7702113 122.726915 88.7991549 116.712423"></polygon>
                <polygon id="Path" fill="#EE0000" fill-rule="nonzero" points="88.7991549 116.712423 88.7991549 116.712423 88.7991549 116.712423 88.7991549 116.712423 175.334915 66.4199155 88.2202817 16.1274085 1.36035211 66.3272958"></polygon>
                <polygon id="Path" fill="#A30000" fill-rule="nonzero" points="175.334915 66.4199155 175.334915 66.4199155 88.7991549 116.712423 88.7991549 116.712423 88.7702113 122.726915 175.305972 72.4344085 175.334915 66.4199155 175.334915 66.4199155"></polygon>
                <polygon id="Path" fill="#CC0000" fill-rule="nonzero" points="88.7991549 116.712423 1.36035211 66.3272958 1.33719718 72.3417887 88.7702113 122.726915 88.7991549 116.712423"></polygon>
                <polygon id="Path" fill="#ACB8BF" fill-rule="nonzero" style="mix-blend-mode: multiply;" points="71.5255775 33.1289155 89.0017606 23.1433521 106.784746 33.441507 89.0191268 43.479169"></polygon>
                <polygon id="Path" fill="#ACB8BF" fill-rule="nonzero" style="mix-blend-mode: multiply;" points="100.74131 49.5168169 118.217493 39.5312535 135.99469 49.8294085 118.234859 59.8670704"></polygon>
                <polygon id="Path" fill="#ACB8BF" fill-rule="nonzero" style="mix-blend-mode: multiply;" points="42.1940704 49.5168169 59.6702535 39.5312535 77.4532394 49.8294085 59.6876197 59.8670704"></polygon>
                <polygon id="Path" fill="#ACB8BF" fill-rule="nonzero" style="mix-blend-mode: multiply;" points="71.5255775 66.5472676 89.0017606 56.5617042 106.784746 66.8598592 89.0191268 76.8975211"></polygon>
                <polygon id="Path" fill="#ACB8BF" fill-rule="nonzero" style="mix-blend-mode: multiply;" points="13.5687887 67.253493 31.0449718 57.2679296 48.8279577 67.5660845 31.062338 77.6037465"></polygon>
                <polygon id="Path" fill="#ACB8BF" fill-rule="nonzero" style="mix-blend-mode: multiply;" points="129.771803 67.253493 147.242197 57.2679296 165.025183 67.5660845 147.265352 77.6037465"></polygon>
                <polygon id="Path" fill="#ACB8BF" fill-rule="nonzero" style="mix-blend-mode: multiply;" points="100.74131 84.2955211 118.217493 74.3099577 135.99469 84.6081127 118.234859 94.6457746"></polygon>
                <polygon id="Path" fill="#ACB8BF" fill-rule="nonzero" style="mix-blend-mode: multiply;" points="42.1940704 84.2955211 59.6702535 74.3099577 77.4532394 84.6081127 59.6876197 94.6457746"></polygon>
                <polygon id="Path" fill="#ACB8BF" fill-rule="nonzero" style="mix-blend-mode: multiply;" points="71.5255775 99.9250986 89.0017606 89.9395352 106.784746 100.23769 89.0191268 110.275352"></polygon>
                <g id="Containers" transform="translate(71.201408, 0.000000)" fill-rule="nonzero">
                    <g id="container-grey">
                        <polygon id="Path" fill="#EBECEC" opacity="0.75" points="35.5717606 31.0565493 35.5312394 10.4602394 17.7829859 0.26628169 17.7829859 20.7583944"></polygon>
                        <polygon id="Path" fill="#D1D1D1" opacity="0.75" points="0.243126761 10.4776056 0.208394366 30.8886761 17.8003521 20.7641831 17.7829859 0.301014085"></polygon>
                        <polygon id="Path" fill="#DCDCDC" opacity="0.75" points="0.324169014 30.7497465 17.8003521 20.7641831 35.583338 31.062338 17.8177183 41.1"></polygon>
                        <path d="M0.723591549,10.7149437 L17.1809577,20.1795211 L17.2793662,40.2259014 L0.706225352,30.6339718 L0.706225352,11.3748592 L0.723591549,10.7149437 Z M0.173661972,10.4544507 L0.173661972,30.9407746 L17.823507,41.1520986 L17.7193099,19.8727183 L1.27352113,10.4602394 L0.173661972,10.4544507 Z" id="Shape" fill="#FFFFFF"></path>
                        <path d="M17.8177183,0.850943662 L34.4545352,10.4544507 L17.7308873,19.8842958 L1.26194366,10.448662 L17.8177183,0.850943662 L17.8177183,0.850943662 Z M17.8177183,0.231549296 L0.191028169,10.4544507 L17.7308873,20.4979014 L35.5312394,10.4602394 L17.8177183,0.231549296 Z" id="Shape" fill="#FFFFFF"></path>
                    </g>
                </g>
                <g id="Containers-2" transform="translate(100.145070, 16.208451)" fill-rule="nonzero">
                    <g id="container-grey-2">
                        <polygon id="Path" fill="#EBECEC" opacity="0.75" points="35.8380423 31.2302113 35.7975211 10.6396901 18.0550563 0.445732394 18.0550563 20.9378451"></polygon>
                        <polygon id="Path" fill="#D1D1D1" opacity="0.75" points="0.509408451 10.6570563 0.474676056 31.062338 18.0724225 20.9436338 18.0550563 0.480464789"></polygon>
                        <polygon id="Path" fill="#DCDCDC" opacity="0.75" points="0.596239437 30.9291972 18.0724225 20.9436338 35.8496197 31.2417887 18.0897887 41.2794507"></polygon>
                        <path d="M0.995661972,10.8886056 L17.4472394,20.3589718 L17.5514366,40.3995634 L0.972507042,30.8076338 L0.972507042,11.5485211 L0.995661972,10.8886056 Z M0.439943662,10.6339014 L0.439943662,31.1202254 L18.0897887,41.3315493 L17.9798028,20.0463803 L1.53980282,10.6339014 L0.439943662,10.6339014 Z" id="Shape" fill="#FFFFFF"></path>
                        <path d="M18.0897887,1.02460563 L34.7323944,10.6339014 L18.0029577,20.0579577 L1.52822535,10.6281127 L18.0897887,1.02460563 L18.0897887,1.02460563 Z M18.0897887,0.411 L0.463098592,10.6281127 L17.997169,20.6715634 L35.7975211,10.6396901 L18.0897887,0.411 L18.0897887,0.411 Z" id="Shape" fill="#FFFFFF"></path>
                    </g>
                </g>
                <g id="Containers-3" transform="translate(41.678873, 16.208451)" fill-rule="nonzero">
                    <g id="container-grey-3">
                        <polygon id="Path" fill="#EBECEC" opacity="0.75" points="35.7627887 31.2302113 35.7222676 10.6396901 17.9740141 0.445732394 17.9740141 20.9378451"></polygon>
                        <polygon id="Path" fill="#D1D1D1" opacity="0.75" points="0.428366197 10.6570563 0.393633803 31.062338 17.9913803 20.9436338 17.9740141 0.480464789"></polygon>
                        <polygon id="Path" fill="#DCDCDC" opacity="0.75" points="0.515197183 30.9291972 17.9913803 20.9436338 35.7743662 31.2417887 18.0087465 41.2794507"></polygon>
                        <path d="M0.914619718,10.8886056 L17.3661972,20.3589718 L17.4646056,40.3995634 L0.891464789,30.8076338 L0.891464789,11.5485211 L0.914619718,10.8886056 Z M0.358901408,10.6339014 L0.358901408,31.1202254 L18.0087465,41.3315493 L17.9045493,20.0463803 L1.45876056,10.6339014 L0.358901408,10.6339014 Z" id="Shape" fill="#FFFFFF"></path>
                        <path d="M18.0087465,1.02460563 L34.6455634,10.6339014 L17.9450704,20.0579577 L1.45297183,10.6281127 L18.0087465,1.02460563 L18.0087465,1.02460563 Z M18.0087465,0.411 L0.382056338,10.6281127 L17.9450704,20.6715634 L35.7454225,10.6396901 L18.0319014,0.411 L18.0087465,0.411 Z" id="Shape" fill="#FFFFFF"></path>
                    </g>
                </g>
                <g id="Containers-4" transform="translate(71.201408, 33.574648)" fill-rule="nonzero">
                    <g id="container-grey-4">
                        <polygon id="Path" fill="#EBECEC" opacity="0.75" points="35.5717606 30.9002535 35.5312394 10.3097324 17.7829859 0.109985915 17.7829859 20.6020986"></polygon>
                        <polygon id="Path" fill="#D1D1D1" opacity="0.75" points="0.243126761 10.3270986 0.208394366 30.7323803 17.8003521 20.6078873 17.7829859 0.150507042"></polygon>
                        <polygon id="Path" fill="#DCDCDC" opacity="0.75" points="0.324169014 30.5934507 17.8003521 20.6078873 35.583338 30.9060423 17.8177183 40.9437042"></polygon>
                        <path d="M0.723591549,10.5586479 L17.1809577,20.0232254 L17.2793662,40.0696056 L0.706225352,30.4776761 L0.706225352,11.2185634 L0.723591549,10.5586479 Z M0.173661972,10.2981549 L0.173661972,30.7844789 L17.823507,40.9958028 L17.7193099,19.7164225 L1.26773239,10.3039437 L0.173661972,10.2981549 Z" id="Shape" fill="#FFFFFF"></path>
                        <path d="M17.8177183,0.694647887 L34.4545352,10.3039437 L17.7308873,19.728 L1.26194366,10.2923662 L17.8177183,0.694647887 L17.8177183,0.694647887 Z M17.8177183,0.0752535211 L0.191028169,10.2981549 L17.7308873,20.3416056 L35.5312394,10.3097324 L17.8177183,0.0752535211 Z" id="Shape" fill="#FFFFFF"></path>
                    </g>
                </g>
                <g id="Containers-5" transform="translate(13.314085, 34.153521)" fill-rule="nonzero">
                    <g id="container-grey-5">
                        <polygon id="Path" fill="#EBECEC" opacity="0.75" points="35.5022958 31.0218169 35.4617746 10.4312958 17.7135211 0.237338028 17.7135211 20.7294507"></polygon>
                        <polygon id="Path" fill="#D1D1D1" opacity="0.75" points="0.173661972 10.448662 0.133140845 30.8539437 17.7308873 20.7294507 17.7135211 0.272070423"></polygon>
                        <polygon id="Path" fill="#DCDCDC" opacity="0.75" points="0.254704225 30.7150141 17.7308873 20.7294507 35.5138732 31.0333944 17.7482535 41.0652676"></polygon>
                        <path d="M0.654126761,10.6802113 L17.111493,20.1505775 L17.2099014,40.191169 L0.636760563,30.5992394 L0.636760563,11.3401268 L0.654126761,10.6802113 Z M0.12156338,10.4197183 L0.12156338,30.9002535 L17.7482535,41.1 L17.6440563,19.814831 L1.19826761,10.4197183 L0.12156338,10.4197183 Z" id="Shape" fill="#FFFFFF"></path>
                        <path d="M17.7482535,0.816211268 L34.3850704,10.4197183 L17.6614225,19.8495634 L1.19247887,10.4197183 L17.7482535,0.816211268 L17.7482535,0.816211268 Z M17.7482535,0.202605634 L0.12156338,10.4197183 L17.6614225,20.463169 L35.4617746,10.4197183 L17.7482535,0.191028169 L17.7482535,0.202605634 Z" id="Shape" fill="#FFFFFF"></path>
                    </g>
                </g>
                <g id="Containers-6" transform="translate(129.088732, 34.153521)" fill-rule="nonzero">
                    <g id="container-grey-6">
                        <polygon id="Path" fill="#EBECEC" opacity="0.75" points="35.9248732 31.0218169 35.8843521 10.4312958 18.1360986 0.237338028 18.1360986 20.7294507"></polygon>
                        <polygon id="Path" fill="#D1D1D1" opacity="0.75" points="0.596239437 10.448662 0.561507042 30.8539437 18.1534648 20.7294507 18.1360986 0.272070423"></polygon>
                        <polygon id="Path" fill="#DCDCDC" opacity="0.75" points="0.683070423 30.7150141 18.1534648 20.7294507 35.9364507 31.0333944 18.1766197 41.0652676"></polygon>
                        <path d="M1.07670423,10.6802113 L17.5340704,20.1505775 L17.6324789,40.191169 L1.05933803,30.5992394 L1.05933803,11.3401268 L1.07670423,10.6802113 Z M0.526774648,10.425507 L0.526774648,30.9060423 L18.1766197,41.1 L18.0666338,19.814831 L1.62084507,10.4197183 L0.526774648,10.425507 Z" id="Shape" fill="#FFFFFF"></path>
                        <path d="M18.1766197,0.816211268 L34.8076479,10.4197183 L18.084,19.8437746 L1.61505634,10.4197183 L18.1766197,0.816211268 L18.1766197,0.816211268 Z M18.1766197,0.202605634 L0.544140845,10.4197183 L18.084,20.463169 L35.8901408,10.4197183 L18.1766197,0.202605634 L18.1766197,0.202605634 Z" id="Shape" fill="#FFFFFF"></path>
                    </g>
                </g>
                <g id="Containers-7" transform="translate(100.145070, 50.940845)" fill-rule="nonzero">
                    <g id="container-grey-7">
                        <polygon id="Path" fill="#EBECEC" opacity="0.75" points="35.8380423 31.2765211 35.7975211 10.686 18.0550563 0.492042254 18.0550563 20.9841549"></polygon>
                        <polygon id="Path" fill="#D1D1D1" opacity="0.75" points="0.509408451 10.7033662 0.474676056 31.1086479 18.0724225 20.9841549 18.0550563 0.526774648"></polygon>
                        <polygon id="Path" fill="#DCDCDC" opacity="0.75" points="0.596239437 30.9697183 18.0724225 20.9841549 35.8496197 31.2880986 18.0897887 41.3199718"></polygon>
                        <path d="M0.995661972,10.9349155 L17.4472394,20.4052817 L17.5514366,40.4458732 L0.972507042,30.8539437 L0.972507042,11.6006197 L0.995661972,10.9349155 Z M0.439943662,10.6802113 L0.439943662,31.1665352 L18.0897887,41.3778592 L17.9798028,20.0926901 L1.53980282,10.6802113 L0.439943662,10.6802113 Z" id="Shape" fill="#FFFFFF"></path>
                        <path d="M18.0897887,1.07091549 L34.7323944,10.6802113 L18.0029577,20.1042676 L1.52822535,10.6744225 L18.0897887,1.07091549 L18.0897887,1.07091549 Z M18.0897887,0.457309859 L0.463098592,10.6744225 L17.997169,20.7178732 L35.7975211,10.686 L18.0897887,0.457309859 Z" id="Shape" fill="#FFFFFF"></path>
                    </g>
                </g>
                <g id="Containers-8" transform="translate(41.678873, 50.940845)" fill-rule="nonzero">
                    <g id="container-grey-8">
                        <polygon id="Path" fill="#EBECEC" opacity="0.75" points="35.7627887 31.2765211 35.7222676 10.686 17.9740141 0.492042254 17.9740141 20.9841549"></polygon>
                        <polygon id="Path" fill="#D1D1D1" opacity="0.75" points="0.428366197 10.7033662 0.393633803 31.1086479 17.9913803 20.9841549 17.9740141 0.526774648"></polygon>
                        <polygon id="Path" fill="#DCDCDC" opacity="0.75" points="0.515197183 30.9697183 17.9913803 20.9841549 35.7743662 31.2880986 18.0087465 41.3199718"></polygon>
                        <path d="M0.914619718,10.9349155 L17.3661972,20.4052817 L17.4646056,40.4458732 L0.891464789,30.8539437 L0.891464789,11.6006197 L0.914619718,10.9349155 Z M0.358901408,10.6802113 L0.358901408,31.1665352 L18.0087465,41.3778592 L17.9045493,20.0926901 L1.45876056,10.6802113 L0.358901408,10.6802113 Z" id="Shape" fill="#FFFFFF"></path>
                        <path d="M18.0087465,1.07091549 L34.6455634,10.6802113 L17.9450704,20.1042676 L1.45297183,10.6744225 L18.0087465,1.07091549 L18.0087465,1.07091549 Z M18.0087465,0.457309859 L0.382056338,10.6744225 L17.9450704,20.7178732 L35.7454225,10.686 L18.0319014,0.457309859 L18.0087465,0.457309859 Z" id="Shape" fill="#FFFFFF"></path>
                    </g>
                </g>
                <g id="Containers-9" transform="translate(71.201408, 66.570423)" fill-rule="nonzero">
                    <g id="container-grey-9">
                        <polygon id="Path" fill="#EBECEC" opacity="0.75" points="35.5717606 31.2765211 35.5312394 10.686 17.7829859 0.492042254 17.7829859 20.9841549"></polygon>
                        <polygon id="Path" fill="#D1D1D1" opacity="0.75" points="0.243126761 10.7033662 0.208394366 31.1086479 17.8003521 20.9841549 17.7829859 0.526774648"></polygon>
                        <polygon id="Path" fill="#DCDCDC" opacity="0.75" points="0.324169014 30.9697183 17.8003521 20.9841549 35.583338 31.2880986 17.8177183 41.3199718"></polygon>
                        <path d="M0.723591549,10.9349155 L17.1809577,20.4052817 L17.2793662,40.4458732 L0.706225352,30.8539437 L0.706225352,11.594831 L0.723591549,10.9349155 Z M0.173661972,10.6802113 L0.173661972,31.1607465 L17.823507,41.3778592 L17.7193099,20.0926901 L1.27352113,10.6802113 L0.173661972,10.6802113 Z" id="Shape" fill="#FFFFFF"></path>
                        <path d="M17.8177183,1.07091549 L34.4545352,10.6802113 L17.7308873,20.1042676 L1.26194366,10.6744225 L17.8177183,1.07091549 L17.8177183,1.07091549 Z M17.8177183,0.457309859 L0.191028169,10.6744225 L17.7308873,20.7178732 L35.5312394,10.686 L17.8177183,0.457309859 Z" id="Shape" fill="#FFFFFF"></path>
                    </g>
                </g>
            </g>
            <g id="Linux_VM" transform="translate(235.601408, 64.833803)">
                <polygon id="Blue_Shadow-3" fill="#ACB8BF" fill-rule="nonzero" points="1.08249296 124.451958 87.6529859 174.761831 174.964437 124.469324 88.2318592 74.1362958"></polygon>
                <polygon id="Path" fill="#EBECEC" fill-rule="nonzero" opacity="0.8" points="0.891464789 90.9641408 87.1956761 141.117718 174.391352 90.8715211 87.7398169 40.8973944"></polygon>
                <polygon id="Path" fill="#EBECEC" fill-rule="nonzero" opacity="0.27" points="0.862521127 63.5429155 0.891464789 90.9641408 87.7398169 40.8973944 87.7398169 13.389338"></polygon>
                <polygon id="Path" fill="#EBECEC" fill-rule="nonzero" opacity="0.27" points="174.40293 63.4502958 174.373986 90.8715211 87.7398169 40.8973944 87.7398169 13.389338"></polygon>
                <polygon id="Path" fill="#B8B9B9" fill-rule="nonzero" points="79.7282113 115.635718 79.7282113 132.208859 75.4792817 129.766014 75.4792817 113.198662"></polygon>
                <polygon id="Path" fill="#B8B9B9" fill-rule="nonzero" points="70.2520563 110.159577 74.0436761 112.388239 74.0436761 128.949803 70.2867887 126.732718"></polygon>
                <ellipse id="Oval" fill="#B8B9B9" fill-rule="nonzero" transform="translate(6.487453, 81.038916) rotate(-10.120000) translate(-6.487453, -81.038916) " cx="6.48745329" cy="81.0389164" rx="1.92764789" ry="2.73228169"></ellipse>
                <ellipse id="Oval" fill="#B8B9B9" fill-rule="nonzero" transform="translate(14.757039, 85.382880) rotate(-10.120000) translate(-14.757039, -85.382880) " cx="14.7570385" cy="85.3828797" rx="1.92764789" ry="2.73228169"></ellipse>
                <polygon id="Path" fill="#EBECEC" fill-rule="nonzero" opacity="0.69" points="0.862521127 63.5429155 87.1667324 113.696493 174.362408 63.4502958 87.6761408 13.389338"></polygon>
                <polygon id="Path" points="87.1667324 113.29707 173.667761 63.4502958 87.6819296 13.7887606 1.55716901 63.5429155"></polygon>
                <polygon id="Path" points="86.8194085 113.899099 35.2823239 83.9481972 1.20984507 64.1507324 1.23878873 90.7615352 86.8425634 140.509901 86.8367746 130.941127"></polygon>
                <polygon id="Path" points="87.5140563 113.899099 87.5314225 130.616958 87.543 140.51569 174.044028 90.6689155 174.015085 64.0523239"></polygon>
                <path d="M174.709732,63.4502958 C174.715044,63.411887 174.715044,63.3729299 174.709732,63.3345211 C174.712282,63.3153096 174.712282,63.2958453 174.709732,63.2766338 C174.679672,63.223377 174.635637,63.1793419 174.58238,63.1492817 L87.8555915,13.0825352 C87.744948,13.0248787 87.6131225,13.0248787 87.5024789,13.0825352 L0.671492958,63.2419014 C0.563069177,63.3030881 0.49652852,63.4184252 0.497830986,63.5429155 L0.497830986,63.5429155 L0.526774648,90.9641408 C0.526639231,91.086829 0.590196601,91.200794 0.694647887,91.2651549 L87.0162254,141.418732 L87.0162254,141.418732 C87.0696881,141.447554 87.1291725,141.463416 87.1898873,141.465042 C87.2508,141.464843 87.3106252,141.448889 87.3635493,141.418732 L174.565014,91.1725352 C174.67177,91.1068985 174.737348,90.9910452 174.738676,90.8657324 L174.709732,63.4502958 Z M87.6761408,13.7887606 L173.661972,63.4502958 L87.1667324,113.29707 L1.55716901,63.5139718 L87.6761408,13.7887606 Z M1.23878873,90.7789014 L1.20984507,64.1507324 L35.3112676,83.9366197 L86.8309859,113.887521 L86.8309859,130.929549 L86.8309859,140.498324 L1.23878873,90.7789014 Z M87.543,140.533056 L87.543,130.634324 L87.543,113.916465 L174.044028,64.0696901 L174.044028,90.6978592 L87.543,140.533056 Z" id="Shape" fill="#FFFFFF" fill-rule="nonzero"></path>
                <polygon id="Path" points="88.0813521 101.187042 88.0581972 107.213113 88.0813521 101.187042"></polygon>
                <polygon id="Path" fill="#EE0000" fill-rule="nonzero" points="88.0813521 101.187042 88.0813521 101.187042 88.0813521 101.187042 88.0813521 101.187042 174.738676 50.8308592 87.5082676 0.468887324 0.526774648 50.7324507"></polygon>
                <polygon id="Path" fill="#A30000" fill-rule="nonzero" points="174.738676 50.8250704 174.738676 50.8308592 88.0813521 101.187042 88.0813521 101.187042 88.0581972 107.213113 174.709732 56.8511408 174.738676 50.8308592 174.738676 50.8308592"></polygon>
                <polygon id="Path" fill="#CC0000" fill-rule="nonzero" points="88.0813521 101.187042 0.526774648 50.7324507 0.503619718 56.7585211 88.0581972 107.213113 88.0813521 101.187042"></polygon>
            </g>
            <polygon id="Path" points="206.130972 100.585014 206.102028 106.599507 206.130972 100.585014"></polygon>
            <polygon id="Path" fill="#EE0000" fill-rule="nonzero" points="206.130972 100.585014 206.130972 100.585014 206.130972 100.585014 206.130972 100.585014 292.666732 50.292507 205.552099 0 118.692169 50.1998873"></polygon>
            <polygon id="Path" fill="#A30000" fill-rule="nonzero" points="292.666732 50.292507 292.666732 50.292507 206.130972 100.585014 206.130972 100.585014 206.102028 106.599507 292.637789 56.3127887 292.666732 50.2982958 292.666732 50.2982958"></polygon>
            <polygon id="Path" fill="#CC0000" fill-rule="nonzero" points="206.130972 100.585014 118.692169 50.1998873 118.669014 56.2143803 206.102028 106.599507 206.130972 100.585014"></polygon>
            <g id="Linux_Cloud" transform="translate(118.669014, 159.769014)">
                <polygon id="Blue_Shadow-4" fill="#ACB8BF" fill-rule="nonzero" points="173.968775 95.9308732 87.3519718 146.26969 0 95.9482394 86.7730986 45.5920563"></polygon>
                <polygon id="Path" points="87.4619577 105.563324 87.4330141 111.577817 87.4619577 105.563324"></polygon>
                <polygon id="Path" fill="#EE0000" fill-rule="nonzero" points="87.4619577 105.563324 87.4619577 105.563324 87.4619577 105.563324 87.4619577 105.563324 173.997718 55.2708169 86.8830845 4.97830986 0.0231549296 55.1781972"></polygon>
                <polygon id="Path" fill="#A30000" fill-rule="nonzero" points="173.997718 55.2708169 173.997718 55.2708169 87.4619577 105.563324 87.4619577 105.563324 87.4330141 111.577817 173.968775 61.2853099 173.997718 55.2708169 173.997718 55.2708169"></polygon>
                <polygon id="Path" fill="#CC0000" fill-rule="nonzero" points="87.4619577 105.563324 0.0231549296 55.1781972 0 61.1926901 87.4330141 111.577817 87.4619577 105.563324"></polygon>
                <g id="cloud-standard" transform="translate(21.997183, 0.000000)">
                    <g id="Group" style="mix-blend-mode: multiply;" transform="translate(0.000000, 42.257746)" fill="#707070" fill-rule="nonzero" opacity="0.28">
                        <path d="M63.7976197,0.578873239 C63.6992113,1.20984507 34.6397746,6.74387324 15.1722676,11.4038028 C-8.63678873,17.1057042 -1.94501408,26.7497324 21.8640423,25.1751972 C27.8843239,24.7757746 28.943662,24.7815634 32.8626338,25.4241127 C35.4270423,25.8466901 40.0696056,27.6527746 49.9972817,27.6527746 C68.810662,27.6527746 70.5878028,23.3285915 70.5878028,23.3285915 C70.8222501,22.7724623 70.9856237,22.1889852 71.0740563,21.5919718 C72.6891127,21.6845915 74.4257324,21.7540563 76.2549718,21.8003662 L109.904873,0.486253521 C92.6197183,-0.451521127 66.1131127,0.70043662 63.7976197,0.578873239 Z" id="Path"></path>
                        <path d="M122.628507,2.13604225 C120.052521,1.29667606 115.456268,0.787267606 109.922239,0.486253521 L76.272338,21.8003662 C77.592169,21.8003662 78.9583099,21.8524648 80.405493,21.8524648 C104.573451,21.8524648 111.28838,17.348831 113.158141,14.9522958 C120.069887,14.535507 127.525775,13.1172676 132.075718,9.2214507 C136.625662,5.3256338 126.564845,3.12012676 122.628507,2.13604225 Z" id="Path"></path>
                    </g>
                    <path d="M133.447648,47.0971268 C134.605394,44.4111549 134.333324,41.7946479 134.055465,38.7787183 C133.239254,30.0087887 123.404197,16.9494085 110.373761,14.5181408 C108.331179,14.1360351 106.257829,13.9422641 104.179817,13.9392676 C88.1739718,13.9392676 77.3316761,26.4313521 76.3939014,38.7671408 C76.1623521,41.7888592 75.8439718,44.7005915 77.0017183,47.3865634 C77.0017183,47.3865634 77.8063521,53.1752958 104.376634,53.1752958 C130.946915,53.1752958 133.447648,47.0971268 133.447648,47.0971268 Z" id="Path" fill="url(#linearGradient-1)" fill-rule="nonzero"></path>
                    <path d="M115.803592,51.2534366 C117.375292,47.0348868 118.177198,42.5685226 118.171183,38.0667042 C118.137931,20.1709736 105.638423,4.71707964 88.1450282,0.94356338 C85.4648036,0.36529957 82.7305999,0.0742203969 79.9887042,0.0752535211 C67.5212983,0.00696287064 55.8143417,6.06195332 48.6651894,16.2761833 C41.5160371,26.4904133 39.8352528,39.5629306 44.1680282,51.2534366 C44.1680282,51.2534366 45.2215775,60.1449296 80.2376197,60.1449296 C115.253662,60.1449296 115.803592,51.2534366 115.803592,51.2534366 Z" id="Path" fill="url(#linearGradient-2)" fill-rule="nonzero"></path>
                    <path d="M61.823662,53.343169 C65.368239,43.7407321 62.1735345,32.9506248 53.9724751,26.8258028 C45.7714157,20.7009808 34.5183026,20.7009808 26.3172432,26.8258028 C18.1161839,32.9506248 14.9214793,43.7407321 18.4660563,53.343169 C18.4660563,53.343169 19.1028169,58.773 40.2953662,58.773 C61.4879155,58.773 61.823662,53.343169 61.823662,53.343169 Z" id="Path" fill="url(#linearGradient-3)" fill-rule="nonzero"></path>
                    <path d="M32.9378873,61.8294507 C33.6229077,60.254949 33.9775459,58.5566257 33.9798592,56.8395634 C33.9798592,49.9567606 28.3300563,44.2027606 20.7815493,42.7960986 C19.5997533,42.5767023 18.4003125,42.466253 17.1983239,42.4661408 C7.93635211,42.4661408 0.411,48.9032113 0.411,56.8395634 C0.413313207,58.5566257 0.767951483,60.254949 1.45297183,61.8294507 C1.45297183,61.8294507 1.91607042,65.1927042 17.3025211,65.1927042 C32.6889718,65.1927042 32.9378873,61.8294507 32.9378873,61.8294507 Z" id="Path" fill="url(#linearGradient-4)" fill-rule="nonzero"></path>
                    <path d="M69.8179014,61.6963099 C70.692,59.6760423 70.4836056,57.7020845 70.2752113,55.4329014 C69.6616056,48.8395352 62.2578169,39.0102676 52.4517042,37.1810282 C50.9151653,36.8931354 49.3550486,36.749721 47.7917746,36.752662 C35.7454225,36.752662 27.5890986,46.1535634 26.8770845,55.4329014 C26.7034225,57.7078732 26.4602958,59.8960141 27.3343944,61.9220704 C27.3343944,61.9220704 27.9132676,66.2925634 47.936493,66.2925634 C67.9597183,66.2925634 69.8179014,61.6963099 69.8179014,61.6963099 Z" id="Path" fill="url(#linearGradient-5)" fill-rule="nonzero"></path>
                    <path d="M134.055465,38.784507 C133.239254,30.0145775 123.404197,16.9551972 110.373761,14.5239296 L109.887507,14.4486761 C104.407453,7.58313452 96.7289227,2.81574015 88.1450282,0.949352113 C85.4648036,0.371088303 82.7305999,0.0800091293 79.9887042,0.0810422535 C64.9234251,0.0683942915 51.2572909,8.91012012 45.0942254,22.6570986 L45.0942254,22.6570986 C38.729974,21.2662317 32.0743091,22.6283339 26.7681389,26.4075883 C21.4619687,30.1868428 17.9990191,36.0315991 17.2330563,42.5008732 L17.2330563,42.5008732 C7.97108451,42.5008732 0.445732394,48.9379437 0.445732394,56.8742958 C0.448045602,58.5913581 0.802683877,60.2896814 1.48770423,61.8641831 C1.48770423,61.8641831 1.95080282,65.2274366 17.3372535,65.2274366 C23.7453803,65.2274366 27.5254225,64.6485634 29.7540845,63.9597042 C32.2721831,65.1174507 37.4183662,66.3272958 47.9654366,66.3272958 C67.9597183,66.3272958 69.8468451,61.7310423 69.8468451,61.7310423 C70.0990211,61.1468705 70.2722764,60.5317167 70.3620423,59.9018028 C73.3258732,60.0812535 76.596507,60.179662 80.2665634,60.179662 C105.94538,60.179662 113.082887,55.398169 115.068423,52.8511268 C131.682085,51.5023521 133.476592,47.1318592 133.476592,47.1318592 C134.605394,44.4111549 134.333324,41.7946479 134.055465,38.784507 Z" id="Path"></path>
                    <path d="M134.055465,38.784507 C133.239254,30.0145775 123.404197,16.9551972 110.373761,14.5239296 L109.887507,14.4486761 C104.407453,7.58313452 96.7289227,2.81574015 88.1450282,0.949352113 C85.4648036,0.371088303 82.7305999,0.0800091293 79.9887042,0.0810422535 C64.9234251,0.0683942915 51.2572909,8.91012012 45.0942254,22.6570986 L45.0942254,22.6570986 C38.729974,21.2662317 32.0743091,22.6283339 26.7681389,26.4075883 C21.4619687,30.1868428 17.9990191,36.0315991 17.2330563,42.5008732 L17.2330563,42.5008732 C7.97108451,42.5008732 0.445732394,48.9379437 0.445732394,56.8742958 C0.448045602,58.5913581 0.802683877,60.2896814 1.48770423,61.8641831 C1.48770423,61.8641831 1.95080282,65.2274366 17.3372535,65.2274366 C23.7453803,65.2274366 27.5254225,64.6485634 29.7540845,63.9597042 C32.2721831,65.1174507 37.4183662,66.3272958 47.9654366,66.3272958 C67.9597183,66.3272958 69.8468451,61.7310423 69.8468451,61.7310423 C70.0990211,61.1468705 70.2722764,60.5317167 70.3620423,59.9018028 C73.3258732,60.0812535 76.596507,60.179662 80.2665634,60.179662 C105.94538,60.179662 113.082887,55.398169 115.068423,52.8511268 C131.682085,51.5023521 133.476592,47.1318592 133.476592,47.1318592 C134.605394,44.4111549 134.333324,41.7946479 134.055465,38.784507 Z" id="Path"></path>
                </g>
            </g>
        </g>
    </g>
</svg>