<?xml version="1.0" encoding="utf-8"?>
<!-- Generator: Adobe Illustrator 19.2.1, SVG Export Plug-In . SVG Version: 6.00 Build 0)  -->
<svg version="1.1"
	 id="Layer_1" inkscape:version="0.48.4 r9939" sodipodi:docname="openshift_enterprise.svg" xmlns:cc="http://creativecommons.org/ns#" xmlns:dc="http://purl.org/dc/elements/1.1/" xmlns:inkscape="http://www.inkscape.org/namespaces/inkscape" xmlns:rdf="http://www.w3.org/1999/02/22-rdf-syntax-ns#" xmlns:sodipodi="http://sodipodi.sourceforge.net/DTD/sodipodi-0.dtd" xmlns:svg="http://www.w3.org/2000/svg"
	 xmlns="http://www.w3.org/2000/svg" xmlns:xlink="http://www.w3.org/1999/xlink" x="0px" y="0px" viewBox="0 0 612 242.3"
	 style="enable-background:new 0 0 612 242.3;" xml:space="preserve">
<style type="text/css">
	.st0{fill:#373534;}
	.st1{fill:#95D600;}
	.st2{fill:#A30000;}
	.st3{fill:#CC0000;}
	.st4{fill:#820000;}
	.st5{fill:#FFFFFF;}
</style>
<sodipodi:namedview  bordercolor="#666666" borderopacity="1" gridtolerance="10" guidetolerance="10" id="namedview4167" inkscape:current-layer="Layer_1" inkscape:cx="258.81303" inkscape:cy="105.3065" inkscape:pageopacity="0" inkscape:pageshadow="2" inkscape:window-height="667" inkscape:window-maximized="1" inkscape:window-width="1368" inkscape:window-x="0" inkscape:window-y="28" inkscape:zoom="1" objecttolerance="10" pagecolor="#ffffff" showgrid="false">
	</sodipodi:namedview>
<circle id="circle3599" class="st0" cx="292.3" cy="99.5" r="99.5"/>
<g id="g3601">
	<g id="g3603">
		<circle id="circle3605" class="st0" cx="510.8" cy="149.6" r="37.6"/>
	</g>
	<g id="g3607">
		<path id="path3609" class="st1" d="M510.8,128.1c-11.9,0-21.6,9.7-21.6,21.6c0,11.9,9.7,21.6,21.6,21.6h0
			c11.9,0,21.6-9.7,21.6-21.6C532.4,137.7,522.7,128.1,510.8,128.1z M527.8,138.3c-1.6,1.6-3.1,3.4-4.4,5.3c-0.1,0-0.2,0-0.3,0
			c-0.2,0-0.5,0.1-0.6,0.2c-1.1-1.5-2-3.1-2.6-4.6c0.4-0.3,0.6-0.7,0.6-1.2c0-0.1,0-0.3-0.1-0.4c1.5-1,2.7-2.2,3.7-3.3
			C525.5,135.4,526.8,136.8,527.8,138.3z M501,144.2c1.1-0.1,2.2-0.3,3.4-0.5c0.2,0.5,0.7,0.8,1.3,0.8h0c0.2,0,0.4,0,0.6-0.1
			c1.4,2.1,3.1,4,5.1,5.7c2,1.8,4.2,3.3,6.6,4.5c0,0.1,0,0.2,0,0.3c0,0.6,0.3,1,0.8,1.3c-0.3,1.7-0.4,3.4-0.4,5.1
			c-0.3,0.1-0.5,0.2-0.7,0.4c-2.2-1.6-4.5-2.9-7-3.9c-3-1.2-6.1-2-9.2-2.3c-0.2-0.8-0.9-1.4-1.8-1.5c-0.2-1.5-0.4-3-0.4-4.5
			c0-1.3,0.1-2.5,0.2-3.7C500.3,145.8,500.9,145.1,501,144.2z M500.1,142.4c0.5-2,1.3-4,2.3-5.8c0.6,1.9,1.4,3.7,2.4,5.4
			c-0.3,0.2-0.4,0.5-0.5,0.9c-1.1,0.2-2.2,0.3-3.3,0.5C500.8,142.9,500.5,142.6,500.1,142.4z M519.2,153.5c-0.4,0-0.8,0.3-1,0.6
			c-2.3-1.2-4.4-2.6-6.4-4.4c-1.9-1.7-3.6-3.6-5-5.6c0.2-0.2,0.4-0.6,0.4-0.9c4.1-1,7.8-2.4,10.9-4.2c0.3,0.2,0.6,0.4,0.9,0.4h0
			c0.1,0,0.2,0,0.3,0c0.7,1.6,1.6,3.2,2.7,4.7c-0.2,0.3-0.4,0.6-0.4,0.9c0,0.4,0.2,0.7,0.4,1c-0.9,1.6-1.6,3.4-2.2,5.2
			C519.6,152,519.4,152.8,519.2,153.5z M518.7,130.8c1.7,0.7,3.3,1.7,4.8,2.8c-1,1.1-2.2,2.2-3.6,3.2c-0.2-0.2-0.6-0.3-0.9-0.3
			c0,0-0.1,0-0.1,0C518.4,134.4,518.3,132.5,518.7,130.8z M510.8,129.2c2.6,0,5.1,0.5,7.4,1.4c-0.5,1.8-0.4,3.9,0.2,6.1
			c-0.5,0.2-0.8,0.7-0.8,1.3c0,0.1,0,0.2,0,0.3c-3,1.7-6.7,3.1-10.6,4.1c-0.3-0.4-0.7-0.7-1.2-0.7c-0.2,0-0.3,0-0.5,0.1
			c-1.1-1.9-1.9-3.8-2.5-5.8c1.5-2.6,3.4-4.8,5.7-6.6C509.2,129.3,510,129.2,510.8,129.2z M506.7,129.6c-1.7,1.5-3.1,3.2-4.3,5.1
			c-0.3-1.1-0.5-2.3-0.6-3.4C503.3,130.6,505,130,506.7,129.6z M501.2,131.6c0.2,1.3,0.4,2.6,0.8,3.9c-1.2,2-2.1,4.3-2.8,6.7
			c0,0-0.1,0-0.1,0c-0.9,0-1.6,0.6-1.8,1.4c-2.1,0-4-0.1-5.9-0.4C493.1,138.2,496.7,134,501.2,131.6z M490.4,149.6
			c0-1.9,0.3-3.8,0.8-5.6c1.8,0.3,3.7,0.5,5.6,0.5c0.2,0,0.3,0,0.5,0c0.1,0.6,0.6,1.1,1.2,1.4c-0.2,1.2-0.3,2.5-0.3,3.8
			c0,1.6,0.1,3.1,0.4,4.7c-0.5,0.2-0.8,0.6-1,1.1c-2.1,0-4.1,0.3-6.2,0.7C490.8,154.1,490.4,151.9,490.4,149.6z M491.8,156.9
			c1.9-0.4,3.9-0.6,5.8-0.6c0.1,0.9,0.9,1.6,1.9,1.6h0c0,0,0,0,0,0c1.4,4.6,3.9,8.7,7.3,11.7C499.9,168.2,494.3,163.3,491.8,156.9z
			 M510.8,170L510.8,170c-0.8,0-1.6-0.1-2.4-0.1c-3.8-3-6.6-7.3-8.1-12.2c0.5-0.2,0.8-0.7,1-1.2c3,0.3,6,1,8.9,2.2
			c2.4,1,4.7,2.2,6.8,3.7c-0.1,0.2-0.2,0.5-0.2,0.8c0,1,0.8,1.8,1.7,1.9c0.1,1.1,0.4,2.1,0.6,3.1C516.7,169.3,513.8,170,510.8,170z
			 M520,167.8c-0.2-1-0.4-1.9-0.6-2.9c0.1-0.1,0.3-0.1,0.4-0.2c0.7,0.6,1.4,1.3,2,2C521.3,167.1,520.7,167.5,520,167.8z
			 M522.7,166.2c-0.7-0.8-1.4-1.5-2.2-2.2c0.1-0.3,0.2-0.5,0.2-0.8c0-0.9-0.6-1.6-1.5-1.8c0-1.6,0.1-3.3,0.3-4.9
			c0.4-0.1,0.8-0.3,1-0.6c2.9,1.1,5.9,1.8,8.9,2C528,161.2,525.6,164.1,522.7,166.2z M529.7,157.2c-3-0.1-6.1-0.8-9-1.9
			c0-0.1,0-0.2,0-0.3c0-0.5-0.3-1-0.7-1.3c0.2-0.7,0.4-1.5,0.6-2.2c0.6-1.7,1.3-3.4,2.1-5c0.1,0,0.2,0,0.3,0h0
			c0.2,0,0.5-0.1,0.7-0.2c0.5,0.6,1,1.1,1.6,1.6c1.8,1.7,3.7,3.2,5.7,4.3C530.8,154,530.3,155.7,529.7,157.2z M525.7,147.6
			c-0.5-0.5-1-1.1-1.5-1.6c0.2-0.3,0.3-0.6,0.3-0.9c0-0.4-0.1-0.7-0.4-1c1.2-1.8,2.6-3.5,4.1-5c1.9,3.1,2.9,6.7,2.9,10.5
			c0,0.7,0,1.4-0.1,2.1C529.2,150.6,527.4,149.2,525.7,147.6z"/>
	</g>
</g>
<circle id="circle3611" class="st0" cx="446.6" cy="75.4" r="64.3"/>
<circle id="circle3613" class="st0" cx="134.4" cy="165.3" r="77"/>
<g id="g3615">
	<g id="g3617">
		<circle id="circle3619" class="st0" cx="48.7" cy="77.8" r="48.7"/>
	</g>
</g>
<g id="g3621">
	<g id="g3623">
		<path id="path3625" class="st1" d="M472.3,92.3c-0.3-0.8-0.6-1.6-0.9-2.4v-5.8c0-0.2,0-0.7,0-0.8V41.2c0-0.9-0.5-1.6-1.3-2
			l-6.4-2.9h-27.8l-7.4,2.9c-0.8,0.3-1.3,1.1-1.3,2v42.2c0,0.1,0,0.6,0,0.8v10.6c0,0.3,0.1,0.6,0.1,0.8c-1.1,1.3-2,3-2.4,4.8
			c-4.7,0.2-8.7,3.5-9.8,8.1c0,0.2,0,0.4,0.1,0.6c0.1,0.2,0.3,0.3,0.6,0.3h66.9c0.3,0,0.6-0.2,0.7-0.6c0.1-0.9,0.2-1.7,0.2-2.4
			C483.6,99.5,478.9,93.7,472.3,92.3z M469.9,87.4c-1.1-1.6-2.5-2.9-4-4h4V87.4z M436.2,37.8h27.2l5.9,2.7h-39.9L436.2,37.8z
			 M428.6,42h41.3v40h-6.5c-2.2-1.1-4.7-1.7-7.3-1.7c-2.6,0-5.1,0.6-7.4,1.7h-20V42z M428.6,83.4h17.5c-3,2.1-5.3,5.2-6.4,8.8
			c-1.2-0.4-2.5-0.7-3.8-0.7c-2.8,0-5.3,1-7.3,2.7L428.6,83.4L428.6,83.4z M482.1,107.9h-65.4c1.2-3.7,4.6-6.2,8.6-6.2h0l0.1,0
			c0.4,0,0.7-0.2,0.7-0.6c0.3-1.7,1-3.2,2.1-4.5c0.3-0.4,0.7-0.8,1.1-1.2c1.8-1.6,4.1-2.5,6.6-2.5c1.3,0,2.5,0.3,3.7,0.7
			c0.6,0.3,1.6,0.8,2.5,1.8c0.3,0.3,0.6,0.7,0.8,1.1c0.1,0.2,0.3,0.3,0.5,0.2c0.1,0,0.1,0,0.2-0.1c0.3-0.1,0.3-0.5,0.2-0.7
			c-0.1-0.2-0.2-0.4-0.4-0.6c-0.8-1.1-1.8-1.8-2.6-2.3c1.2-4.3,4.1-7.8,7.9-9.8c1.3-0.7,2.8-1.2,4.3-1.5c0.9-0.2,1.9-0.3,2.8-0.3
			c1,0,1.9,0.1,2.8,0.3c1.5,0.3,3,0.8,4.4,1.5c2.8,1.5,5.2,3.8,6.7,6.7c0.4,0.7,0.7,1.5,1,2.3c-0.3,0-0.7,0-1,0.1
			c-1.3,0.2-2.2,0.6-2.3,0.6c-0.3,0.1-0.4,0.4-0.3,0.7c0.1,0.3,0.4,0.4,0.7,0.3c0,0,0.8-0.3,1.9-0.4c0.4-0.1,1-0.1,1.5,0
			c0.2,0,0.4,0,0.6,0.1c5.9,1.3,10.2,6.5,10.2,12.6C482.2,106.8,482.1,107.3,482.1,107.9z"/>
		<g id="g3627">
			<path id="path3629" class="st1" d="M454.5,69.7h-0.7c-0.2,0-0.4-0.2-0.4-0.4s0.2-0.4,0.4-0.4h0.7c0.2,0,0.4,0.2,0.4,0.4
				S454.7,69.7,454.5,69.7z M452.3,69.7h-0.7c-0.2,0-0.4-0.2-0.4-0.4s0.2-0.4,0.4-0.4h0.7c0.2,0,0.4,0.2,0.4,0.4
				S452.5,69.7,452.3,69.7z M450,69.7h-0.7c-0.2,0-0.4-0.2-0.4-0.4s0.2-0.4,0.4-0.4h0.7c0.2,0,0.4,0.2,0.4,0.4S450.2,69.7,450,69.7z
				 M447.8,69.7H447c-0.2,0-0.4-0.2-0.4-0.4s0.2-0.4,0.4-0.4h0.7c0.2,0,0.4,0.2,0.4,0.4S448,69.7,447.8,69.7z M445.5,69.7h-0.7
				c-0.2,0-0.4-0.2-0.4-0.4s0.2-0.4,0.4-0.4h0.7c0.2,0,0.4,0.2,0.4,0.4S445.8,69.7,445.5,69.7z M443.3,69.7h-0.7
				c-0.2,0-0.4-0.2-0.4-0.4s0.2-0.4,0.4-0.4h0.7c0.2,0,0.4,0.2,0.4,0.4S443.5,69.7,443.3,69.7z M441.1,69.7h-0.7
				c-0.2,0-0.4-0.2-0.4-0.4s0.2-0.4,0.4-0.4h0.7c0.2,0,0.4,0.2,0.4,0.4S441.3,69.7,441.1,69.7z M438.8,69.7h-0.7
				c-0.2,0-0.4-0.2-0.4-0.4s0.2-0.4,0.4-0.4h0.7c0.2,0,0.4,0.2,0.4,0.4S439,69.7,438.8,69.7z M436.6,69.7h-0.7
				c-0.2,0-0.4-0.2-0.4-0.4s0.2-0.4,0.4-0.4h0.7c0.2,0,0.4,0.2,0.4,0.4S436.8,69.7,436.6,69.7z M434.3,69.7h-0.7
				c-0.2,0-0.4-0.2-0.4-0.4s0.2-0.4,0.4-0.4h0.7c0.2,0,0.4,0.2,0.4,0.4S434.5,69.7,434.3,69.7z M456,69.7c-0.2,0-0.4-0.2-0.4-0.3
				c0-0.2,0.1-0.4,0.3-0.4c0.1,0,0.3-0.1,0.3-0.2c0.1-0.2,0.3-0.2,0.5-0.1c0.2,0.1,0.2,0.3,0.1,0.5C456.7,69.4,456.4,69.6,456,69.7
				C456,69.7,456,69.7,456,69.7z M432.8,68.6c-0.2,0-0.4-0.2-0.4-0.4v-0.7c0-0.2,0.2-0.4,0.4-0.4c0.2,0,0.4,0.2,0.4,0.4v0.7
				C433.2,68.5,433,68.6,432.8,68.6z M456.8,67.8c-0.2,0-0.4-0.2-0.4-0.4v-0.7c0-0.2,0.2-0.4,0.4-0.4c0.2,0,0.4,0.2,0.4,0.4v0.7
				C457.1,67.7,457,67.8,456.8,67.8z M432.8,66.4c-0.2,0-0.4-0.2-0.4-0.4v-0.7c0-0.2,0.2-0.4,0.4-0.4c0.2,0,0.4,0.2,0.4,0.4V66
				C433.2,66.2,433,66.4,432.8,66.4z M456.8,65.6c-0.2,0-0.4-0.2-0.4-0.4v-0.7c0-0.2,0.2-0.4,0.4-0.4c0.2,0,0.4,0.2,0.4,0.4v0.7
				C457.1,65.4,457,65.6,456.8,65.6z M432.8,64.1c-0.2,0-0.4-0.2-0.4-0.4V63c0-0.2,0.2-0.4,0.4-0.4c0.2,0,0.4,0.2,0.4,0.4v0.7
				C433.2,64,433,64.1,432.8,64.1z M456.8,63.4c-0.2,0-0.4-0.2-0.4-0.4v-0.7c0-0.2,0.2-0.4,0.4-0.4c0.2,0,0.4,0.2,0.4,0.4V63
				C457.1,63.2,457,63.4,456.8,63.4z M432.8,61.9c-0.2,0-0.4-0.2-0.4-0.4v-0.7c0-0.2,0.2-0.4,0.4-0.4c0.2,0,0.4,0.2,0.4,0.4v0.7
				C433.2,61.7,433,61.9,432.8,61.9z M456.8,61.1c-0.2,0-0.4-0.2-0.4-0.4V60c0-0.2,0.2-0.4,0.4-0.4c0.2,0,0.4,0.2,0.4,0.4v0.7
				C457.1,60.9,457,61.1,456.8,61.1z M432.8,59.7c-0.2,0-0.4-0.2-0.4-0.4v-0.7c0-0.2,0.2-0.4,0.4-0.4c0.2,0,0.4,0.2,0.4,0.4v0.7
				C433.2,59.5,433,59.7,432.8,59.7z M456.8,58.9c-0.2,0-0.4-0.2-0.4-0.4v-0.7c0-0.2,0.2-0.4,0.4-0.4c0.2,0,0.4,0.2,0.4,0.4v0.7
				C457.1,58.7,457,58.9,456.8,58.9z M432.8,57.4c-0.2,0-0.4-0.2-0.4-0.4v-0.7c0-0.2,0.2-0.4,0.4-0.4c0.2,0,0.4,0.2,0.4,0.4v0.7
				C433.2,57.3,433,57.4,432.8,57.4z M456.8,56.6c-0.2,0-0.4-0.2-0.4-0.4v-0.7c0-0.2,0.2-0.4,0.4-0.4c0.2,0,0.4,0.2,0.4,0.4v0.7
				C457.1,56.5,457,56.6,456.8,56.6z M432.8,55.2c-0.2,0-0.4-0.2-0.4-0.4v-0.7c0-0.2,0.2-0.4,0.4-0.4c0.2,0,0.4,0.2,0.4,0.4v0.7
				C433.2,55,433,55.2,432.8,55.2z M456.8,54.4c-0.2,0-0.4-0.2-0.4-0.4v-0.7c0-0.2,0.2-0.4,0.4-0.4c0.2,0,0.4,0.2,0.4,0.4V54
				C457.1,54.2,457,54.4,456.8,54.4z M432.8,52.9c-0.2,0-0.4-0.2-0.4-0.4v-0.7c0-0.2,0.2-0.4,0.4-0.4c0.2,0,0.4,0.2,0.4,0.4v0.7
				C433.2,52.8,433,52.9,432.8,52.9z M456.8,52.2c-0.2,0-0.4-0.2-0.4-0.4V51c0-0.2,0.2-0.4,0.4-0.4c0.2,0,0.4,0.2,0.4,0.4v0.7
				C457.1,52,457,52.2,456.8,52.2z M432.8,50.7c-0.2,0-0.4-0.2-0.4-0.4v-0.7c0-0.2,0.2-0.4,0.4-0.4c0.2,0,0.4,0.2,0.4,0.4v0.7
				C433.2,50.5,433,50.7,432.8,50.7z M456.8,49.9c-0.2,0-0.4-0.2-0.4-0.4v-0.7c0-0.2,0.2-0.4,0.4-0.4c0.2,0,0.4,0.2,0.4,0.4v0.7
				C457.1,49.7,457,49.9,456.8,49.9z M432.8,48.5c-0.2,0-0.4-0.2-0.4-0.4v-0.7c0-0.2,0.2-0.4,0.4-0.4c0.2,0,0.4,0.2,0.4,0.4v0.7
				C433.2,48.3,433,48.5,432.8,48.5z M456.8,47.7c-0.2,0-0.4-0.2-0.4-0.4v-0.7c0-0.2,0.2-0.4,0.4-0.4c0.2,0,0.4,0.2,0.4,0.4v0.7
				C457.1,47.5,457,47.7,456.8,47.7z M432.9,46.2c-0.1,0-0.1,0-0.2-0.1c-0.2-0.1-0.2-0.3-0.1-0.5c0.2-0.3,0.5-0.5,0.9-0.5
				c0.2,0,0.4,0.1,0.4,0.3c0,0.2-0.1,0.4-0.3,0.4c-0.1,0-0.3,0.1-0.3,0.2C433.2,46.2,433,46.2,432.9,46.2z M456,45.9h-0.8
				c-0.2,0-0.4-0.2-0.4-0.4c0-0.2,0.2-0.4,0.4-0.4h0.7c0.2,0,0.4,0.2,0.4,0.4C456.3,45.7,456.2,45.9,456,45.9z M453.7,45.9H453
				c-0.2,0-0.4-0.2-0.4-0.4c0-0.2,0.2-0.4,0.4-0.4h0.7c0.2,0,0.4,0.2,0.4,0.4C454.1,45.7,453.9,45.9,453.7,45.9z M451.5,45.9h-0.7
				c-0.2,0-0.4-0.2-0.4-0.4c0-0.2,0.2-0.4,0.4-0.4h0.7c0.2,0,0.4,0.2,0.4,0.4C451.8,45.7,451.7,45.9,451.5,45.9z M449.2,45.9h-0.7
				c-0.2,0-0.4-0.2-0.4-0.4c0-0.2,0.2-0.4,0.4-0.4h0.7c0.2,0,0.4,0.2,0.4,0.4C449.6,45.7,449.4,45.9,449.2,45.9z M447,45.9h-0.7
				c-0.2,0-0.4-0.2-0.4-0.4c0-0.2,0.2-0.4,0.4-0.4h0.7c0.2,0,0.4,0.2,0.4,0.4C447.4,45.7,447.2,45.9,447,45.9z M444.7,45.9H444
				c-0.2,0-0.4-0.2-0.4-0.4c0-0.2,0.2-0.4,0.4-0.4h0.7c0.2,0,0.4,0.2,0.4,0.4C445.1,45.7,445,45.9,444.7,45.9z M442.5,45.9h-0.7
				c-0.2,0-0.4-0.2-0.4-0.4c0-0.2,0.2-0.4,0.4-0.4h0.7c0.2,0,0.4,0.2,0.4,0.4C442.9,45.7,442.7,45.9,442.5,45.9z M440.3,45.9h-0.7
				c-0.2,0-0.4-0.2-0.4-0.4c0-0.2,0.2-0.4,0.4-0.4h0.7c0.2,0,0.4,0.2,0.4,0.4C440.6,45.7,440.5,45.9,440.3,45.9z M438,45.9h-0.7
				c-0.2,0-0.4-0.2-0.4-0.4c0-0.2,0.2-0.4,0.4-0.4h0.7c0.2,0,0.4,0.2,0.4,0.4C438.4,45.7,438.2,45.9,438,45.9z M435.8,45.9H435
				c-0.2,0-0.4-0.2-0.4-0.4c0-0.2,0.2-0.4,0.4-0.4h0.7c0.2,0,0.4,0.2,0.4,0.4C436.2,45.7,436,45.9,435.8,45.9z"/>
			<path id="path3631" class="st1" d="M459.1,74.3h-0.7c-0.2,0-0.4-0.2-0.4-0.4s0.2-0.4,0.4-0.4h0.7c0.2,0,0.4,0.2,0.4,0.4
				S459.4,74.3,459.1,74.3z M456.9,74.3h-0.7c-0.2,0-0.4-0.2-0.4-0.4s0.2-0.4,0.4-0.4h0.7c0.2,0,0.4,0.2,0.4,0.4
				S457.1,74.3,456.9,74.3z M454.7,74.3h-0.7c-0.2,0-0.4-0.2-0.4-0.4s0.2-0.4,0.4-0.4h0.7c0.2,0,0.4,0.2,0.4,0.4
				S454.9,74.3,454.7,74.3z M452.4,74.3h-0.7c-0.2,0-0.4-0.2-0.4-0.4s0.2-0.4,0.4-0.4h0.7c0.2,0,0.4,0.2,0.4,0.4
				S452.6,74.3,452.4,74.3z M450.2,74.3h-0.7c-0.2,0-0.4-0.2-0.4-0.4s0.2-0.4,0.4-0.4h0.7c0.2,0,0.4,0.2,0.4,0.4
				S450.4,74.3,450.2,74.3z M447.9,74.3h-0.7c-0.2,0-0.4-0.2-0.4-0.4s0.2-0.4,0.4-0.4h0.7c0.2,0,0.4,0.2,0.4,0.4
				S448.1,74.3,447.9,74.3z M445.7,74.3H445c-0.2,0-0.4-0.2-0.4-0.4s0.2-0.4,0.4-0.4h0.7c0.2,0,0.4,0.2,0.4,0.4
				S445.9,74.3,445.7,74.3z M443.5,74.3h-0.7c-0.2,0-0.4-0.2-0.4-0.4s0.2-0.4,0.4-0.4h0.7c0.2,0,0.4,0.2,0.4,0.4
				S443.7,74.3,443.5,74.3z M441.2,74.3h-0.7c-0.2,0-0.4-0.2-0.4-0.4s0.2-0.4,0.4-0.4h0.7c0.2,0,0.4,0.2,0.4,0.4
				S441.4,74.3,441.2,74.3z M439,74.3h-0.7c-0.2,0-0.4-0.2-0.4-0.4s0.2-0.4,0.4-0.4h0.7c0.2,0,0.4,0.2,0.4,0.4S439.2,74.3,439,74.3z
				 M460.6,74.3c-0.2,0-0.4-0.2-0.4-0.3c0-0.2,0.1-0.4,0.3-0.4c0.1,0,0.3-0.1,0.3-0.2c0.1-0.2,0.3-0.2,0.5-0.1
				c0.2,0.1,0.2,0.3,0.1,0.5C461.4,74.1,461,74.3,460.6,74.3C460.7,74.3,460.6,74.3,460.6,74.3z M437.4,73.3c-0.2,0-0.4-0.2-0.4-0.4
				v-0.7c0-0.2,0.2-0.4,0.4-0.4c0.2,0,0.4,0.2,0.4,0.4v0.7C437.8,73.1,437.6,73.3,437.4,73.3z M461.4,72.5c-0.2,0-0.4-0.2-0.4-0.4
				v-0.7c0-0.2,0.2-0.4,0.4-0.4c0.2,0,0.4,0.2,0.4,0.4v0.7C461.8,72.3,461.6,72.5,461.4,72.5z M437.4,71c-0.2,0-0.4-0.2-0.4-0.4
				v-0.7c0-0.2,0.2-0.4,0.4-0.4c0.2,0,0.4,0.2,0.4,0.4v0.7C437.8,70.9,437.6,71,437.4,71z M461.4,70.2c-0.2,0-0.4-0.2-0.4-0.4v-0.7
				c0-0.2,0.2-0.4,0.4-0.4c0.2,0,0.4,0.2,0.4,0.4v0.7C461.8,70.1,461.6,70.2,461.4,70.2z M437.4,68.8c-0.2,0-0.4-0.2-0.4-0.4v-0.7
				c0-0.2,0.2-0.4,0.4-0.4c0.2,0,0.4,0.2,0.4,0.4v0.7C437.8,68.6,437.6,68.8,437.4,68.8z M461.4,68c-0.2,0-0.4-0.2-0.4-0.4v-0.7
				c0-0.2,0.2-0.4,0.4-0.4c0.2,0,0.4,0.2,0.4,0.4v0.7C461.8,67.8,461.6,68,461.4,68z M437.4,66.5c-0.2,0-0.4-0.2-0.4-0.4v-0.7
				c0-0.2,0.2-0.4,0.4-0.4c0.2,0,0.4,0.2,0.4,0.4v0.7C437.8,66.4,437.6,66.5,437.4,66.5z M461.4,65.8c-0.2,0-0.4-0.2-0.4-0.4v-0.7
				c0-0.2,0.2-0.4,0.4-0.4c0.2,0,0.4,0.2,0.4,0.4v0.7C461.8,65.6,461.6,65.8,461.4,65.8z M437.4,64.3c-0.2,0-0.4-0.2-0.4-0.4v-0.7
				c0-0.2,0.2-0.4,0.4-0.4c0.2,0,0.4,0.2,0.4,0.4v0.7C437.8,64.1,437.6,64.3,437.4,64.3z M461.4,63.5c-0.2,0-0.4-0.2-0.4-0.4v-0.7
				c0-0.2,0.2-0.4,0.4-0.4c0.2,0,0.4,0.2,0.4,0.4v0.7C461.8,63.3,461.6,63.5,461.4,63.5z M437.4,62.1c-0.2,0-0.4-0.2-0.4-0.4v-0.7
				c0-0.2,0.2-0.4,0.4-0.4c0.2,0,0.4,0.2,0.4,0.4v0.7C437.8,61.9,437.6,62.1,437.4,62.1z M461.4,61.3c-0.2,0-0.4-0.2-0.4-0.4v-0.7
				c0-0.2,0.2-0.4,0.4-0.4c0.2,0,0.4,0.2,0.4,0.4v0.7C461.8,61.1,461.6,61.3,461.4,61.3z M437.4,59.8c-0.2,0-0.4-0.2-0.4-0.4v-0.7
				c0-0.2,0.2-0.4,0.4-0.4c0.2,0,0.4,0.2,0.4,0.4v0.7C437.8,59.7,437.6,59.8,437.4,59.8z M461.4,59c-0.2,0-0.4-0.2-0.4-0.4v-0.7
				c0-0.2,0.2-0.4,0.4-0.4c0.2,0,0.4,0.2,0.4,0.4v0.7C461.8,58.9,461.6,59,461.4,59z M437.4,57.6c-0.2,0-0.4-0.2-0.4-0.4v-0.7
				c0-0.2,0.2-0.4,0.4-0.4c0.2,0,0.4,0.2,0.4,0.4v0.7C437.8,57.4,437.6,57.6,437.4,57.6z M461.4,56.8c-0.2,0-0.4-0.2-0.4-0.4v-0.7
				c0-0.2,0.2-0.4,0.4-0.4c0.2,0,0.4,0.2,0.4,0.4v0.7C461.8,56.6,461.6,56.8,461.4,56.8z M437.4,55.3c-0.2,0-0.4-0.2-0.4-0.4v-0.7
				c0-0.2,0.2-0.4,0.4-0.4c0.2,0,0.4,0.2,0.4,0.4V55C437.8,55.2,437.6,55.3,437.4,55.3z M461.4,54.5c-0.2,0-0.4-0.2-0.4-0.4v-0.7
				c0-0.2,0.2-0.4,0.4-0.4c0.2,0,0.4,0.2,0.4,0.4v0.7C461.8,54.4,461.6,54.5,461.4,54.5z M437.4,53.1c-0.2,0-0.4-0.2-0.4-0.4V52
				c0-0.2,0.2-0.4,0.4-0.4c0.2,0,0.4,0.2,0.4,0.4v0.7C437.8,52.9,437.6,53.1,437.4,53.1z M461.4,52.3c-0.2,0-0.4-0.2-0.4-0.4v-0.7
				c0-0.2,0.2-0.4,0.4-0.4c0.2,0,0.4,0.2,0.4,0.4v0.7C461.8,52.1,461.6,52.3,461.4,52.3z M437.6,50.9c-0.1,0-0.1,0-0.2-0.1
				c-0.2-0.1-0.2-0.3-0.1-0.5c0.2-0.3,0.5-0.5,0.9-0.5c0.2,0,0.4,0.1,0.4,0.3c0,0.2-0.1,0.4-0.3,0.4c-0.1,0-0.3,0.1-0.3,0.2
				C437.8,50.8,437.7,50.9,437.6,50.9z M460.6,50.5h-0.8c-0.2,0-0.4-0.2-0.4-0.4c0-0.2,0.2-0.4,0.4-0.4h0.7c0.2,0,0.4,0.2,0.4,0.4
				C461,50.4,460.8,50.5,460.6,50.5z M458.4,50.5h-0.7c-0.2,0-0.4-0.2-0.4-0.4c0-0.2,0.2-0.4,0.4-0.4h0.7c0.2,0,0.4,0.2,0.4,0.4
				C458.7,50.4,458.6,50.5,458.4,50.5z M456.1,50.5h-0.7c-0.2,0-0.4-0.2-0.4-0.4c0-0.2,0.2-0.4,0.4-0.4h0.7c0.2,0,0.4,0.2,0.4,0.4
				C456.5,50.4,456.3,50.5,456.1,50.5z M453.9,50.5h-0.7c-0.2,0-0.4-0.2-0.4-0.4c0-0.2,0.2-0.4,0.4-0.4h0.7c0.2,0,0.4,0.2,0.4,0.4
				C454.2,50.4,454.1,50.5,453.9,50.5z M451.6,50.5h-0.7c-0.2,0-0.4-0.2-0.4-0.4c0-0.2,0.2-0.4,0.4-0.4h0.7c0.2,0,0.4,0.2,0.4,0.4
				C452,50.4,451.8,50.5,451.6,50.5z M449.4,50.5h-0.7c-0.2,0-0.4-0.2-0.4-0.4c0-0.2,0.2-0.4,0.4-0.4h0.7c0.2,0,0.4,0.2,0.4,0.4
				C449.8,50.4,449.6,50.5,449.4,50.5z M447.1,50.5h-0.7c-0.2,0-0.4-0.2-0.4-0.4c0-0.2,0.2-0.4,0.4-0.4h0.7c0.2,0,0.4,0.2,0.4,0.4
				C447.5,50.4,447.4,50.5,447.1,50.5z M444.9,50.5h-0.7c-0.2,0-0.4-0.2-0.4-0.4c0-0.2,0.2-0.4,0.4-0.4h0.7c0.2,0,0.4,0.2,0.4,0.4
				C445.3,50.4,445.1,50.5,444.9,50.5z M442.7,50.5h-0.7c-0.2,0-0.4-0.2-0.4-0.4c0-0.2,0.2-0.4,0.4-0.4h0.7c0.2,0,0.4,0.2,0.4,0.4
				C443,50.4,442.9,50.5,442.7,50.5z M440.4,50.5h-0.7c-0.2,0-0.4-0.2-0.4-0.4c0-0.2,0.2-0.4,0.4-0.4h0.7c0.2,0,0.4,0.2,0.4,0.4
				C440.8,50.4,440.6,50.5,440.4,50.5z"/>
			<path id="path3633" class="st1" d="M463.8,78.9H463c-0.2,0-0.4-0.2-0.4-0.4c0-0.2,0.2-0.4,0.4-0.4h0.7c0.2,0,0.4,0.2,0.4,0.4
				C464.2,78.8,464,78.9,463.8,78.9z M461.5,78.9h-0.7c-0.2,0-0.4-0.2-0.4-0.4c0-0.2,0.2-0.4,0.4-0.4h0.7c0.2,0,0.4,0.2,0.4,0.4
				C461.9,78.8,461.7,78.9,461.5,78.9z M459.3,78.9h-0.7c-0.2,0-0.4-0.2-0.4-0.4c0-0.2,0.2-0.4,0.4-0.4h0.7c0.2,0,0.4,0.2,0.4,0.4
				C459.7,78.8,459.5,78.9,459.3,78.9z M457.1,78.9h-0.7c-0.2,0-0.4-0.2-0.4-0.4c0-0.2,0.2-0.4,0.4-0.4h0.7c0.2,0,0.4,0.2,0.4,0.4
				C457.4,78.8,457.3,78.9,457.1,78.9z M454.8,78.9h-0.7c-0.2,0-0.4-0.2-0.4-0.4c0-0.2,0.2-0.4,0.4-0.4h0.7c0.2,0,0.4,0.2,0.4,0.4
				C455.2,78.8,455,78.9,454.8,78.9z M452.6,78.9h-0.7c-0.2,0-0.4-0.2-0.4-0.4c0-0.2,0.2-0.4,0.4-0.4h0.7c0.2,0,0.4,0.2,0.4,0.4
				C453,78.8,452.8,78.9,452.6,78.9z M450.3,78.9h-0.7c-0.2,0-0.4-0.2-0.4-0.4c0-0.2,0.2-0.4,0.4-0.4h0.7c0.2,0,0.4,0.2,0.4,0.4
				C450.7,78.8,450.5,78.9,450.3,78.9z M448.1,78.9h-0.7c-0.2,0-0.4-0.2-0.4-0.4c0-0.2,0.2-0.4,0.4-0.4h0.7c0.2,0,0.4,0.2,0.4,0.4
				C448.5,78.8,448.3,78.9,448.1,78.9z M445.9,78.9h-0.7c-0.2,0-0.4-0.2-0.4-0.4c0-0.2,0.2-0.4,0.4-0.4h0.7c0.2,0,0.4,0.2,0.4,0.4
				C446.2,78.8,446.1,78.9,445.9,78.9z M443.6,78.9h-0.7c-0.2,0-0.4-0.2-0.4-0.4c0-0.2,0.2-0.4,0.4-0.4h0.7c0.2,0,0.4,0.2,0.4,0.4
				C444,78.8,443.8,78.9,443.6,78.9z M465.3,78.9c-0.2,0-0.4-0.2-0.4-0.3c0-0.2,0.1-0.4,0.3-0.4c0.1,0,0.3-0.1,0.3-0.2
				c0.1-0.2,0.3-0.2,0.5-0.1c0.2,0.1,0.2,0.3,0.1,0.5C466,78.7,465.7,78.9,465.3,78.9C465.3,78.9,465.3,78.9,465.3,78.9z
				 M442.1,77.9c-0.2,0-0.4-0.2-0.4-0.4v-0.7c0-0.2,0.2-0.4,0.4-0.4c0.2,0,0.4,0.2,0.4,0.4v0.7C442.4,77.7,442.3,77.9,442.1,77.9z
				 M466,77.1c-0.2,0-0.4-0.2-0.4-0.4V76c0-0.2,0.2-0.4,0.4-0.4c0.2,0,0.4,0.2,0.4,0.4v0.7C466.4,76.9,466.2,77.1,466,77.1z
				 M442.1,75.7c-0.2,0-0.4-0.2-0.4-0.4v-0.7c0-0.2,0.2-0.4,0.4-0.4c0.2,0,0.4,0.2,0.4,0.4v0.7C442.4,75.5,442.3,75.7,442.1,75.7z
				 M466,74.9c-0.2,0-0.4-0.2-0.4-0.4v-0.7c0-0.2,0.2-0.4,0.4-0.4c0.2,0,0.4,0.2,0.4,0.4v0.7C466.4,74.7,466.2,74.9,466,74.9z
				 M442.1,73.4c-0.2,0-0.4-0.2-0.4-0.4v-0.7c0-0.2,0.2-0.4,0.4-0.4c0.2,0,0.4,0.2,0.4,0.4v0.7C442.4,73.3,442.3,73.4,442.1,73.4z
				 M466,72.6c-0.2,0-0.4-0.2-0.4-0.4v-0.7c0-0.2,0.2-0.4,0.4-0.4c0.2,0,0.4,0.2,0.4,0.4v0.7C466.4,72.5,466.2,72.6,466,72.6z
				 M442.1,71.2c-0.2,0-0.4-0.2-0.4-0.4v-0.7c0-0.2,0.2-0.4,0.4-0.4c0.2,0,0.4,0.2,0.4,0.4v0.7C442.4,71,442.3,71.2,442.1,71.2z
				 M466,70.4c-0.2,0-0.4-0.2-0.4-0.4v-0.7c0-0.2,0.2-0.4,0.4-0.4c0.2,0,0.4,0.2,0.4,0.4V70C466.4,70.2,466.2,70.4,466,70.4z
				 M442.1,68.9c-0.2,0-0.4-0.2-0.4-0.4v-0.7c0-0.2,0.2-0.4,0.4-0.4c0.2,0,0.4,0.2,0.4,0.4v0.7C442.4,68.8,442.3,68.9,442.1,68.9z
				 M466,68.1c-0.2,0-0.4-0.2-0.4-0.4V67c0-0.2,0.2-0.4,0.4-0.4c0.2,0,0.4,0.2,0.4,0.4v0.7C466.4,68,466.2,68.1,466,68.1z
				 M442.1,66.7c-0.2,0-0.4-0.2-0.4-0.4v-0.7c0-0.2,0.2-0.4,0.4-0.4c0.2,0,0.4,0.2,0.4,0.4v0.7C442.4,66.5,442.3,66.7,442.1,66.7z
				 M466,65.9c-0.2,0-0.4-0.2-0.4-0.4v-0.7c0-0.2,0.2-0.4,0.4-0.4c0.2,0,0.4,0.2,0.4,0.4v0.7C466.4,65.7,466.2,65.9,466,65.9z
				 M442.1,64.5c-0.2,0-0.4-0.2-0.4-0.4v-0.7c0-0.2,0.2-0.4,0.4-0.4c0.2,0,0.4,0.2,0.4,0.4v0.7C442.4,64.3,442.3,64.5,442.1,64.5z
				 M466,63.7c-0.2,0-0.4-0.2-0.4-0.4v-0.7c0-0.2,0.2-0.4,0.4-0.4c0.2,0,0.4,0.2,0.4,0.4v0.7C466.4,63.5,466.2,63.7,466,63.7z
				 M442.1,62.2c-0.2,0-0.4-0.2-0.4-0.4v-0.7c0-0.2,0.2-0.4,0.4-0.4c0.2,0,0.4,0.2,0.4,0.4v0.7C442.4,62.1,442.3,62.2,442.1,62.2z
				 M466,61.4c-0.2,0-0.4-0.2-0.4-0.4v-0.7c0-0.2,0.2-0.4,0.4-0.4c0.2,0,0.4,0.2,0.4,0.4v0.7C466.4,61.3,466.2,61.4,466,61.4z
				 M442.1,60c-0.2,0-0.4-0.2-0.4-0.4v-0.7c0-0.2,0.2-0.4,0.4-0.4c0.2,0,0.4,0.2,0.4,0.4v0.7C442.4,59.8,442.3,60,442.1,60z
				 M466,59.2c-0.2,0-0.4-0.2-0.4-0.4v-0.7c0-0.2,0.2-0.4,0.4-0.4c0.2,0,0.4,0.2,0.4,0.4v0.7C466.4,59,466.2,59.2,466,59.2z
				 M442.1,57.7c-0.2,0-0.4-0.2-0.4-0.4v-0.7c0-0.2,0.2-0.4,0.4-0.4c0.2,0,0.4,0.2,0.4,0.4v0.7C442.4,57.6,442.3,57.7,442.1,57.7z
				 M466,56.9c-0.2,0-0.4-0.2-0.4-0.4v-0.7c0-0.2,0.2-0.4,0.4-0.4c0.2,0,0.4,0.2,0.4,0.4v0.7C466.4,56.8,466.2,56.9,466,56.9z
				 M442.2,55.5c-0.1,0-0.1,0-0.2-0.1c-0.2-0.1-0.2-0.3-0.1-0.5c0.2-0.3,0.5-0.5,0.9-0.5c0.2,0,0.4,0.1,0.4,0.3
				c0,0.2-0.1,0.4-0.3,0.4c-0.1,0-0.3,0.1-0.3,0.2C442.4,55.5,442.3,55.5,442.2,55.5z M465.2,55.2h-0.8c-0.2,0-0.4-0.2-0.4-0.4
				s0.2-0.4,0.4-0.4h0.7c0.2,0,0.4,0.2,0.4,0.4S465.4,55.2,465.2,55.2z M463,55.2h-0.7c-0.2,0-0.4-0.2-0.4-0.4s0.2-0.4,0.4-0.4h0.7
				c0.2,0,0.4,0.2,0.4,0.4S463.2,55.2,463,55.2z M460.7,55.2H460c-0.2,0-0.4-0.2-0.4-0.4s0.2-0.4,0.4-0.4h0.7c0.2,0,0.4,0.2,0.4,0.4
				S461,55.2,460.7,55.2z M458.5,55.2h-0.7c-0.2,0-0.4-0.2-0.4-0.4s0.2-0.4,0.4-0.4h0.7c0.2,0,0.4,0.2,0.4,0.4
				S458.7,55.2,458.5,55.2z M456.3,55.2h-0.7c-0.2,0-0.4-0.2-0.4-0.4s0.2-0.4,0.4-0.4h0.7c0.2,0,0.4,0.2,0.4,0.4
				S456.5,55.2,456.3,55.2z M454,55.2h-0.7c-0.2,0-0.4-0.2-0.4-0.4s0.2-0.4,0.4-0.4h0.7c0.2,0,0.4,0.2,0.4,0.4S454.2,55.2,454,55.2z
				 M451.8,55.2H451c-0.2,0-0.4-0.2-0.4-0.4s0.2-0.4,0.4-0.4h0.7c0.2,0,0.4,0.2,0.4,0.4S452,55.2,451.8,55.2z M449.5,55.2h-0.7
				c-0.2,0-0.4-0.2-0.4-0.4s0.2-0.4,0.4-0.4h0.7c0.2,0,0.4,0.2,0.4,0.4S449.7,55.2,449.5,55.2z M447.3,55.2h-0.7
				c-0.2,0-0.4-0.2-0.4-0.4s0.2-0.4,0.4-0.4h0.7c0.2,0,0.4,0.2,0.4,0.4S447.5,55.2,447.3,55.2z M445.1,55.2h-0.7
				c-0.2,0-0.4-0.2-0.4-0.4s0.2-0.4,0.4-0.4h0.7c0.2,0,0.4,0.2,0.4,0.4S445.3,55.2,445.1,55.2z"/>
		</g>
	</g>
</g>
<g id="g3635">
	<g id="g3637">
		<g id="g3639">
			<g id="g3641">
				<path id="path3643" class="st1" d="M165.8,129c0-1.2-0.7-2.4-1.9-2.9l-9.4-4.2h-40.5l-10.8,4.3c-1.2,0.5-2,1.6-2,2.9v61.4
					c0,0.1,0,0.9,0,1.2v15.4c0,1.8,1.4,3.3,3.2,3.3h58.1c1.8,0,3.2-1.5,3.2-3.3v-15.4c0-0.3,0-1,0-1.2L165.8,129L165.8,129z
					 M114.5,124h39.6l8.6,3.9h-58.1L114.5,124z M163.6,207.1c0,0.6-0.5,1.1-1,1.1h-58.1c-0.6,0-1-0.5-1-1.1v-16.5h60.1V207.1z
					 M163.6,188.4h-60.1v-58.2h60.1V188.4z"/>
			</g>
			<g id="g3645">
				<path id="path3647" class="st1" d="M140.7,152.7l5-5c1.1,0.9,2.7,0.8,3.7-0.2c1.1-1.1,1.1-2.9,0-4c-1.1-1.1-2.9-1.1-4,0
					c-1,1-1.1,2.6-0.3,3.7l-5,5c0.1,0.1,0.2,0.2,0.2,0.2C140.5,152.4,140.6,152.6,140.7,152.7z"/>
				<path id="path3649" class="st1" d="M126.3,166.1l-5,5c-1.1-0.8-2.7-0.8-3.7,0.2c-1.1,1.1-1.1,2.9,0,4c1.1,1.1,2.9,1.1,4,0
					c1-1,1.1-2.6,0.2-3.7l4.9-4.9c0,0-0.1-0.1-0.1-0.1C126.6,166.4,126.4,166.3,126.3,166.1z"/>
				<path id="path3651" class="st1" d="M126.9,152.2l-5-5c0.8-1.1,0.8-2.7-0.2-3.7c-1.1-1.1-2.9-1.1-4,0c-1.1,1.1-1.1,2.9,0,4
					c1,1,2.6,1.1,3.7,0.2l5,5c0.1-0.1,0.2-0.2,0.3-0.3C126.7,152.3,126.8,152.2,126.9,152.2z"/>
				<path id="path3653" class="st1" d="M145.8,171l-5-5c-0.1,0.2-0.3,0.3-0.4,0.5c0,0-0.1,0.1-0.1,0.1l4.9,4.9
					c-0.9,1.1-0.8,2.7,0.2,3.7c1.1,1.1,2.9,1.1,4,0s1.1-2.9,0-4C148.5,170.3,146.9,170.2,145.8,171z"/>
				<g id="g3655">
					<path id="path3657" class="st1" d="M107.5,147.7c0.2,0,0.4-0.2,0.4-0.4v-0.8c0-0.2-0.2-0.4-0.4-0.4c-0.2,0-0.4,0.2-0.4,0.4v0.8
						C107.1,147.6,107.3,147.7,107.5,147.7z"/>
					<path id="path3659" class="st1" d="M107.5,145.5c0.2,0,0.4-0.2,0.4-0.4v-0.8c0-0.2-0.2-0.4-0.4-0.4c-0.2,0-0.4,0.2-0.4,0.4v0.8
						C107.1,145.3,107.3,145.5,107.5,145.5z"/>
					<path id="path3661" class="st1" d="M107.5,150c0.2,0,0.4-0.2,0.4-0.4v-0.8c0-0.2-0.2-0.4-0.4-0.4c-0.2,0-0.4,0.2-0.4,0.4v0.8
						C107.1,149.8,107.3,150,107.5,150z"/>
					<path id="path3663" class="st1" d="M107.9,157.5c0,0.2,0.2,0.4,0.4,0.4h0.7c0.2,0,0.4-0.2,0.4-0.4c0-0.2-0.2-0.4-0.4-0.4h-0.8
						C108.1,157.1,107.9,157.3,107.9,157.5z"/>
					<path id="path3665" class="st1" d="M107.5,138.7c0.2,0,0.4-0.2,0.4-0.4v-0.8c0-0.2-0.2-0.4-0.4-0.4c-0.2,0-0.4,0.2-0.4,0.4v0.8
						C107.1,138.5,107.3,138.7,107.5,138.7z"/>
					<path id="path3667" class="st1" d="M107.5,136.4c0.2,0,0.4-0.2,0.4-0.4v-0.8c0-0.2-0.2-0.4-0.4-0.4c-0.2,0-0.4,0.2-0.4,0.4v0.8
						C107.1,136.3,107.3,136.4,107.5,136.4z"/>
					<path id="path3669" class="st1" d="M107.4,134.1c0.1,0,0.1,0.1,0.2,0.1c0.1,0,0.2-0.1,0.3-0.2c0.1-0.1,0.2-0.2,0.3-0.2
						c0.2,0,0.4-0.2,0.4-0.4c0-0.2-0.2-0.4-0.4-0.4c-0.4,0-0.7,0.2-0.9,0.5C107.2,133.8,107.2,134,107.4,134.1z"/>
					<path id="path3671" class="st1" d="M107.5,154.5c0.2,0,0.4-0.2,0.4-0.4v-0.8c0-0.2-0.2-0.4-0.4-0.4c-0.2,0-0.4,0.2-0.4,0.4v0.8
						C107.1,154.4,107.3,154.5,107.5,154.5z"/>
					<path id="path3673" class="st1" d="M107.5,141c0.2,0,0.4-0.2,0.4-0.4v-0.8c0-0.2-0.2-0.4-0.4-0.4c-0.2,0-0.4,0.2-0.4,0.4v0.8
						C107.1,140.8,107.3,141,107.5,141z"/>
					<path id="path3675" class="st1" d="M107.5,143.2c0.2,0,0.4-0.2,0.4-0.4v-0.8c0-0.2-0.2-0.4-0.4-0.4c-0.2,0-0.4,0.2-0.4,0.4v0.8
						C107.1,143.1,107.3,143.2,107.5,143.2z"/>
					<path id="path3677" class="st1" d="M107.5,152.3c0.2,0,0.4-0.2,0.4-0.4v-0.8c0-0.2-0.2-0.4-0.4-0.4c-0.2,0-0.4,0.2-0.4,0.4v0.8
						C107.1,152.1,107.3,152.3,107.5,152.3z"/>
					<path id="path3679" class="st1" d="M131.7,140.2c0.2,0,0.4-0.2,0.4-0.4V139c0-0.2-0.2-0.4-0.4-0.4c-0.2,0-0.4,0.2-0.4,0.4v0.8
						C131.3,140,131.5,140.2,131.7,140.2z"/>
					<path id="path3681" class="st1" d="M131.7,142.4c0.2,0,0.4-0.2,0.4-0.4v-0.8c0-0.2-0.2-0.4-0.4-0.4c-0.2,0-0.4,0.2-0.4,0.4v0.8
						C131.3,142.3,131.5,142.4,131.7,142.4z"/>
					<path id="path3683" class="st1" d="M131.7,137.9c0.2,0,0.4-0.2,0.4-0.4v-0.8c0-0.2-0.2-0.4-0.4-0.4c-0.2,0-0.4,0.2-0.4,0.4v0.8
						C131.3,137.7,131.5,137.9,131.7,137.9z"/>
					<path id="path3685" class="st1" d="M131.7,144.7c0.2,0,0.4-0.2,0.4-0.4v-0.8c0-0.2-0.2-0.4-0.4-0.4c-0.2,0-0.4,0.2-0.4,0.4v0.8
						C131.3,144.5,131.5,144.7,131.7,144.7z"/>
					<path id="path3687" class="st1" d="M107.5,156.8c0.2,0,0.4-0.2,0.4-0.4v-0.8c0-0.2-0.2-0.4-0.4-0.4c-0.2,0-0.4,0.2-0.4,0.4v0.8
						C107.1,156.6,107.3,156.8,107.5,156.8z"/>
					<path id="path3689" class="st1" d="M131.7,152.2c-0.1,0-0.1,0-0.2,0.1C131.6,152.3,131.6,152.3,131.7,152.2
						C131.7,152.2,131.7,152.2,131.7,152.2z"/>
					<path id="path3691" class="st1" d="M131.7,151.5c0.2,0,0.4-0.2,0.4-0.4v-0.8c0-0.2-0.2-0.4-0.4-0.4c-0.2,0-0.4,0.2-0.4,0.4v0.8
						C131.3,151.3,131.5,151.5,131.7,151.5z"/>
					<path id="path3693" class="st1" d="M131.7,146.9c0.2,0,0.4-0.2,0.4-0.4v-0.8c0-0.2-0.2-0.4-0.4-0.4c-0.2,0-0.4,0.2-0.4,0.4v0.8
						C131.3,146.8,131.5,146.9,131.7,146.9z"/>
					<path id="path3695" class="st1" d="M114.7,157.5c0,0.2,0.2,0.4,0.4,0.4h0.8c0.2,0,0.4-0.2,0.4-0.4c0-0.2-0.2-0.4-0.4-0.4h-0.8
						C114.9,157.1,114.7,157.3,114.7,157.5z"/>
					<path id="path3697" class="st1" d="M126.5,157.1h-0.1c-0.2,0-0.4,0.2-0.4,0.4c0,0.2,0.1,0.3,0.3,0.4l0-0.1
						C126.4,157.5,126.4,157.3,126.5,157.1z"/>
					<path id="path3699" class="st1" d="M109.8,133.8h0.8c0.2,0,0.4-0.2,0.4-0.4s-0.2-0.4-0.4-0.4h-0.8c-0.2,0-0.4,0.2-0.4,0.4
						S109.6,133.8,109.8,133.8z"/>
					<path id="path3701" class="st1" d="M125.6,133.8h0.8c0.2,0,0.4-0.2,0.4-0.4s-0.2-0.4-0.4-0.4h-0.8c-0.2,0-0.4,0.2-0.4,0.4
						S125.4,133.8,125.6,133.8z"/>
					<path id="path3703" class="st1" d="M123.3,133.8h0.8c0.2,0,0.4-0.2,0.4-0.4s-0.2-0.4-0.4-0.4h-0.8c-0.2,0-0.4,0.2-0.4,0.4
						S123.1,133.8,123.3,133.8z"/>
					<path id="path3705" class="st1" d="M121.5,157.5c0,0.2,0.2,0.4,0.4,0.4h0.8c0.2,0,0.4-0.2,0.4-0.4c0-0.2-0.2-0.4-0.4-0.4h-0.8
						C121.7,157.1,121.5,157.3,121.5,157.5z"/>
					<path id="path3707" class="st1" d="M121.1,133.8h0.8c0.2,0,0.4-0.2,0.4-0.4s-0.2-0.4-0.4-0.4h-0.8c-0.2,0-0.4,0.2-0.4,0.4
						S120.9,133.8,121.1,133.8z"/>
					<path id="path3709" class="st1" d="M130.1,133.8h0.8c0.2,0,0.4-0.2,0.4-0.4s-0.2-0.4-0.4-0.4h-0.8c-0.2,0-0.4,0.2-0.4,0.4
						S129.9,133.8,130.1,133.8z"/>
					<path id="path3711" class="st1" d="M127.9,133.8h0.8c0.2,0,0.4-0.2,0.4-0.4s-0.2-0.4-0.4-0.4h-0.8c-0.2,0-0.4,0.2-0.4,0.4
						S127.7,133.8,127.9,133.8z"/>
					<path id="path3713" class="st1" d="M123.8,157.5c0,0.2,0.2,0.4,0.4,0.4h0.8c0.2,0,0.4-0.2,0.4-0.4c0-0.2-0.2-0.4-0.4-0.4h-0.8
						C123.9,157.1,123.8,157.3,123.8,157.5z"/>
					<path id="path3715" class="st1" d="M112,133.8h0.8c0.2,0,0.4-0.2,0.4-0.4s-0.2-0.4-0.4-0.4H112c-0.2,0-0.4,0.2-0.4,0.4
						S111.8,133.8,112,133.8z"/>
					<path id="path3717" class="st1" d="M112.5,157.5c0,0.2,0.2,0.4,0.4,0.4h0.8c0.2,0,0.4-0.2,0.4-0.4c0-0.2-0.2-0.4-0.4-0.4h-0.8
						C112.6,157.1,112.5,157.3,112.5,157.5z"/>
					<path id="path3719" class="st1" d="M114.3,133.8h0.8c0.2,0,0.4-0.2,0.4-0.4s-0.2-0.4-0.4-0.4h-0.8c-0.2,0-0.4,0.2-0.4,0.4
						S114.1,133.8,114.3,133.8z"/>
					<path id="path3721" class="st1" d="M110.2,157.5c0,0.2,0.2,0.4,0.4,0.4h0.8c0.2,0,0.4-0.2,0.4-0.4c0-0.2-0.2-0.4-0.4-0.4h-0.8
						C110.4,157.1,110.2,157.3,110.2,157.5z"/>
					<path id="path3723" class="st1" d="M131.7,135.6c0.2,0,0.4-0.2,0.4-0.4v-0.8c0-0.2-0.2-0.4-0.4-0.4c-0.2,0-0.4,0.2-0.4,0.4v0.8
						C131.3,135.5,131.5,135.6,131.7,135.6z"/>
					<path id="path3725" class="st1" d="M119.2,157.5c0,0.2,0.2,0.4,0.4,0.4h0.8c0.2,0,0.4-0.2,0.4-0.4c0-0.2-0.2-0.4-0.4-0.4h-0.8
						C119.4,157.1,119.2,157.3,119.2,157.5z"/>
					<path id="path3727" class="st1" d="M117,157.5c0,0.2,0.2,0.4,0.4,0.4h0.8c0.2,0,0.4-0.2,0.4-0.4c0-0.2-0.2-0.4-0.4-0.4h-0.8
						C117.1,157.1,117,157.3,117,157.5z"/>
					<path id="path3729" class="st1" d="M118.8,133.8h0.8c0.2,0,0.4-0.2,0.4-0.4s-0.2-0.4-0.4-0.4h-0.8c-0.2,0-0.4,0.2-0.4,0.4
						S118.6,133.8,118.8,133.8z"/>
					<path id="path3731" class="st1" d="M116.5,133.8h0.8c0.2,0,0.4-0.2,0.4-0.4s-0.2-0.4-0.4-0.4h-0.8c-0.2,0-0.4,0.2-0.4,0.4
						S116.3,133.8,116.5,133.8z"/>
					<path id="path3733" class="st1" d="M131.7,149.2c0.2,0,0.4-0.2,0.4-0.4v-0.8c0-0.2-0.2-0.4-0.4-0.4c-0.2,0-0.4,0.2-0.4,0.4v0.8
						C131.3,149,131.5,149.2,131.7,149.2z"/>
					<path id="path3735" class="st1" d="M135.4,145.5c0.2,0,0.4-0.2,0.4-0.4v-0.8c0-0.2-0.2-0.4-0.4-0.4s-0.4,0.2-0.4,0.4v0.8
						C135.1,145.3,135.2,145.5,135.4,145.5z"/>
					<path id="path3737" class="st1" d="M135.4,147.7c0.2,0,0.4-0.2,0.4-0.4v-0.8c0-0.2-0.2-0.4-0.4-0.4s-0.4,0.2-0.4,0.4v0.8
						C135.1,147.6,135.2,147.7,135.4,147.7z"/>
					<path id="path3739" class="st1" d="M135.5,152.3c0.2,0,0.3-0.2,0.3-0.4v-0.8c0-0.2-0.2-0.4-0.4-0.4c-0.2,0-0.4,0.2-0.4,0.4v0.8
						c0,0.1,0,0.2,0.1,0.3l0,0C135.3,152.2,135.4,152.2,135.5,152.3z"/>
					<path id="path3741" class="st1" d="M135.4,150c0.2,0,0.4-0.2,0.4-0.4v-0.8c0-0.2-0.2-0.4-0.4-0.4s-0.4,0.2-0.4,0.4v0.8
						C135.1,149.8,135.2,150,135.4,150z"/>
					<path id="path3743" class="st1" d="M135.4,143.2c0.2,0,0.4-0.2,0.4-0.4v-0.8c0-0.2-0.2-0.4-0.4-0.4s-0.4,0.2-0.4,0.4v0.8
						C135.1,143.1,135.2,143.2,135.4,143.2z"/>
					<path id="path3745" class="st1" d="M135.4,141c0.2,0,0.4-0.2,0.4-0.4v-0.8c0-0.2-0.2-0.4-0.4-0.4s-0.4,0.2-0.4,0.4v0.8
						C135.1,140.8,135.2,141,135.4,141z"/>
					<path id="path3747" class="st1" d="M135.4,136.4c0.2,0,0.4-0.2,0.4-0.4v-0.8c0-0.2-0.2-0.4-0.4-0.4s-0.4,0.2-0.4,0.4v0.8
						C135.1,136.3,135.2,136.4,135.4,136.4z"/>
					<path id="path3749" class="st1" d="M135.4,138.7c0.2,0,0.4-0.2,0.4-0.4v-0.8c0-0.2-0.2-0.4-0.4-0.4s-0.4,0.2-0.4,0.4v0.8
						C135.1,138.5,135.2,138.7,135.4,138.7z"/>
					<path id="path3751" class="st1" d="M135.4,134.1c0.1,0,0.1,0.1,0.2,0.1c0.1,0,0.2-0.1,0.3-0.2c0.1-0.1,0.2-0.2,0.3-0.2
						c0.2,0,0.4-0.2,0.3-0.4s-0.2-0.4-0.4-0.3c-0.4,0-0.7,0.2-0.9,0.5C135.1,133.8,135.2,134,135.4,134.1z"/>
					<path id="path3753" class="st1" d="M159.6,150c-0.2,0-0.4,0.2-0.4,0.4v0.8c0,0.2,0.2,0.4,0.4,0.4c0.2,0,0.4-0.2,0.4-0.4v-0.8
						C160,150.1,159.8,150,159.6,150z"/>
					<path id="path3755" class="st1" d="M159.6,147.7c-0.2,0-0.4,0.2-0.4,0.4v0.8c0,0.2,0.2,0.4,0.4,0.4c0.2,0,0.4-0.2,0.4-0.4v-0.8
						C160,147.9,159.8,147.7,159.6,147.7z"/>
					<path id="path3757" class="st1" d="M159.6,152.2c-0.2,0-0.4,0.2-0.4,0.4v0.8c0,0.2,0.2,0.4,0.4,0.4c0.2,0,0.4-0.2,0.4-0.4v-0.8
						C160,152.4,159.8,152.2,159.6,152.2z"/>
					<path id="path3759" class="st1" d="M159.6,154.5c-0.2,0-0.4,0.2-0.4,0.4v0.8c0,0.2,0.2,0.4,0.4,0.4c0.2,0,0.4-0.2,0.4-0.4v-0.8
						C160,154.7,159.8,154.5,159.6,154.5z"/>
					<path id="path3761" class="st1" d="M159.6,145.4c-0.2,0-0.4,0.2-0.4,0.4v0.8c0,0.2,0.2,0.4,0.4,0.4c0.2,0,0.4-0.2,0.4-0.4v-0.8
						C160,145.6,159.8,145.4,159.6,145.4z"/>
					<path id="path3763" class="st1" d="M159.6,134.1c-0.2,0-0.4,0.2-0.4,0.4v0.8c0,0.2,0.2,0.4,0.4,0.4c0.2,0,0.4-0.2,0.4-0.4v-0.8
						C160,134.3,159.8,134.1,159.6,134.1z"/>
					<path id="path3765" class="st1" d="M159.6,140.9c-0.2,0-0.4,0.2-0.4,0.4v0.8c0,0.2,0.2,0.4,0.4,0.4c0.2,0,0.4-0.2,0.4-0.4v-0.8
						C160,141.1,159.8,140.9,159.6,140.9z"/>
					<path id="path3767" class="st1" d="M159.6,136.4c-0.2,0-0.4,0.2-0.4,0.4v0.8c0,0.2,0.2,0.4,0.4,0.4c0.2,0,0.4-0.2,0.4-0.4v-0.8
						C160,136.6,159.8,136.4,159.6,136.4z"/>
					<path id="path3769" class="st1" d="M159.6,138.7c-0.2,0-0.4,0.2-0.4,0.4v0.8c0,0.2,0.2,0.4,0.4,0.4c0.2,0,0.4-0.2,0.4-0.4V139
						C160,138.8,159.8,138.7,159.6,138.7z"/>
					<path id="path3771" class="st1" d="M159.6,143.2c-0.2,0-0.4,0.2-0.4,0.4v0.8c0,0.2,0.2,0.4,0.4,0.4c0.2,0,0.4-0.2,0.4-0.4v-0.8
						C160,143.3,159.8,143.2,159.6,143.2z"/>
					<path id="path3773" class="st1" d="M154,157.5c0,0.2,0.2,0.4,0.4,0.4h0.8c0.2,0,0.4-0.2,0.4-0.4c0-0.2-0.2-0.4-0.4-0.4h-0.8
						C154.1,157.1,154,157.3,154,157.5z"/>
					<path id="path3775" class="st1" d="M153.5,133.8h0.8c0.2,0,0.4-0.2,0.4-0.4s-0.2-0.4-0.4-0.4h-0.8c-0.2,0-0.4,0.2-0.4,0.4
						S153.3,133.8,153.5,133.8z"/>
					<path id="path3777" class="st1" d="M151.7,157.5c0,0.2,0.2,0.4,0.4,0.4h0.8c0.2,0,0.4-0.2,0.4-0.4c0-0.2-0.2-0.4-0.4-0.4h-0.8
						C151.9,157.1,151.7,157.3,151.7,157.5z"/>
					<path id="path3779" class="st1" d="M151.3,133.8h0.8c0.2,0,0.4-0.2,0.4-0.4s-0.2-0.4-0.4-0.4h-0.8c-0.2,0-0.4,0.2-0.4,0.4
						S151.1,133.8,151.3,133.8z"/>
					<path id="path3781" class="st1" d="M149.5,157.5c0,0.2,0.2,0.4,0.4,0.4h0.8c0.2,0,0.4-0.2,0.4-0.4c0-0.2-0.2-0.4-0.4-0.4h-0.8
						C149.6,157.1,149.5,157.3,149.5,157.5z"/>
					<path id="path3783" class="st1" d="M155.8,133.8h0.8c0.2,0,0.4-0.2,0.4-0.4s-0.2-0.4-0.4-0.4h-0.8c-0.2,0-0.4,0.2-0.4,0.4
						S155.6,133.8,155.8,133.8z"/>
					<path id="path3785" class="st1" d="M137.7,133.8h0.8c0.2,0,0.4-0.2,0.4-0.4s-0.2-0.4-0.4-0.4h-0.8c-0.2,0-0.4,0.2-0.4,0.4
						S137.5,133.8,137.7,133.8z"/>
					<path id="path3787" class="st1" d="M158.1,133.8h0.8c0.2,0,0.4-0.2,0.4-0.4s-0.2-0.4-0.4-0.4h-0.8c-0.2,0-0.4,0.2-0.4,0.4
						S157.9,133.8,158.1,133.8z"/>
					<path id="path3789" class="st1" d="M156.2,157.5c0,0.2,0.2,0.4,0.4,0.4h0.8c0.2,0,0.4-0.2,0.4-0.4c0-0.2-0.2-0.4-0.4-0.4h-0.8
						C156.4,157.1,156.2,157.3,156.2,157.5z"/>
					<path id="path3791" class="st1" d="M149,133.8h0.8c0.2,0,0.4-0.2,0.4-0.4s-0.2-0.4-0.4-0.4H149c-0.2,0-0.4,0.2-0.4,0.4
						S148.8,133.8,149,133.8z"/>
					<path id="path3793" class="st1" d="M158.5,157.5c0,0.2,0.2,0.4,0.4,0.4c0,0,0,0,0,0c0.4,0,0.7-0.2,0.9-0.5
						c0.1-0.2,0.1-0.4-0.1-0.5c-0.2-0.1-0.4-0.1-0.5,0.1c-0.1,0.1-0.2,0.2-0.3,0.2C158.6,157.1,158.5,157.3,158.5,157.5z"/>
					<path id="path3795" class="st1" d="M142.2,133.8h0.8c0.2,0,0.4-0.2,0.4-0.4s-0.2-0.4-0.4-0.4h-0.8c-0.2,0-0.4,0.2-0.4,0.4
						S142,133.8,142.2,133.8z"/>
					<path id="path3797" class="st1" d="M147.2,157.5c0,0.2,0.2,0.4,0.4,0.4h0.8c0.2,0,0.4-0.2,0.4-0.4c0-0.2-0.2-0.4-0.4-0.4h-0.8
						C147.4,157.1,147.2,157.3,147.2,157.5z"/>
					<path id="path3799" class="st1" d="M140,133.8h0.8c0.2,0,0.4-0.2,0.4-0.4s-0.2-0.4-0.4-0.4H140c-0.2,0-0.4,0.2-0.4,0.4
						S139.8,133.8,140,133.8z"/>
					<path id="path3801" class="st1" d="M142.7,157.5c0,0.2,0.2,0.4,0.4,0.4h0.8c0.2,0,0.4-0.2,0.4-0.4c0-0.2-0.2-0.4-0.4-0.4H143
						C142.8,157.1,142.7,157.3,142.7,157.5z"/>
					<path id="path3803" class="st1" d="M140.8,157.8h0.7c0.2,0,0.4-0.2,0.4-0.4c0-0.2-0.2-0.4-0.4-0.4h-0.8c-0.1,0-0.1,0-0.1,0
						c0.1,0.2,0.1,0.4,0.2,0.6L140.8,157.8z"/>
					<path id="path3805" class="st1" d="M146.8,133.8h0.8c0.2,0,0.4-0.2,0.4-0.4s-0.2-0.4-0.4-0.4h-0.8c-0.2,0-0.4,0.2-0.4,0.4
						S146.6,133.8,146.8,133.8z"/>
					<path id="path3807" class="st1" d="M144.9,157.5c0,0.2,0.2,0.4,0.4,0.4h0.8c0.2,0,0.4-0.2,0.4-0.4c0-0.2-0.2-0.4-0.4-0.4h-0.8
						C145.1,157.1,144.9,157.3,144.9,157.5z"/>
					<path id="path3809" class="st1" d="M144.5,133.8h0.8c0.2,0,0.4-0.2,0.4-0.4s-0.2-0.4-0.4-0.4h-0.8c-0.2,0-0.4,0.2-0.4,0.4
						S144.3,133.8,144.5,133.8z"/>
					<path id="path3811" class="st1" d="M107.5,174c-0.2,0-0.4,0.2-0.4,0.4v0.8c0,0.2,0.2,0.4,0.4,0.4c0.2,0,0.4-0.2,0.4-0.4v-0.8
						C107.9,174.2,107.7,174,107.5,174z"/>
					<path id="path3813" class="st1" d="M107.5,171.8c-0.2,0-0.4,0.2-0.4,0.4v0.8c0,0.2,0.2,0.4,0.4,0.4c0.2,0,0.4-0.2,0.4-0.4v-0.8
						C107.9,171.9,107.7,171.8,107.5,171.8z"/>
					<path id="path3815" class="st1" d="M107.5,169.5c-0.2,0-0.4,0.2-0.4,0.4v0.8c0,0.2,0.2,0.4,0.4,0.4c0.2,0,0.4-0.2,0.4-0.4v-0.8
						C107.9,169.7,107.7,169.5,107.5,169.5z"/>
					<path id="path3817" class="st1" d="M107.5,176.3c-0.2,0-0.4,0.2-0.4,0.4v0.8c0,0.2,0.2,0.4,0.4,0.4c0.2,0,0.4-0.2,0.4-0.4v-0.8
						C107.9,176.4,107.7,176.3,107.5,176.3z"/>
					<path id="path3819" class="st1" d="M107.5,183.1c-0.2,0-0.4,0.2-0.4,0.4v0.8c0,0.2,0.2,0.4,0.4,0.4c0.2,0,0.4-0.2,0.4-0.4v-0.8
						C107.9,183.2,107.7,183.1,107.5,183.1z"/>
					<path id="path3821" class="st1" d="M107.5,167.2c-0.2,0-0.4,0.2-0.4,0.4v0.8c0,0.2,0.2,0.4,0.4,0.4c0.2,0,0.4-0.2,0.4-0.4v-0.8
						C107.9,167.4,107.7,167.2,107.5,167.2z"/>
					<path id="path3823" class="st1" d="M107.5,178.5c-0.2,0-0.4,0.2-0.4,0.4v0.8c0,0.2,0.2,0.4,0.4,0.4c0.2,0,0.4-0.2,0.4-0.4v-0.8
						C107.9,178.7,107.7,178.5,107.5,178.5z"/>
					<path id="path3825" class="st1" d="M107.3,161.4c-0.1,0.2-0.1,0.4,0.1,0.5c0.1,0,0.1,0.1,0.2,0.1c0.1,0,0.2-0.1,0.3-0.2
						c0.1-0.1,0.2-0.2,0.3-0.2c0.2,0,0.4-0.2,0.4-0.4c0-0.2-0.2-0.4-0.4-0.4C107.9,160.9,107.5,161.1,107.3,161.4z"/>
					<path id="path3827" class="st1" d="M107.5,180.8c-0.2,0-0.4,0.2-0.4,0.4v0.8c0,0.2,0.2,0.4,0.4,0.4c0.2,0,0.4-0.2,0.4-0.4v-0.8
						C107.9,181,107.7,180.8,107.5,180.8z"/>
					<path id="path3829" class="st1" d="M111.3,184.9h-0.8c-0.2,0-0.4,0.2-0.4,0.4c0,0.2,0.2,0.4,0.4,0.4h0.8c0.2,0,0.4-0.2,0.4-0.4
						C111.7,185,111.5,184.9,111.3,184.9z"/>
					<path id="path3831" class="st1" d="M124.5,161.2c0-0.2-0.2-0.4-0.4-0.4h-0.8c-0.2,0-0.4,0.2-0.4,0.4c0,0.2,0.2,0.4,0.4,0.4h0.8
						C124.3,161.6,124.5,161.4,124.5,161.2z"/>
					<path id="path3833" class="st1" d="M131.7,171c-0.2,0-0.4,0.2-0.4,0.4v0.8c0,0.2,0.2,0.4,0.4,0.4c0.2,0,0.4-0.2,0.4-0.4v-0.8
						C132.1,171.1,131.9,171,131.7,171z"/>
					<path id="path3835" class="st1" d="M107.5,165c-0.2,0-0.4,0.2-0.4,0.4v0.8c0,0.2,0.2,0.4,0.4,0.4c0.2,0,0.4-0.2,0.4-0.4v-0.8
						C107.9,165.1,107.7,165,107.5,165z"/>
					<path id="path3837" class="st1" d="M122.6,184.9h-0.8c-0.2,0-0.4,0.2-0.4,0.4c0,0.2,0.2,0.4,0.4,0.4h0.8c0.2,0,0.4-0.2,0.4-0.4
						C123,185,122.8,184.9,122.6,184.9z"/>
					<path id="path3839" class="st1" d="M122.2,161.2c0-0.2-0.2-0.4-0.4-0.4h-0.8c-0.2,0-0.4,0.2-0.4,0.4c0,0.2,0.2,0.4,0.4,0.4h0.8
						C122,161.6,122.2,161.4,122.2,161.2z"/>
					<path id="path3841" class="st1" d="M126.3,160.9l-0.1,0c-0.1,0-0.2,0-0.4,0h-0.2c-0.2,0-0.4,0.2-0.4,0.4c0,0.2,0.2,0.4,0.4,0.4
						h0.8c0,0,0.1,0,0.1,0c-0.1-0.2-0.1-0.4-0.1-0.6L126.3,160.9z"/>
					<path id="path3843" class="st1" d="M124.9,184.9h-0.8c-0.2,0-0.4,0.2-0.4,0.4c0,0.2,0.2,0.4,0.4,0.4h0.8c0.2,0,0.4-0.2,0.4-0.4
						C125.3,185,125.1,184.9,124.9,184.9z"/>
					<path id="path3845" class="st1" d="M115.8,184.9h-0.8c-0.2,0-0.4,0.2-0.4,0.4c0,0.2,0.2,0.4,0.4,0.4h0.8c0.2,0,0.4-0.2,0.4-0.4
						C116.2,185,116,184.9,115.8,184.9z"/>
					<path id="path3847" class="st1" d="M119.9,161.2c0-0.2-0.2-0.4-0.4-0.4h-0.8c-0.2,0-0.4,0.2-0.4,0.4c0,0.2,0.2,0.4,0.4,0.4h0.8
						C119.8,161.6,119.9,161.4,119.9,161.2z"/>
					<path id="path3849" class="st1" d="M131.7,168.7c-0.2,0-0.4,0.2-0.4,0.4v0.8c0,0.2,0.2,0.4,0.4,0.4c0.2,0,0.4-0.2,0.4-0.4v-0.8
						C132.1,168.9,131.9,168.7,131.7,168.7z"/>
					<path id="path3851" class="st1" d="M117.7,161.2c0-0.2-0.2-0.4-0.4-0.4h-0.8c-0.2,0-0.4,0.2-0.4,0.4c0,0.2,0.2,0.4,0.4,0.4h0.8
						C117.5,161.6,117.7,161.4,117.7,161.2z"/>
					<path id="path3853" class="st1" d="M127.2,184.9h-0.8c-0.2,0-0.4,0.2-0.4,0.4c0,0.2,0.2,0.4,0.4,0.4h0.8c0.2,0,0.4-0.2,0.4-0.4
						C127.5,185,127.4,184.9,127.2,184.9z"/>
					<path id="path3855" class="st1" d="M120.4,184.9h-0.8c-0.2,0-0.4,0.2-0.4,0.4c0,0.2,0.2,0.4,0.4,0.4h0.8c0.2,0,0.4-0.2,0.4-0.4
						C120.7,185,120.6,184.9,120.4,184.9z"/>
					<path id="path3857" class="st1" d="M131.5,166.5c-0.1,0.1-0.2,0.2-0.2,0.3v0.8c0,0.2,0.2,0.4,0.4,0.4c0.2,0,0.4-0.2,0.4-0.4
						v-0.8c0,0,0-0.1,0-0.1l-0.1,0C131.8,166.6,131.6,166.6,131.5,166.5z"/>
					<path id="path3859" class="st1" d="M110.9,161.2c0-0.2-0.2-0.4-0.4-0.4h-0.8c-0.2,0-0.4,0.2-0.4,0.4c0,0.2,0.2,0.4,0.4,0.4h0.8
						C110.7,161.6,110.9,161.4,110.9,161.2z"/>
					<path id="path3861" class="st1" d="M131.7,173.2c-0.2,0-0.4,0.2-0.4,0.4v0.8c0,0.2,0.2,0.4,0.4,0.4c0.2,0,0.4-0.2,0.4-0.4v-0.8
						C132.1,173.4,131.9,173.2,131.7,173.2z"/>
					<path id="path3863" class="st1" d="M113.2,161.2c0-0.2-0.2-0.4-0.4-0.4H112c-0.2,0-0.4,0.2-0.4,0.4c0,0.2,0.2,0.4,0.4,0.4h0.8
						C113,161.6,113.2,161.4,113.2,161.2z"/>
					<path id="path3865" class="st1" d="M113.6,184.9h-0.8c-0.2,0-0.4,0.2-0.4,0.4c0,0.2,0.2,0.4,0.4,0.4h0.8c0.2,0,0.4-0.2,0.4-0.4
						C114,185,113.8,184.9,113.6,184.9z"/>
					<path id="path3867" class="st1" d="M115.4,161.2c0-0.2-0.2-0.4-0.4-0.4h-0.8c-0.2,0-0.4,0.2-0.4,0.4c0,0.2,0.2,0.4,0.4,0.4h0.8
						C115.2,161.6,115.4,161.4,115.4,161.2z"/>
					<path id="path3869" class="st1" d="M107.5,162.7c-0.2,0-0.4,0.2-0.4,0.4v0.8c0,0.2,0.2,0.4,0.4,0.4c0.2,0,0.4-0.2,0.4-0.4v-0.8
						C107.9,162.9,107.7,162.7,107.5,162.7z"/>
					<path id="path3871" class="st1" d="M118.1,184.9h-0.8c-0.2,0-0.4,0.2-0.4,0.4c0,0.2,0.2,0.4,0.4,0.4h0.8c0.2,0,0.4-0.2,0.4-0.4
						C118.5,185,118.3,184.9,118.1,184.9z"/>
					<path id="path3873" class="st1" d="M109.1,184.9h-0.7l-0.1,0c-0.2,0-0.3,0.2-0.3,0.4c0,0.2,0.2,0.4,0.4,0.4l0.8,0
						c0.2,0,0.4-0.2,0.4-0.4C109.4,185,109.3,184.9,109.1,184.9z"/>
					<path id="path3875" class="st1" d="M131.7,175.5c-0.2,0-0.4,0.2-0.4,0.4v0.8c0,0.2,0.2,0.4,0.4,0.4c0.2,0,0.4-0.2,0.4-0.4v-0.8
						C132.1,175.6,131.9,175.5,131.7,175.5z"/>
					<path id="path3877" class="st1" d="M129.4,184.9h-0.8c-0.2,0-0.4,0.2-0.4,0.4c0,0.2,0.2,0.4,0.4,0.4h0.8c0.2,0,0.4-0.2,0.4-0.4
						C129.8,185,129.6,184.9,129.4,184.9z"/>
					<path id="path3879" class="st1" d="M131.8,184.6c-0.2-0.1-0.4-0.1-0.5,0.1c-0.1,0.1-0.2,0.2-0.3,0.2c-0.2,0-0.4,0.2-0.4,0.4
						c0,0.2,0.2,0.4,0.4,0.4c0,0,0,0,0,0c0.4,0,0.7-0.2,0.9-0.5C132,184.9,131.9,184.7,131.8,184.6z"/>
					<path id="path3881" class="st1" d="M131.7,177.7c-0.2,0-0.4,0.2-0.4,0.4v0.8c0,0.2,0.2,0.4,0.4,0.4c0.2,0,0.4-0.2,0.4-0.4v-0.8
						C132.1,177.9,131.9,177.7,131.7,177.7z"/>
					<path id="path3883" class="st1" d="M131.7,182.3c-0.2,0-0.4,0.2-0.4,0.4v0.8c0,0.2,0.2,0.4,0.4,0.4c0.2,0,0.4-0.2,0.4-0.4v-0.8
						C132.1,182.4,131.9,182.3,131.7,182.3z"/>
					<path id="path3885" class="st1" d="M131.7,180c-0.2,0-0.4,0.2-0.4,0.4v0.8c0,0.2,0.2,0.4,0.4,0.4c0.2,0,0.4-0.2,0.4-0.4v-0.8
						C132.1,180.2,131.9,180,131.7,180z"/>
					<path id="path3887" class="st1" d="M143.4,161.2c0-0.2-0.2-0.4-0.4-0.4h-0.8c-0.2,0-0.4,0.2-0.4,0.4c0,0.2,0.2,0.4,0.4,0.4h0.8
						C143.2,161.6,143.4,161.4,143.4,161.2z"/>
					<path id="path3889" class="st1" d="M135.4,178.5c-0.2,0-0.4,0.2-0.4,0.4v0.8c0,0.2,0.2,0.4,0.4,0.4c0.2,0,0.4-0.2,0.4-0.4v-0.8
						C135.8,178.7,135.6,178.5,135.4,178.5z"/>
					<path id="path3891" class="st1" d="M135.4,183.1c-0.2,0-0.4,0.2-0.4,0.4v0.8c0,0.2,0.2,0.4,0.4,0.4c0.2,0,0.4-0.2,0.4-0.4v-0.8
						C135.8,183.2,135.6,183.1,135.4,183.1z"/>
					<path id="path3893" class="st1" d="M135.4,174c-0.2,0-0.4,0.2-0.4,0.4v0.8c0,0.2,0.2,0.4,0.4,0.4c0.2,0,0.4-0.2,0.4-0.4v-0.8
						C135.8,174.2,135.6,174,135.4,174z"/>
					<path id="path3895" class="st1" d="M135.4,180.8c-0.2,0-0.4,0.2-0.4,0.4v0.8c0,0.2,0.2,0.4,0.4,0.4c0.2,0,0.4-0.2,0.4-0.4v-0.8
						C135.8,181,135.6,180.8,135.4,180.8z"/>
					<path id="path3897" class="st1" d="M135.4,167.2c-0.2,0-0.4,0.2-0.4,0.4v0.8c0,0.2,0.2,0.4,0.4,0.4c0.2,0,0.4-0.2,0.4-0.4v-0.8
						C135.8,167.4,135.6,167.2,135.4,167.2z"/>
					<path id="path3899" class="st1" d="M135.4,169.5c-0.2,0-0.4,0.2-0.4,0.4v0.8c0,0.2,0.2,0.4,0.4,0.4c0.2,0,0.4-0.2,0.4-0.4v-0.8
						C135.8,169.7,135.6,169.5,135.4,169.5z"/>
					<path id="path3901" class="st1" d="M135.4,171.8c-0.2,0-0.4,0.2-0.4,0.4v0.8c0,0.2,0.2,0.4,0.4,0.4c0.2,0,0.4-0.2,0.4-0.4v-0.8
						C135.8,171.9,135.6,171.8,135.4,171.8z"/>
					<path id="path3903" class="st1" d="M135.4,176.3c-0.2,0-0.4,0.2-0.4,0.4v0.8c0,0.2,0.2,0.4,0.4,0.4c0.2,0,0.4-0.2,0.4-0.4v-0.8
						C135.8,176.4,135.6,176.3,135.4,176.3z"/>
					<path id="path3905" class="st1" d="M143.8,184.9H143c-0.2,0-0.4,0.2-0.4,0.4c0,0.2,0.2,0.4,0.4,0.4h0.8c0.2,0,0.4-0.2,0.4-0.4
						C144.2,185,144,184.9,143.8,184.9z"/>
					<path id="path3907" class="st1" d="M145.6,161.2c0-0.2-0.2-0.4-0.4-0.4h-0.8c-0.2,0-0.4,0.2-0.4,0.4c0,0.2,0.2,0.4,0.4,0.4h0.8
						C145.5,161.6,145.6,161.4,145.6,161.2z"/>
					<path id="path3909" class="st1" d="M140.8,161c0,0.2-0.1,0.4-0.2,0.6h0.1c0.2,0,0.4-0.2,0.4-0.4c0-0.2-0.1-0.3-0.2-0.3l0,0
						L140.8,161z"/>
					<path id="path3911" class="st1" d="M146.1,184.9h-0.8c-0.2,0-0.4,0.2-0.4,0.4c0,0.2,0.2,0.4,0.4,0.4h0.8c0.2,0,0.4-0.2,0.4-0.4
						C146.4,185,146.3,184.9,146.1,184.9z"/>
					<path id="path3913" class="st1" d="M137,184.9h-0.8c-0.2,0-0.4,0.2-0.4,0.4c0,0.2,0.2,0.4,0.4,0.4h0.7c0.2,0,0.4-0.2,0.4-0.4
						C137.4,185,137.2,184.9,137,184.9z"/>
					<path id="path3915" class="st1" d="M139.3,184.9h-0.8c-0.2,0-0.4,0.2-0.4,0.4c0,0.2,0.2,0.4,0.4,0.4h0.8c0.2,0,0.4-0.2,0.4-0.4
						C139.6,185,139.5,184.9,139.3,184.9z"/>
					<path id="path3917" class="st1" d="M141.5,184.9h-0.8c-0.2,0-0.4,0.2-0.4,0.4c0,0.2,0.2,0.4,0.4,0.4h0.8c0.2,0,0.4-0.2,0.4-0.4
						C141.9,185,141.7,184.9,141.5,184.9z"/>
					<path id="path3919" class="st1" d="M154.7,161.2c0-0.2-0.2-0.4-0.4-0.4h-0.8c-0.2,0-0.4,0.2-0.4,0.4c0,0.2,0.2,0.4,0.4,0.4h0.8
						C154.5,161.6,154.7,161.4,154.7,161.2z"/>
					<path id="path3921" class="st1" d="M152.4,161.2c0-0.2-0.2-0.4-0.4-0.4h-0.8c-0.2,0-0.4,0.2-0.4,0.4c0,0.2,0.2,0.4,0.4,0.4h0.8
						C152.2,161.6,152.4,161.4,152.4,161.2z"/>
					<path id="path3923" class="st1" d="M152.8,184.9h-0.8c-0.2,0-0.4,0.2-0.4,0.4c0,0.2,0.2,0.4,0.4,0.4h0.8c0.2,0,0.4-0.2,0.4-0.4
						C153.2,185,153,184.9,152.8,184.9z"/>
					<path id="path3925" class="st1" d="M156.9,161.2c0-0.2-0.2-0.4-0.4-0.4h-0.8c-0.2,0-0.4,0.2-0.4,0.4c0,0.2,0.2,0.4,0.4,0.4h0.8
						C156.8,161.6,156.9,161.4,156.9,161.2z"/>
					<path id="path3927" class="st1" d="M155.1,184.9h-0.8c-0.2,0-0.4,0.2-0.4,0.4c0,0.2,0.2,0.4,0.4,0.4h0.8c0.2,0,0.4-0.2,0.4-0.4
						C155.5,185,155.3,184.9,155.1,184.9z"/>
					<path id="path3929" class="st1" d="M148.3,184.9h-0.8c-0.2,0-0.4,0.2-0.4,0.4c0,0.2,0.2,0.4,0.4,0.4h0.8c0.2,0,0.4-0.2,0.4-0.4
						C148.7,185,148.5,184.9,148.3,184.9z"/>
					<path id="path3931" class="st1" d="M147.9,161.2c0-0.2-0.2-0.4-0.4-0.4h-0.8c-0.2,0-0.4,0.2-0.4,0.4c0,0.2,0.2,0.4,0.4,0.4h0.8
						C147.7,161.6,147.9,161.4,147.9,161.2z"/>
					<path id="path3933" class="st1" d="M150.6,184.9h-0.8c-0.2,0-0.4,0.2-0.4,0.4c0,0.2,0.2,0.4,0.4,0.4h0.8c0.2,0,0.4-0.2,0.4-0.4
						C151,185,150.8,184.9,150.6,184.9z"/>
					<path id="path3935" class="st1" d="M150.2,161.2c0-0.2-0.2-0.4-0.4-0.4H149c-0.2,0-0.4,0.2-0.4,0.4c0,0.2,0.2,0.4,0.4,0.4h0.8
						C150,161.6,150.2,161.4,150.2,161.2z"/>
					<path id="path3937" class="st1" d="M157.4,184.9h-0.8c-0.2,0-0.4,0.2-0.4,0.4c0,0.2,0.2,0.4,0.4,0.4h0.8c0.2,0,0.4-0.2,0.4-0.4
						C157.7,185,157.6,184.9,157.4,184.9z"/>
					<path id="path3939" class="st1" d="M159.6,168.7c-0.2,0-0.4,0.2-0.4,0.4v0.8c0,0.2,0.2,0.4,0.4,0.4c0.2,0,0.4-0.2,0.4-0.4v-0.8
						C160,168.9,159.8,168.7,159.6,168.7z"/>
					<path id="path3941" class="st1" d="M159.2,161.2c0-0.2-0.2-0.4-0.4-0.4h-0.8c-0.2,0-0.4,0.2-0.4,0.4c0,0.2,0.2,0.4,0.4,0.4h0.8
						C159,161.6,159.2,161.4,159.2,161.2z"/>
					<path id="path3943" class="st1" d="M159.6,173.2c-0.2,0-0.4,0.2-0.4,0.4v0.8c0,0.2,0.2,0.4,0.4,0.4c0.2,0,0.4-0.2,0.4-0.4v-0.8
						C160,173.4,159.8,173.2,159.6,173.2z"/>
					<path id="path3945" class="st1" d="M159.6,171c-0.2,0-0.4,0.2-0.4,0.4v0.8c0,0.2,0.2,0.4,0.4,0.4c0.2,0,0.4-0.2,0.4-0.4v-0.8
						C160,171.1,159.8,171,159.6,171z"/>
					<path id="path3947" class="st1" d="M159.6,166.4c-0.2,0-0.4,0.2-0.4,0.4v0.8c0,0.2,0.2,0.4,0.4,0.4c0.2,0,0.4-0.2,0.4-0.4v-0.8
						C160,166.6,159.8,166.4,159.6,166.4z"/>
					<path id="path3949" class="st1" d="M159.6,164.2c-0.2,0-0.4,0.2-0.4,0.4v0.8c0,0.2,0.2,0.4,0.4,0.4c0.2,0,0.4-0.2,0.4-0.4v-0.8
						C160,164.3,159.8,164.2,159.6,164.2z"/>
					<path id="path3951" class="st1" d="M159.6,161.9c-0.2,0-0.4,0.2-0.4,0.4v0.8c0,0.2,0.2,0.4,0.4,0.4c0.2,0,0.4-0.2,0.4-0.4v-0.8
						C160,162.1,159.8,161.9,159.6,161.9z"/>
					<path id="path3953" class="st1" d="M159.6,182.3c-0.2,0-0.4,0.2-0.4,0.4v0.8c0,0.2,0.2,0.4,0.4,0.4c0.2,0,0.4-0.2,0.4-0.4v-0.8
						C160,182.4,159.8,182.3,159.6,182.3z"/>
					<path id="path3955" class="st1" d="M159.6,175.5c-0.2,0-0.4,0.2-0.4,0.4v0.8c0,0.2,0.2,0.4,0.4,0.4c0.2,0,0.4-0.2,0.4-0.4v-0.8
						C160,175.6,159.8,175.5,159.6,175.5z"/>
					<path id="path3957" class="st1" d="M159.2,184.7c-0.1,0.1-0.2,0.2-0.3,0.2c-0.2,0-0.4,0.2-0.4,0.4c0,0.2,0.2,0.4,0.4,0.4
						c0,0,0,0,0,0c0.4,0,0.7-0.2,0.9-0.5c0.1-0.2,0.1-0.4-0.1-0.5C159.5,184.5,159.3,184.5,159.2,184.7z"/>
					<path id="path3959" class="st1" d="M159.6,180c-0.2,0-0.4,0.2-0.4,0.4v0.8c0,0.2,0.2,0.4,0.4,0.4c0.2,0,0.4-0.2,0.4-0.4v-0.8
						C160,180.2,159.8,180,159.6,180z"/>
					<path id="path3961" class="st1" d="M159.6,177.7c-0.2,0-0.4,0.2-0.4,0.4v0.8c0,0.2,0.2,0.4,0.4,0.4c0.2,0,0.4-0.2,0.4-0.4v-0.8
						C160,177.9,159.8,177.7,159.6,177.7z"/>
					<path id="path3963" class="st1" d="M135.5,152.3c-0.1,0-0.2-0.1-0.3-0.1l0,0C135.3,152.2,135.3,152.3,135.5,152.3
						C135.5,152.3,135.5,152.3,135.5,152.3z"/>
					<path id="path3965" class="st1" d="M131.7,166.4c-0.1,0-0.2,0-0.2,0.1c0.2,0,0.3,0.1,0.5,0.1l0.1,0
						C132,166.5,131.9,166.4,131.7,166.4z"/>
				</g>
				<path id="path3967" class="st1" d="M133.5,169.6c-0.3,0-0.8,0-1,0l-0.1,0c-0.1,0-0.3-0.2-0.3-0.3c-0.1-0.2-0.2-1.4-0.2-2.4l0,0
					c-0.8-0.2-1.5-0.5-2.2-0.9c-0.4,0.3-1.6,1.4-1.8,1.5c-0.2,0.1-0.5,0-0.5-0.1c-0.1-0.1-0.6-0.5-0.8-0.8c-0.2-0.2-0.5-0.6-0.7-0.7
					l-0.1-0.1c-0.1-0.1-0.1-0.3,0-0.4c0.1-0.2,1.2-1.4,1.5-1.8l0,0c-0.5-0.8-0.9-1.7-1.1-2.6c-0.5,0-2.2-0.2-2.4-0.2
					c-0.2,0-0.3-0.3-0.3-0.4c0-0.1,0-0.8,0-1.1c0-0.3,0-0.8,0-1l0-0.1c0-0.1,0.1-0.3,0.3-0.3c0.2-0.1,1.4-0.2,2.4-0.2l0,0
					c0.2-0.9,0.6-1.7,1.1-2.5l0,0c-0.8-0.9-1.3-1.6-1.4-1.7c-0.1-0.2-0.1-0.3,0-0.4l0.1-0.1c0.1-0.1,0.4-0.5,0.7-0.7
					c0.3-0.3,0.8-0.7,0.8-0.7c0.1,0,0.3-0.2,0.5-0.1c0.2,0.1,1.3,1.1,1.8,1.5l0,0c0.7-0.4,1.4-0.7,2.2-0.9c0.1-1.1,0.2-2.2,0.2-2.4
					c0.1-0.1,0.2-0.3,0.3-0.3l0.1,0c0.3,0,0.7,0,1,0c0.3,0,1,0,1.1,0c0.1,0,0.4,0.1,0.4,0.3c0.1,0.2,0.2,1.9,0.2,2.4l0,0
					c0.8,0.2,1.5,0.5,2.2,0.9l0,0c0.5-0.4,1.6-1.4,1.8-1.5c0.2-0.1,0.5,0,0.5,0.1c0,0,0.6,0.5,0.8,0.8c0.2,0.2,0.5,0.6,0.7,0.7
					l0.1,0.1c0.1,0.1,0.1,0.3,0,0.4c-0.1,0.2-0.6,0.8-1.4,1.8v0c0.5,0.8,0.9,1.6,1.1,2.5c1,0.1,2.2,0.2,2.4,0.2
					c0.2,0.1,0.3,0.2,0.3,0.3l0,0.1c0,0.2,0,0.7,0,1c0,0.3,0,1,0,1.1c0,0.2-0.1,0.4-0.3,0.4c-0.2,0.1-1.9,0.2-2.4,0.2
					c-0.2,0.9-0.6,1.8-1.1,2.6l0,0c0.3,0.4,1.3,1.6,1.5,1.8c0.1,0.2,0.1,0.3,0,0.4l-0.1,0.1c-0.1,0.1-0.4,0.5-0.7,0.7
					c-0.2,0.2-0.7,0.6-0.8,0.7l0,0c0,0-0.3,0.2-0.5,0.1c-0.2-0.1-1.5-1.2-1.8-1.5l0,0c-0.7,0.4-1.4,0.7-2.2,0.9v0
					c0,0.5-0.2,2.1-0.2,2.4c0,0.2-0.3,0.3-0.4,0.3C134.5,169.5,133.8,169.6,133.5,169.6z M132.5,169.1L132.5,169.1
					c0.2,0,0.7,0.1,1,0.1c0.3,0,1,0,1.1,0c0,0,0.1,0,0.1,0c0-0.1,0.1-1,0.2-2.3l0-0.3l0.3-0.1c0.7-0.2,1.4-0.4,2.1-0.8l0.2-0.1
					l0.2,0.2c1,0.8,1.7,1.4,1.8,1.5c0,0,0.1,0,0.1-0.1c0.1-0.1,0.6-0.5,0.8-0.7c0.1-0.1,0.4-0.4,0.6-0.7l0,0c0,0,0-0.1,0-0.1
					c0-0.1-0.5-0.6-1.4-1.7l-0.2-0.2l0.2-0.2c0.5-0.8,0.9-1.6,1.1-2.5l0.1-0.3l0.3,0c1.3-0.1,2.2-0.2,2.3-0.2c0,0,0-0.1,0-0.1
					c0-0.1,0-0.7,0-1.1c0-0.3,0-0.7,0-0.9l0-0.1c0,0,0,0-0.1,0c-0.1,0-0.9-0.1-2.3-0.2l-0.3,0l-0.1-0.3c-0.2-0.9-0.5-1.7-1-2.4
					l-0.2-0.2l0.2-0.2c1-1.2,1.3-1.6,1.4-1.7c0,0,0,0,0,0l0,0c-0.1-0.1-0.4-0.5-0.6-0.7c-0.3-0.3-0.8-0.7-0.8-0.7c0,0-0.1,0-0.1,0
					c-0.1,0-0.6,0.5-1.7,1.4l-0.2,0.2l-0.2-0.1c-0.7-0.4-1.4-0.7-2.1-0.8l-0.3-0.1l0-0.3c-0.1-1.3-0.2-2.2-0.2-2.4c0,0-0.1,0-0.1,0
					c-0.1,0-0.7,0-1.1,0c-0.3,0-0.7,0-0.9,0l-0.1,0c0,0,0,0-0.1,0.1c0,0.1-0.1,0.9-0.2,2.3l0,0.3l-0.3,0.1c-0.7,0.2-1.5,0.5-2.1,0.8
					l-0.2,0.1l-0.2-0.2c-1.1-1-1.7-1.4-1.7-1.4c0,0-0.1,0-0.1,0.1c-0.1,0.1-0.6,0.5-0.8,0.7c-0.2,0.2-0.5,0.6-0.6,0.7l0,0
					c0,0,0,0.1,0,0.1c0,0,0.4,0.5,1.4,1.6l0.2,0.2l-0.2,0.2c-0.5,0.7-0.8,1.5-1,2.4l-0.1,0.3l-0.3,0c-1.4,0.1-2.2,0.2-2.3,0.2
					c0,0,0,0,0,0l0,0c0,0.2,0,0.7,0,1c0,0.3,0,1,0,1.1c0,0,0,0.1,0,0.1c0.1,0,1.1,0.1,2.3,0.2l0.3,0l0.1,0.3
					c0.2,0.9,0.6,1.7,1.1,2.5l0.2,0.2l-0.2,0.2c-0.9,1.1-1.4,1.6-1.4,1.7c0,0,0,0,0,0l0,0c0.1,0.1,0.4,0.5,0.6,0.7
					c0.2,0.2,0.7,0.7,0.8,0.7c0,0,0.1,0,0.1,0c0.1-0.1,0.8-0.7,1.8-1.5l0.2-0.2l0.2,0.1c0.6,0.4,1.3,0.6,2.1,0.8l0.3,0.1l0,0.3
					C132.4,168.2,132.4,169,132.5,169.1C132.5,169.1,132.5,169.1,132.5,169.1z M133.6,162.1c-1.5,0-2.7-1.2-2.7-2.7
					c0-1.5,1.2-2.7,2.7-2.7c1.5,0,2.7,1.2,2.7,2.7C136.3,160.9,135.1,162.1,133.6,162.1z M133.6,157.1c-1.3,0-2.3,1-2.3,2.3
					s1,2.3,2.3,2.3c1.3,0,2.3-1,2.3-2.3C135.9,158.1,134.9,157.1,133.6,157.1z"/>
			</g>
		</g>
	</g>
</g>
<g id="g3969">
	<g id="g3971">
		<g id="g3973">
			<path id="path3975" class="st1" d="M51.9,59.8c-3.2,0-5.8,2.6-5.8,5.8c0,3.2,2.6,5.8,5.8,5.8c3.2,0,5.8-2.6,5.8-5.8
				C57.7,62.4,55.1,59.8,51.9,59.8z M56.7,65.6c0,2.7-2.2,4.8-4.8,4.8c-2.7,0-4.8-2.2-4.8-4.8c0-2.7,2.2-4.8,4.8-4.8
				C54.5,60.8,56.7,63,56.7,65.6z"/>
			<path id="path3977" class="st1" d="M57,79.9h-3.6c-0.1,0-0.2,0-0.2,0.1c-0.1,0.1-0.1,0.1-0.1,0.2l0,2.9c0,0.1,0.1,0.2,0.2,0.3
				l1.8,0.8c0,0,0.1,0,0.1,0c0,0,0.1,0,0.1,0l1.8-0.8c0.1-0.1,0.2-0.2,0.2-0.3v-3C57.3,80.1,57.2,79.9,57,79.9z M53.8,80.6h2.9V83
				l-1.5,0.7L53.8,83L53.8,80.6L53.8,80.6z"/>
			<path id="path3979" class="st1" d="M65.9,66.5c-1.9-6.3-7.8-10.6-14.4-10.6c-6.6,0-12.4,4.3-14.4,10.6c-1.1-0.4-2.2-0.6-3.4-0.6
				c-4.7,0-8.7,3.2-9.8,7.7c-4.2,0.2-7.7,3.1-8.6,7.2c0,0.2,0,0.4,0.1,0.5c0.1,0.1,0.3,0.2,0.5,0.2c0,0,20,0,23.6,0
				c0,1.1,0,2.1,0,2.9c0,0.4,0,0.8,0,1.2c0.1,3.8,1.4,5.1,4.1,7.1v1.7c0,0.1,0,0.2,0.1,0.3c0.1,0.2,1.5,2,8.2,2.2c0.2,0,0.5,0,0.7,0
				c6,0,7.1-2,7.2-2.3c0-0.1,0-0.1,0-0.2v-1.4c2.9-2.1,4.1-3.3,4.1-7.5c0-0.4,0-0.8,0-1.2c0-0.9,0.1-1.8,0.1-2.9H75
				c0.3,0,0.6-0.2,0.6-0.5c0.1-0.8,0.2-1.5,0.2-2.1C75.8,72.9,71.7,67.8,65.9,66.5z M74.5,80.3H64.1c-0.2-2.1-0.7-4.2-2.2-5.8
				c-1.5-1.5-3.7-2.3-6.6-2.3h-6.8c-2.9,0-5.1,0.8-6.6,2.3c-1.5,1.6-2.1,3.7-2.3,5.8H16.8c1.1-3.2,4.1-5.4,7.6-5.4h0l0.1,0
				c0.3,0,0.6-0.2,0.6-0.5c0.8-4.2,4.4-7.2,8.6-7.2c1.1,0,2.2,0.2,3.3,0.7c0.7,0.3,2,1.1,2.9,2.6c0.1,0.2,0.3,0.3,0.5,0.2
				c0.1,0,0.1,0,0.2-0.1c0.2-0.1,0.3-0.4,0.2-0.6c-0.7-1.2-1.8-2.1-2.6-2.5c1.6-6,7.1-10.2,13.3-10.2c6,0,11.3,3.8,13.1,9.5
				c-1.6,0-2.8,0.6-2.9,0.6c-0.2,0.1-0.4,0.4-0.3,0.6c0.1,0.2,0.4,0.4,0.6,0.3c0,0,1.7-0.7,3.5-0.4c5.2,1.1,9,5.7,9,11.1
				C74.6,79.3,74.5,79.8,74.5,80.3z M63.2,84.4c0,0.5,0,0.9,0,1.3c-0.1,3.4-0.8,4.5-3.2,6.3V80.7c0-0.3-0.2-0.5-0.5-0.5
				c-0.3,0-0.5,0.2-0.5,0.5v13.6c-0.3,0.3-1.6,1.8-6.9,1.6c-5.3-0.1-7-1.4-7.3-1.7V80.9c0-0.3-0.2-0.5-0.5-0.5
				c-0.3,0-0.5,0.2-0.5,0.5v10.6c-2.2-1.6-3.1-2.8-3.1-5.9c0-0.4,0-0.8,0-1.2c-0.1-2.7-0.3-6.8,2-9.2c1.3-1.3,3.3-2,5.9-2h6.8
				c2.6,0,4.6,0.7,5.9,2C63.5,77.6,63.3,81.6,63.2,84.4z"/>
		</g>
	</g>
</g>
<g id="g3981">
	<g id="g3983">
		<circle id="circle3985" class="st0" cx="574.4" cy="114" r="37.6"/>
	</g>
	<g id="g3987">
		<path id="path3989" class="st1" d="M563.7,111.2c-2.1-0.3-3.9-0.7-5.3-1.1c-0.1,0-0.3,0-0.3,0.2c0,0.1,0,0.3,0.2,0.3
			c1.4,0.4,3.2,0.8,5.4,1.1c0,0,0,0,0,0c0.1,0,0.2-0.1,0.3-0.2C563.9,111.3,563.8,111.2,563.7,111.2z"/>
		<path id="path3991" class="st1" d="M590.9,110.6c0.2-0.1,0.3-0.3,0.2-0.5c-0.1-0.2-0.3-0.3-0.5-0.2c-3.5,1.2-9.6,1.9-16.2,1.9
			c-2.1,0-4.3-0.1-6.3-0.2c-0.2,0-0.4,0.1-0.4,0.4s0.1,0.4,0.4,0.4c2,0.1,4.2,0.2,6.3,0.2C581.1,112.5,587.3,111.8,590.9,110.6z"/>
		<path id="path3993" class="st1" d="M594.3,119.9v-11.9c0-3-10-4.6-19.9-4.6c-9.9,0-19.9,1.6-19.9,4.6v11.9c0,3,10,4.6,19.9,4.6
			C584.3,124.5,594.3,122.9,594.3,119.9z M555.5,119.9v-11.9c0-1.5,7.2-3.6,18.9-3.6c11.7,0,18.9,2.1,18.9,3.6v11.9
			c0,1.5-7.2,3.6-18.9,3.6C562.7,123.5,555.5,121.4,555.5,119.9z"/>
		<path id="path3995" class="st1" d="M583.3,102.4c0.3,0,0.7,0.1,1,0.1c0,0,0,0,0,0c0.2,0,0.4-0.1,0.4-0.3c0-0.2-0.1-0.4-0.3-0.4
			c-0.3,0-0.7-0.1-1-0.1c-0.2,0-0.4,0.1-0.4,0.3C583,102.2,583.1,102.4,583.3,102.4z"/>
		<path id="path3997" class="st1" d="M571.9,126c-0.3,0-0.7,0-1,0c-0.2,0-0.4,0.2-0.4,0.4s0.2,0.4,0.4,0.4c0.4,0,0.7,0,1,0
			c0,0,0,0,0,0c0.2,0,0.4-0.2,0.4-0.4C572.2,126.1,572.1,126,571.9,126z"/>
		<path id="path3999" class="st1" d="M577,126C577,126,577,126,577,126c-0.4,0-0.7,0-1,0c-0.2,0-0.4,0.2-0.4,0.4
			c0,0.2,0.2,0.4,0.4,0.4c0,0,0,0,0,0c0.3,0,0.7,0,1,0c0.2,0,0.4-0.2,0.4-0.4C577.4,126.1,577.2,126,577,126z"/>
		<path id="path4001" class="st1" d="M574.4,126c-0.3,0-0.7,0-1,0c-0.2,0-0.4,0.2-0.4,0.4c0,0.2,0.2,0.4,0.4,0.4c0.4,0,0.7,0,1,0
			c0.2,0,0.4-0.2,0.4-0.4C574.8,126.2,574.6,126,574.4,126z"/>
		<path id="path4003" class="st1" d="M579.5,125.9c-0.3,0-0.7,0-1,0c-0.2,0-0.4,0.2-0.4,0.4c0,0.2,0.2,0.4,0.4,0.4c0,0,0,0,0,0
			c0.3,0,0.7,0,1,0c0.2,0,0.4-0.2,0.4-0.4C579.9,126,579.7,125.8,579.5,125.9z"/>
		<path id="path4005" class="st1" d="M582.1,125.7c-0.3,0-0.7,0.1-1,0.1c-0.2,0-0.4,0.2-0.4,0.4c0,0.2,0.2,0.4,0.4,0.4c0,0,0,0,0,0
			c0.3,0,0.7,0,1-0.1c0.2,0,0.4-0.2,0.4-0.4C582.5,125.8,582.3,125.7,582.1,125.7z"/>
		<path id="path4007" class="st1" d="M566.8,125.7c-0.3,0-0.7-0.1-1-0.1c-0.2,0-0.4,0.1-0.4,0.3c0,0.2,0.1,0.4,0.3,0.4
			c0.3,0,0.7,0.1,1,0.1c0,0,0,0,0,0c0.2,0,0.4-0.2,0.4-0.4C567.1,125.9,567,125.7,566.8,125.7z"/>
		<path id="path4009" class="st1" d="M559.2,124.5c-0.3-0.1-0.7-0.2-1-0.3c-0.2-0.1-0.4,0.1-0.5,0.3c-0.1,0.2,0.1,0.4,0.3,0.5
			c0.3,0.1,0.7,0.2,1,0.3c0,0,0.1,0,0.1,0c0.2,0,0.3-0.1,0.4-0.3C559.6,124.8,559.4,124.6,559.2,124.5z"/>
		<path id="path4011" class="st1" d="M561.7,125.1c-0.3-0.1-0.7-0.1-1-0.2c-0.2,0-0.4,0.1-0.5,0.3c0,0.2,0.1,0.4,0.3,0.5
			c0.3,0.1,0.7,0.1,1,0.2c0,0,0,0,0.1,0c0.2,0,0.3-0.1,0.4-0.3C562.1,125.3,561.9,125.1,561.7,125.1z"/>
		<path id="path4013" class="st1" d="M584.6,125.4c-0.3,0-0.7,0.1-1,0.1c-0.2,0-0.4,0.2-0.3,0.4c0,0.2,0.2,0.3,0.4,0.3c0,0,0,0,0,0
			c0.3,0,0.7-0.1,1-0.1c0.2,0,0.4-0.2,0.3-0.4C585,125.6,584.8,125.4,584.6,125.4z"/>
		<path id="path4015" class="st1" d="M569.3,125.9c-0.3,0-0.7,0-1-0.1c-0.2,0-0.4,0.1-0.4,0.4c0,0.2,0.1,0.4,0.4,0.4
			c0.3,0,0.7,0,1,0.1c0,0,0,0,0,0c0.2,0,0.4-0.2,0.4-0.4C569.7,126.1,569.5,125.9,569.3,125.9z"/>
		<path id="path4017" class="st1" d="M564.2,125.4c-0.3,0-0.7-0.1-1-0.1c-0.2,0-0.4,0.1-0.4,0.3c0,0.2,0.1,0.4,0.3,0.4
			c0.3,0,0.7,0.1,1,0.1c0,0,0,0,0,0c0.2,0,0.4-0.1,0.4-0.3C564.6,125.6,564.4,125.5,564.2,125.4z"/>
		<path id="path4019" class="st1" d="M592,123.8c-0.3,0.1-0.6,0.2-0.9,0.3c-0.2,0.1-0.3,0.3-0.2,0.5c0.1,0.2,0.2,0.3,0.4,0.3
			c0,0,0.1,0,0.1,0c0.3-0.1,0.7-0.2,1-0.4c0.2-0.1,0.3-0.3,0.2-0.5C592.4,123.8,592.2,123.7,592,123.8z"/>
		<path id="path4021" class="st1" d="M596.2,115.5c-0.2,0-0.4,0.2-0.4,0.4v1c0,0.2,0.2,0.4,0.4,0.4c0.2,0,0.4-0.2,0.4-0.4v-1
			C596.6,115.7,596.4,115.5,596.2,115.5z"/>
		<path id="path4023" class="st1" d="M596.2,113c-0.2,0-0.4,0.2-0.4,0.4v1c0,0.2,0.2,0.4,0.4,0.4c0.2,0,0.4-0.2,0.4-0.4v-1
			C596.6,113.1,596.4,113,596.2,113z"/>
		<path id="path4025" class="st1" d="M596.2,118.1c-0.2,0-0.4,0.2-0.4,0.4v1c0,0.2,0.2,0.4,0.4,0.4c0.2,0,0.4-0.2,0.4-0.4v-1
			C596.6,118.3,596.4,118.1,596.2,118.1z"/>
		<path id="path4027" class="st1" d="M593.1,104.7c0.3,0.2,0.6,0.3,0.8,0.5c0.1,0,0.1,0.1,0.2,0.1c0.1,0,0.2-0.1,0.3-0.2
			c0.1-0.2,0.1-0.4-0.1-0.5c-0.3-0.2-0.6-0.4-0.9-0.5c-0.2-0.1-0.4,0-0.5,0.2C592.9,104.4,592.9,104.6,593.1,104.7z"/>
		<path id="path4029" class="st1" d="M596.2,107.8c-0.2,0-0.4,0.2-0.4,0.4v1c0,0.2,0.2,0.4,0.4,0.4c0.2,0,0.4-0.2,0.4-0.4v-1
			C596.6,108,596.4,107.8,596.2,107.8z"/>
		<path id="path4031" class="st1" d="M594.2,122.6c-0.2,0.2-0.5,0.4-0.8,0.5c-0.2,0.1-0.3,0.3-0.2,0.5c0.1,0.1,0.2,0.2,0.3,0.2
			c0.1,0,0.1,0,0.2,0c0.3-0.2,0.6-0.4,0.9-0.6c0.2-0.1,0.2-0.4,0.1-0.5C594.6,122.5,594.3,122.5,594.2,122.6z"/>
		<path id="path4033" class="st1" d="M596.1,120.6c-0.2-0.1-0.4,0-0.5,0.2c-0.1,0.3-0.2,0.5-0.4,0.8c-0.1,0.2-0.1,0.4,0.1,0.5
			c0.1,0.1,0.2,0.1,0.2,0.1c0.1,0,0.2-0.1,0.3-0.2c0.2-0.3,0.4-0.6,0.5-1C596.4,120.9,596.3,120.7,596.1,120.6z"/>
		<path id="path4035" class="st1" d="M556.8,123.8c-0.3-0.1-0.6-0.3-0.9-0.4c-0.2-0.1-0.4,0-0.5,0.2c-0.1,0.2,0,0.4,0.2,0.5
			c0.3,0.1,0.6,0.3,1,0.4c0,0,0.1,0,0.1,0c0.2,0,0.3-0.1,0.4-0.2C557.1,124.1,557,123.8,556.8,123.8z"/>
		<path id="path4037" class="st1" d="M589.6,124.5c-0.3,0.1-0.7,0.2-1,0.2c-0.2,0-0.3,0.3-0.3,0.5c0,0.2,0.2,0.3,0.4,0.3
			c0,0,0.1,0,0.1,0c0.3-0.1,0.7-0.2,1-0.2c0.2-0.1,0.3-0.3,0.3-0.5C590,124.6,589.8,124.5,589.6,124.5z"/>
		<path id="path4039" class="st1" d="M587.1,125.1c-0.3,0.1-0.7,0.1-1,0.2c-0.2,0-0.4,0.2-0.3,0.4c0,0.2,0.2,0.3,0.4,0.3
			c0,0,0,0,0.1,0c0.3-0.1,0.7-0.1,1-0.2c0.2,0,0.4-0.2,0.3-0.4C587.5,125.2,587.3,125,587.1,125.1z"/>
		<path id="path4041" class="st1" d="M595.9,107.1c0.1,0,0.1,0,0.2,0c0.2-0.1,0.3-0.3,0.2-0.5c-0.2-0.3-0.4-0.6-0.6-0.9
			c-0.1-0.2-0.4-0.2-0.5,0c-0.2,0.1-0.2,0.4,0,0.5c0.2,0.2,0.4,0.5,0.5,0.8C595.6,107,595.7,107.1,595.9,107.1z"/>
		<path id="path4043" class="st1" d="M596.2,110.4c-0.2,0-0.4,0.2-0.4,0.4v1c0,0.2,0.2,0.4,0.4,0.4c0.2,0,0.4-0.2,0.4-0.4v-1
			C596.6,110.6,596.4,110.4,596.2,110.4z"/>
		<path id="path4045" class="st1" d="M562.9,102.7C562.9,102.7,562.9,102.7,562.9,102.7c0.4-0.1,0.7-0.1,1.1-0.1
			c0.2,0,0.4-0.2,0.3-0.4c0-0.2-0.2-0.4-0.4-0.3c-0.3,0-0.7,0.1-1,0.1c-0.2,0-0.4,0.2-0.3,0.4C562.6,102.6,562.7,102.7,562.9,102.7z
			"/>
		<path id="path4047" class="st1" d="M575.7,102c0.3,0,0.7,0,1,0c0,0,0,0,0,0c0.2,0,0.4-0.2,0.4-0.4c0-0.2-0.2-0.4-0.4-0.4
			c-0.4,0-0.7,0-1,0c-0.2,0-0.4,0.2-0.4,0.4C575.3,101.8,575.5,102,575.7,102z"/>
		<path id="path4049" class="st1" d="M573.1,102C573.1,102,573.1,102,573.1,102c0.4,0,0.7,0,1,0c0.2,0,0.4-0.2,0.4-0.4
			c0-0.2-0.2-0.4-0.4-0.4c0,0,0,0,0,0c-0.3,0-0.7,0-1,0c-0.2,0-0.4,0.2-0.4,0.4C572.7,101.8,572.9,102,573.1,102z"/>
		<path id="path4051" class="st1" d="M565.5,102.4C565.5,102.4,565.5,102.4,565.5,102.4c0.4,0,0.7-0.1,1.1-0.1
			c0.2,0,0.4-0.2,0.4-0.4c0-0.2-0.2-0.4-0.4-0.4c-0.3,0-0.7,0.1-1,0.1c-0.2,0-0.4,0.2-0.3,0.4C565.1,102.3,565.3,102.4,565.5,102.4z
			"/>
		<path id="path4053" class="st1" d="M568,102.2C568,102.2,568,102.2,568,102.2c0.4,0,0.7,0,1-0.1c0.2,0,0.4-0.2,0.4-0.4
			c0-0.2-0.2-0.4-0.4-0.4c-0.3,0-0.7,0-1,0.1c-0.2,0-0.4,0.2-0.4,0.4C567.6,102,567.8,102.2,568,102.2z"/>
		<path id="path4055" class="st1" d="M570.6,102.1C570.6,102.1,570.6,102.1,570.6,102.1c0.4,0,0.7,0,1,0c0.2,0,0.4-0.2,0.4-0.4
			c0-0.2-0.2-0.4-0.4-0.4c-0.3,0-0.7,0-1,0c-0.2,0-0.4,0.2-0.4,0.4C570.2,101.9,570.4,102.1,570.6,102.1z"/>
		<path id="path4057" class="st1" d="M588.4,103.2c0.3,0.1,0.7,0.1,1,0.2c0,0,0.1,0,0.1,0c0.2,0,0.3-0.1,0.4-0.3
			c0.1-0.2-0.1-0.4-0.3-0.5c-0.3-0.1-0.7-0.2-1-0.2c-0.2,0-0.4,0.1-0.5,0.3C588,102.9,588.2,103.1,588.4,103.2z"/>
		<path id="path4059" class="st1" d="M590.8,103.8c0.3,0.1,0.6,0.2,1,0.3c0,0,0.1,0,0.1,0c0.2,0,0.3-0.1,0.4-0.3
			c0.1-0.2,0-0.4-0.2-0.5c-0.3-0.1-0.6-0.2-1-0.3c-0.2-0.1-0.4,0-0.5,0.3C590.5,103.5,590.6,103.7,590.8,103.8z"/>
		<path id="path4061" class="st1" d="M578.2,102.1c0.3,0,0.7,0,1,0c0,0,0,0,0,0c0.2,0,0.4-0.2,0.4-0.4c0-0.2-0.2-0.4-0.4-0.4
			c-0.3,0-0.7,0-1,0c-0.2,0-0.4,0.2-0.4,0.4C577.9,101.9,578,102.1,578.2,102.1z"/>
		<path id="path4063" class="st1" d="M585.9,102.7c0.3,0,0.7,0.1,1,0.2c0,0,0,0,0.1,0c0.2,0,0.3-0.1,0.4-0.3c0-0.2-0.1-0.4-0.3-0.4
			c-0.3-0.1-0.7-0.1-1-0.2c-0.2,0-0.4,0.1-0.4,0.3C585.5,102.5,585.7,102.7,585.9,102.7z"/>
		<path id="path4065" class="st1" d="M580.8,102.2c0.3,0,0.7,0,1,0.1c0,0,0,0,0,0c0.2,0,0.4-0.2,0.4-0.4c0-0.2-0.1-0.4-0.4-0.4
			c-0.3,0-0.7-0.1-1-0.1c-0.2,0-0.4,0.1-0.4,0.4C580.4,102,580.6,102.2,580.8,102.2z"/>
		<path id="path4067" class="st1" d="M552.6,113.7c0.2,0,0.4-0.2,0.4-0.4v-1c0-0.2-0.2-0.4-0.4-0.4c-0.2,0-0.4,0.2-0.4,0.4v1
			C552.3,113.6,552.4,113.7,552.6,113.7z"/>
		<path id="path4069" class="st1" d="M552.6,116.3c0.2,0,0.4-0.2,0.4-0.4v-1c0-0.2-0.2-0.4-0.4-0.4c-0.2,0-0.4,0.2-0.4,0.4v1
			C552.3,116.1,552.4,116.3,552.6,116.3z"/>
		<path id="path4071" class="st1" d="M553.9,122c-0.1-0.2-0.4-0.2-0.5,0c-0.2,0.1-0.2,0.4,0,0.5c0.2,0.2,0.5,0.5,0.8,0.7
			c0.1,0,0.1,0.1,0.2,0.1c0.1,0,0.2-0.1,0.3-0.2c0.1-0.2,0.1-0.4-0.1-0.5C554.4,122.4,554.1,122.2,553.9,122z"/>
		<path id="path4073" class="st1" d="M552.6,118.9c0.2,0,0.4-0.2,0.4-0.4v-1c0-0.2-0.2-0.4-0.4-0.4c-0.2,0-0.4,0.2-0.4,0.4v1
			C552.3,118.7,552.4,118.9,552.6,118.9z"/>
		<path id="path4075" class="st1" d="M553,120c0-0.2-0.2-0.4-0.4-0.4c-0.2,0-0.4,0.2-0.4,0.4c0,0.4,0.1,0.8,0.2,1.1
			c0.1,0.2,0.2,0.3,0.4,0.3c0,0,0.1,0,0.1,0c0.2-0.1,0.3-0.3,0.2-0.5C553.1,120.6,553,120.3,553,120z"/>
		<path id="path4077" class="st1" d="M553.8,106.1c0.2-0.2,0.4-0.4,0.7-0.6c0.2-0.1,0.2-0.4,0.1-0.5c-0.1-0.2-0.4-0.2-0.5-0.1
			c-0.3,0.2-0.6,0.5-0.8,0.8c-0.1,0.2-0.1,0.4,0,0.5c0.1,0.1,0.2,0.1,0.3,0.1C553.6,106.3,553.7,106.2,553.8,106.1z"/>
		<path id="path4079" class="st1" d="M555.5,104.8c0.1,0,0.1,0,0.2,0c0.3-0.1,0.6-0.3,0.9-0.4c0.2-0.1,0.3-0.3,0.2-0.5
			c-0.1-0.2-0.3-0.3-0.5-0.2c-0.3,0.1-0.7,0.3-1,0.4c-0.2,0.1-0.3,0.3-0.2,0.5C555.3,104.7,555.4,104.8,555.5,104.8z"/>
		<path id="path4081" class="st1" d="M560.4,103.2C560.4,103.2,560.4,103.2,560.4,103.2c0.4-0.1,0.7-0.1,1.1-0.2
			c0.2,0,0.4-0.2,0.3-0.5s-0.2-0.4-0.5-0.3c-0.3,0.1-0.7,0.1-1,0.2c-0.2,0-0.3,0.3-0.3,0.5C560,103,560.2,103.2,560.4,103.2z"/>
		<path id="path4083" class="st1" d="M557.9,103.8c0,0,0.1,0,0.1,0c0.3-0.1,0.6-0.2,1-0.3c0.2-0.1,0.3-0.3,0.3-0.5
			c-0.1-0.2-0.3-0.3-0.5-0.3c-0.3,0.1-0.7,0.2-1,0.3c-0.2,0.1-0.3,0.3-0.3,0.5C557.6,103.7,557.7,103.8,557.9,103.8z"/>
		<path id="path4085" class="st1" d="M552.6,111.2c0.2,0,0.4-0.2,0.4-0.4v-1c0-0.2-0.2-0.4-0.4-0.4c-0.2,0-0.4,0.2-0.4,0.4v1
			C552.3,111,552.4,111.2,552.6,111.2z"/>
		<path id="path4087" class="st1" d="M552.6,108.6c0.2,0,0.4-0.2,0.4-0.4v-0.2c0-0.3,0-0.5,0.1-0.7c0.1-0.2-0.1-0.4-0.3-0.5
			c-0.2-0.1-0.4,0.1-0.5,0.3c-0.1,0.3-0.1,0.6-0.1,0.9v0.2C552.3,108.4,552.4,108.6,552.6,108.6z"/>
	</g>
</g>
<path class="st2" d="M221.2,99.1l-7.9,2.9c0.1,1.3,0.3,2.5,0.6,3.7l7.5-2.7C221.2,101.7,221.1,100.4,221.2,99.1"/>
<path class="st2" d="M256,90.4c-0.5-1.1-1.2-2.2-1.9-3.3l-7.9,2.9c0.9,0.9,1.7,2,2.3,3.1L256,90.4z"/>
<path class="st3" d="M238.7,88.1c1.6,0.7,3,1.8,4.3,3l7.9-2.9c-2.2-3.2-5.3-5.7-8.8-7.3c-11.3-5.2-24.7-0.4-29.9,10.9
	c-1.6,3.5-2.3,7.4-2,11.3l7.9-2.9c0.6-8,7.6-14.1,15.6-13.5C235.3,86.9,237,87.4,238.7,88.1"/>
<path class="st3" d="M214.4,105.5l-7.5,2.7c0.7,2.7,1.9,5.3,3.5,7.6l7.9-2.9C216.3,110.9,215,108.3,214.4,105.5"/>
<path class="st3" d="M247.1,102.5c-0.1,1.8-0.6,3.5-1.3,5.1c-3.4,7.3-12.1,10.5-19.4,7.1c-1.6-0.7-3-1.8-4.3-3l-7.9,2.9
	c2.2,3.2,5.3,5.7,8.8,7.3c11.3,5.2,24.7,0.4,29.9-10.9c1.6-3.5,2.3-7.4,2-11.2L247.1,102.5z"/>
<path class="st3" d="M249,92.9l-7.5,2.7c1.4,2.5,2,5.4,1.8,8.2l7.9-2.9C251,98.2,250.2,95.4,249,92.9"/>
<path class="st4" d="M221.1,100.7c0-0.5,0-1.1,0-1.6l-7.9,2.9c0,0.5,0.1,1,0.2,1.5L221.1,100.7z"/>
<path class="st4" d="M254.8,88.3c-0.2-0.4-0.5-0.8-0.8-1.2l-7.9,2.9c0.3,0.4,0.7,0.7,1,1.1L254.8,88.3z"/>
<path class="st2" d="M214.2,114.5c0.6,0.9,1.3,1.7,2,2.4l8.6-3.1c-1-0.6-1.9-1.3-2.7-2.2L214.2,114.5z M254.9,99.7l-7.9,2.9
	c-0.1,1.1-0.3,2.3-0.7,3.4l8.6-3.1C255,101.8,255,100.7,254.9,99.7"/>
<path class="st5" d="M270.6,91.8l-1.7-3.4h-1.1v3.4h-2.8V81.7h4.5c0.5,0,1.1,0.1,1.6,0.2c0.5,0.1,0.9,0.3,1.3,0.6
	c0.4,0.3,0.6,0.6,0.8,1c0.2,0.5,0.3,1,0.3,1.5c0,0.8-0.2,1.4-0.5,1.9c-0.3,0.5-0.8,0.9-1.3,1.1l2,3.9L270.6,91.8L270.6,91.8z
	 M270.5,84.3c-0.2-0.2-0.5-0.3-1-0.3h-1.7v2.2h1.7c0.5,0,0.8-0.1,1-0.3c0.2-0.2,0.3-0.5,0.3-0.8C270.8,84.8,270.7,84.5,270.5,84.3
	L270.5,84.3z"/>
<path class="st5" d="M275.9,91.8V81.7h7.8V84h-5v1.4h3v2.3h-3v1.7h5.1v2.4L275.9,91.8L275.9,91.8z"/>
<path class="st5" d="M294.4,89.1c-0.2,0.6-0.6,1.2-1,1.6c-0.5,0.4-1.1,0.7-1.7,0.9c-0.8,0.2-1.6,0.3-2.4,0.3H286V81.7h3.5
	c0.7,0,1.5,0.1,2.2,0.2c0.6,0.1,1.2,0.4,1.6,0.8c0.5,0.4,0.8,1,1,1.5c0.2,0.6,0.4,1.4,0.4,2.4S294.6,88.4,294.4,89.1z M291.7,85.5
	c-0.1-0.3-0.2-0.6-0.4-0.8c-0.2-0.2-0.4-0.4-0.7-0.5c-0.4-0.1-0.7-0.2-1.1-0.2h-0.7v5.3h0.6c0.4,0,0.8,0,1.1-0.1
	c0.3-0.1,0.6-0.2,0.8-0.4c0.2-0.2,0.4-0.5,0.4-0.8c0.1-0.4,0.1-0.8,0.1-1.3C291.8,86.3,291.8,85.9,291.7,85.5z"/>
<path class="st5" d="M308.1,91.8v-4h-3.2v4h-2.9V81.7h2.9v3.7h3.2v-3.7h2.9v10.1L308.1,91.8L308.1,91.8z"/>
<path class="st5" d="M320,91.8l-0.5-1.8h-3l-0.5,1.8h-3l3.7-10.1h2.8l3.7,10.1L320,91.8L320,91.8z M318.6,87.1
	c-0.1-0.3-0.2-0.6-0.2-0.9s-0.1-0.5-0.2-0.7c-0.1-0.2-0.1-0.4-0.1-0.5c0-0.2-0.1-0.3-0.1-0.5c0,0.2-0.1,0.3-0.1,0.5
	c0,0.2-0.1,0.3-0.1,0.5c-0.1,0.2-0.1,0.4-0.2,0.7c-0.1,0.2-0.1,0.5-0.2,0.8l-0.2,0.7h1.7L318.6,87.1z"/>
<path class="st5" d="M328.8,84.1v7.7H326v-7.7h-2.8v-2.4h8.5v2.4H328.8L328.8,84.1z"/>
<path class="st5" d="M335.4,83.4c-0.1,0.3-0.4,0.6-0.7,0.7c-0.3,0.1-0.7,0.1-1,0c-0.3-0.1-0.6-0.4-0.7-0.7c-0.1-0.3-0.1-0.7,0-1
	c0.1-0.3,0.4-0.6,0.7-0.7c0.3-0.1,0.7-0.1,1,0c0.3,0.1,0.6,0.4,0.7,0.7C335.5,82.7,335.5,83.1,335.4,83.4z M335.2,82.5
	c-0.1-0.1-0.1-0.2-0.2-0.3c-0.1-0.1-0.2-0.2-0.3-0.2c-0.3-0.1-0.6-0.1-0.9,0c-0.3,0.1-0.5,0.3-0.6,0.6c-0.1,0.3-0.1,0.6,0,0.9
	c0.1,0.3,0.3,0.5,0.6,0.6c0.3,0.1,0.6,0.1,0.9,0c0.1-0.1,0.2-0.1,0.3-0.2c0.1-0.1,0.2-0.2,0.2-0.4C335.3,83.1,335.3,82.7,335.2,82.5
	z M334.7,82.9c-0.1,0.1-0.1,0.1-0.2,0.1l0.3,0.6h-0.3l-0.3-0.5h-0.3v0.6h-0.2v-1.4h0.6c0.1,0,0.1,0,0.2,0c0.1,0,0.1,0,0.1,0.1
	c0,0,0.1,0.1,0.1,0.1c0,0.1,0,0.1,0,0.2C334.8,82.7,334.7,82.8,334.7,82.9z M334.5,82.4c0,0-0.1-0.1-0.2-0.1h-0.4v0.4h0.4
	c0.1,0,0.1,0,0.2,0C334.5,82.7,334.5,82.5,334.5,82.4C334.5,82.5,334.5,82.5,334.5,82.4z"/>
<path class="st5" d="M276.6,105.4c-0.3,0.9-0.7,1.7-1.3,2.5c-0.5,0.7-1.2,1.2-2,1.6c-1.6,0.8-3.5,0.8-5.2,0c-0.8-0.4-1.5-0.9-2-1.6
	c-0.6-0.7-1-1.6-1.3-2.5c-0.3-1-0.5-2.1-0.4-3.1c0-1.1,0.1-2.1,0.5-3.2c0.3-0.9,0.7-1.7,1.3-2.5c0.5-0.7,1.2-1.2,2-1.6
	c1.6-0.8,3.5-0.8,5.2,0c0.8,0.4,1.5,0.9,2,1.6c0.6,0.7,1,1.6,1.3,2.5c0.3,1,0.5,2.1,0.5,3.1C277,103.3,276.9,104.4,276.6,105.4z
	 M275,99.7c-0.2-0.7-0.5-1.4-1-2c-0.4-0.5-0.9-1-1.5-1.3c-0.6-0.3-1.2-0.5-1.8-0.4c-0.6,0-1.3,0.1-1.8,0.4c-0.6,0.3-1.1,0.7-1.4,1.3
	c-0.4,0.6-0.8,1.3-1,2c-0.2,0.8-0.4,1.7-0.3,2.6c0,0.9,0.1,1.8,0.4,2.6c0.2,0.7,0.5,1.4,1,2c0.4,0.5,0.9,1,1.5,1.3
	c0.6,0.3,1.2,0.5,1.8,0.4c0.6,0,1.3-0.2,1.8-0.4c0.6-0.3,1.1-0.7,1.5-1.3c0.4-0.6,0.8-1.3,1-2c0.2-0.8,0.4-1.7,0.3-2.6
	C275.3,101.4,275.2,100.6,275,99.7L275,99.7z"/>
<path class="st5" d="M291.2,101.2c-0.2,0.6-0.6,1.1-1.1,1.5c-0.5,0.4-1,0.7-1.6,0.9c-0.7,0.2-1.4,0.3-2.1,0.3h-3.7v6H281V94.7h5.7
	c0.6,0,1.3,0.1,1.9,0.3c0.6,0.2,1.1,0.5,1.5,0.8c0.4,0.4,0.8,0.9,1,1.4C291.7,98.5,291.7,100,291.2,101.2z M289,97
	c-0.6-0.5-1.3-0.8-2.4-0.8h-3.9v6.1h3.7c2.3,0,3.4-1,3.4-3.1C289.9,98.3,289.6,97.6,289,97z"/>
<path class="st5" d="M295.1,109.9V94.7h9.2v1.5h-7.5v4.8h4.3v1.5h-4.3v5.8h7.8v1.5H295.1z"/>
<path class="st5" d="M317.9,109.9l-6.6-10.4c-0.1-0.1-0.2-0.3-0.3-0.5l-0.3-0.5c-0.1-0.2-0.2-0.4-0.3-0.5c-0.1-0.1-0.1-0.3-0.2-0.4
	v12.3h-1.7V94.7h1.7l6.6,10.6c0.1,0.1,0.2,0.3,0.3,0.5l0.3,0.5c0.1,0.2,0.2,0.4,0.3,0.5c0.1,0.1,0.1,0.3,0.2,0.4V94.7h1.7v15.2
	L317.9,109.9L317.9,109.9z"/>
<path class="st5" d="M333.1,107.6c-0.2,0.5-0.6,1-1,1.3c-0.5,0.4-1,0.7-1.6,0.9c-0.7,0.2-1.4,0.3-2.1,0.3c-1,0-2-0.2-2.9-0.6
	c-0.8-0.4-1.6-0.9-2.2-1.5l1.1-1.3c0.6,0.5,1.2,1,1.9,1.3c0.7,0.3,1.4,0.5,2.2,0.5c1,0,1.8-0.2,2.4-0.7s0.9-1.1,0.9-1.9
	c0-0.3-0.1-0.7-0.2-1c-0.1-0.3-0.3-0.6-0.6-0.8c-0.3-0.3-0.7-0.5-1.1-0.7c-0.6-0.3-1.1-0.5-1.7-0.7c-0.7-0.2-1.4-0.5-2.1-0.9
	c-0.5-0.3-0.9-0.6-1.3-1c-0.3-0.3-0.6-0.7-0.7-1.1c-0.2-0.5-0.2-1-0.2-1.5c0-0.6,0.1-1.1,0.3-1.6c0.2-0.5,0.6-0.9,1-1.2
	c0.4-0.4,1-0.6,1.5-0.8c0.6-0.2,1.3-0.3,1.9-0.3c1,0,1.9,0.1,2.6,0.4c0.7,0.3,1.4,0.7,2,1.2l-1.1,1.3c-0.5-0.4-1.1-0.8-1.7-1.1
	c-0.6-0.3-1.3-0.4-2-0.4c-0.5,0-0.9,0.1-1.3,0.2c-0.3,0.1-0.6,0.3-0.9,0.5c-0.2,0.2-0.4,0.4-0.5,0.7c-0.1,0.3-0.2,0.6-0.2,0.9
	c0,0.3,0,0.6,0.1,0.9c0.1,0.3,0.3,0.5,0.5,0.7c0.3,0.3,0.7,0.5,1.1,0.7c0.6,0.3,1.2,0.5,1.9,0.8c0.7,0.3,1.4,0.6,2.1,0.9
	c0.5,0.3,1,0.6,1.4,1c0.3,0.3,0.6,0.7,0.7,1.2c0.2,0.5,0.2,1,0.2,1.5C333.5,106.5,333.3,107.1,333.1,107.6z"/>
<path class="st5" d="M346.9,109.9v-7.2h-7.6v7.2h-1.7V94.7h1.7v6.5h7.6v-6.5h1.7v15.2H346.9z"/>
<path class="st5" d="M353.3,109.9V94.7h1.7v15.2H353.3z"/>
<path class="st5" d="M361.5,96.2v5h4.2v1.5h-4.2v7.1h-1.7V94.7h8.9v1.5L361.5,96.2L361.5,96.2z"/>
<path class="st5" d="M377.6,96.2v13.7h-1.7V96.2h-4.5v-1.5H382v1.5H377.6L377.6,96.2z"/>
<path class="st5" d="M269.6,120.5c-0.5,0.3-1,0.4-1.5,0.4c-0.5,0-0.9-0.1-1.3-0.3c-0.4-0.2-0.7-0.5-1-0.8c-0.3-0.4-0.5-0.8-0.6-1.2
	c-0.3-1-0.3-2.1,0-3.2c0.1-0.5,0.4-0.9,0.6-1.3c0.3-0.3,0.6-0.6,1-0.8c0.4-0.2,0.9-0.3,1.3-0.3c0.5,0,1.1,0.1,1.6,0.4
	c0.4,0.3,0.8,0.6,1,1.1l-1,0.6c-0.2-0.3-0.4-0.5-0.6-0.7c-0.3-0.2-0.6-0.2-0.9-0.2c-0.7,0-1.2,0.3-1.5,0.8c-0.3,0.5-0.5,1.2-0.5,2
	c0,0.9,0.2,1.5,0.5,2c0.3,0.5,0.9,0.8,1.5,0.8c0.3,0,0.7-0.1,1-0.2c0.3-0.2,0.5-0.4,0.7-0.7l1,0.6
	C270.4,119.9,270,120.3,269.6,120.5z"/>
<path class="st5" d="M276.6,119.1c-0.1,0.4-0.3,0.7-0.5,1c-0.2,0.3-0.5,0.5-0.8,0.6c-0.3,0.1-0.7,0.2-1,0.2c-0.7,0-1.4-0.3-1.8-0.8
	c-0.2-0.3-0.4-0.6-0.5-0.9c-0.1-0.4-0.2-0.8-0.2-1.2c0-0.4,0.1-0.9,0.2-1.3c0.1-0.3,0.3-0.7,0.5-0.9c0.2-0.3,0.5-0.5,0.8-0.6
	c0.3-0.1,0.7-0.2,1-0.2c0.7,0,1.4,0.3,1.8,0.8c0.2,0.3,0.4,0.6,0.5,0.9c0.1,0.4,0.2,0.8,0.2,1.2
	C276.8,118.3,276.7,118.7,276.6,119.1z M275.2,116.5c-0.2-0.3-0.7-0.5-1.1-0.5c-0.4,0-0.8,0.2-1,0.5c-0.2,0.3-0.4,0.8-0.4,1.4
	c0,0.6,0.1,1.1,0.4,1.4c0.2,0.3,0.6,0.5,1,0.5c0.2,0,0.4-0.1,0.6-0.2c0.2-0.1,0.3-0.2,0.4-0.4c0.1-0.2,0.2-0.4,0.3-0.6
	c0.1-0.2,0.1-0.5,0.1-0.7C275.6,117.3,275.5,116.8,275.2,116.5z"/>
<path class="st5" d="M281.6,120.8v-3.2c0-0.6-0.1-1-0.3-1.2c-0.2-0.2-0.5-0.4-0.9-0.3c-0.3,0-0.7,0.1-0.9,0.4
	c-0.2,0.3-0.3,0.6-0.3,1.1v3.4h-1.1V115h1.1v0.6c0.2-0.2,0.4-0.4,0.6-0.5c0.3-0.1,0.5-0.2,0.8-0.2c0.7,0,1.2,0.2,1.5,0.7
	s0.5,1.1,0.5,1.9v3.3H281.6L281.6,120.8z"/>
<path class="st5" d="M287.1,120.6c-0.2,0.1-0.3,0.1-0.5,0.2c-0.2,0-0.4,0.1-0.6,0.1c-0.4,0-0.7-0.1-0.9-0.4
	c-0.2-0.2-0.3-0.6-0.3-1.1v-3.3h-0.8v-1h0.8v-1.6l1.1-0.6v2.2h1.4v1h-1.4v3.1c0,0.3,0,0.5,0.1,0.5c0.1,0.1,0.3,0.2,0.5,0.1
	c0.2,0,0.3,0,0.4-0.1c0.1,0,0.3-0.1,0.4-0.2L287.1,120.6z"/>
<path class="st5" d="M291.9,120.8v-0.6c-0.2,0.2-0.4,0.4-0.7,0.5c-0.3,0.1-0.6,0.2-0.9,0.2c-0.2,0-0.5,0-0.7-0.1
	c-0.2-0.1-0.4-0.2-0.6-0.3c-0.2-0.2-0.4-0.4-0.5-0.6c-0.1-0.3-0.2-0.6-0.2-0.9c0-0.3,0.1-0.6,0.2-0.8c0.1-0.2,0.3-0.4,0.5-0.6
	c0.2-0.2,0.5-0.3,0.7-0.3c0.3-0.1,0.6-0.1,0.9-0.1c0.4,0,0.9,0.1,1.3,0.2v-0.4c0-0.3-0.1-0.5-0.3-0.7c-0.2-0.2-0.5-0.3-0.8-0.3
	c-0.3,0-0.5,0-0.8,0.1c-0.2,0.1-0.5,0.2-0.7,0.3l-0.4-0.9c0.3-0.2,0.6-0.3,0.9-0.4c0.4-0.1,0.7-0.1,1.1-0.1c0.6,0,1.2,0.2,1.6,0.5
	c0.4,0.3,0.6,0.8,0.6,1.4v3.9H291.9z M291.9,118.3c-0.2-0.1-0.4-0.1-0.5-0.2c-0.3,0-0.5-0.1-0.8-0.1c-0.3,0-0.6,0.1-0.9,0.2
	c-0.2,0.1-0.3,0.4-0.3,0.6c0,0.3,0.1,0.5,0.3,0.7c0.2,0.2,0.5,0.3,0.8,0.3c0.3,0,0.6-0.1,0.8-0.2c0.2-0.1,0.4-0.3,0.6-0.5
	L291.9,118.3L291.9,118.3z"/>
<path class="st5" d="M295.7,114.1c-0.1,0.1-0.3,0.2-0.5,0.2c-0.2,0-0.4-0.1-0.5-0.2c-0.1-0.1-0.2-0.3-0.2-0.5c0-0.4,0.3-0.7,0.7-0.7
	c0,0,0,0,0,0c0.2,0,0.4,0.1,0.5,0.2c0.1,0.1,0.2,0.3,0.2,0.5C295.9,113.8,295.8,113.9,295.7,114.1z M294.6,120.8V115h1.1v5.7H294.6z
	"/>
<path class="st5" d="M300.9,120.8v-3.2c0-0.6-0.1-1-0.3-1.2c-0.2-0.2-0.5-0.4-0.9-0.3c-0.3,0-0.7,0.1-0.9,0.4
	c-0.2,0.3-0.3,0.6-0.3,1.1v3.4h-1.1V115h1.1v0.6c0.2-0.2,0.4-0.4,0.6-0.5c0.3-0.1,0.5-0.2,0.8-0.2c0.7,0,1.2,0.2,1.5,0.7
	s0.5,1.1,0.5,1.9v3.3H300.9L300.9,120.8z"/>
<path class="st5" d="M308.3,118.1c0,0.1,0,0.2,0,0.2h-3.8c0,0.2,0.1,0.5,0.2,0.7c0.1,0.2,0.2,0.3,0.3,0.5c0.1,0.1,0.3,0.2,0.4,0.3
	c0.2,0.1,0.3,0.1,0.5,0.1c0.2,0,0.4,0,0.7-0.1c0.2-0.1,0.4-0.2,0.6-0.3l0.7,0.7c-0.2,0.2-0.5,0.4-0.9,0.6c-0.4,0.1-0.7,0.2-1.1,0.2
	c-0.3,0-0.7-0.1-1-0.2c-0.3-0.1-0.6-0.3-0.8-0.6c-0.2-0.3-0.4-0.6-0.5-0.9c-0.1-0.4-0.2-0.8-0.2-1.3c0-0.4,0.1-0.9,0.2-1.3
	c0.1-0.3,0.3-0.7,0.5-0.9c0.2-0.2,0.5-0.4,0.8-0.6c0.3-0.1,0.7-0.2,1-0.2c0.4,0,0.7,0.1,1.1,0.2c0.3,0.1,0.6,0.4,0.8,0.6
	c0.2,0.3,0.4,0.6,0.4,0.9c0.1,0.4,0.1,0.7,0.1,1.1C308.3,117.9,308.3,118,308.3,118.1z M307.1,116.8c-0.1-0.2-0.1-0.3-0.2-0.5
	c-0.1-0.1-0.3-0.2-0.4-0.3c-0.2-0.1-0.4-0.1-0.6-0.1c-0.3,0-0.7,0.1-0.9,0.4c-0.2,0.3-0.4,0.7-0.4,1.1h2.7
	C307.2,117.2,307.2,117,307.1,116.8L307.1,116.8z"/>
<path class="st5" d="M312.9,116.2c-0.1-0.1-0.2-0.1-0.4-0.2c-0.2,0-0.3-0.1-0.5-0.1c-0.3,0-0.6,0.1-0.8,0.4
	c-0.2,0.2-0.3,0.6-0.3,1.1v3.3h-1.1V115h1.1v0.5c0.3-0.4,0.8-0.7,1.3-0.7c0.2,0,0.4,0,0.6,0.1c0.1,0,0.3,0.1,0.4,0.2L312.9,116.2z"
	/>
<path class="st5" d="M322.9,116.6c-0.1,0.3-0.3,0.5-0.5,0.8c-0.2,0.2-0.5,0.4-0.8,0.5c-0.3,0.1-0.7,0.2-1,0.2h-2v2.9h-1.1v-7.6h3.2
	c0.3,0,0.7,0,1,0.2c0.3,0.1,0.6,0.2,0.8,0.5c0.2,0.2,0.4,0.5,0.5,0.7C323.1,115.2,323.1,115.9,322.9,116.6z M321.5,114.5
	c-0.3-0.2-0.6-0.4-1-0.3h-2v2.6h2c0.4,0,0.8-0.1,1-0.3c0.2-0.2,0.3-0.6,0.3-1C321.9,115.1,321.8,114.8,321.5,114.5L321.5,114.5z"/>
<path class="st5" d="M324.4,120.8v-7.4l1.1-0.6v8H324.4z"/>
<path class="st5" d="M330.6,120.8v-0.6c-0.2,0.2-0.4,0.4-0.7,0.5c-0.3,0.1-0.6,0.2-0.9,0.2c-0.2,0-0.5,0-0.7-0.1
	c-0.2-0.1-0.4-0.2-0.6-0.3c-0.2-0.2-0.4-0.4-0.5-0.6c-0.1-0.3-0.2-0.6-0.2-0.9c0-0.3,0.1-0.6,0.2-0.8c0.1-0.2,0.3-0.4,0.5-0.6
	c0.2-0.2,0.5-0.3,0.7-0.3c0.3-0.1,0.6-0.1,0.9-0.1c0.4,0,0.9,0.1,1.3,0.2v-0.4c0-0.3-0.1-0.5-0.3-0.7c-0.2-0.2-0.5-0.3-0.8-0.3
	c-0.3,0-0.5,0-0.8,0.1c-0.2,0.1-0.5,0.2-0.7,0.3l-0.4-0.9c0.3-0.2,0.6-0.3,0.9-0.4c0.4-0.1,0.7-0.1,1.1-0.1c0.6,0,1.2,0.2,1.6,0.5
	c0.4,0.3,0.6,0.8,0.6,1.4v3.9H330.6L330.6,120.8z M330.6,118.3c-0.2-0.1-0.4-0.1-0.5-0.2c-0.3,0-0.5-0.1-0.8-0.1
	c-0.3,0-0.6,0.1-0.9,0.2c-0.2,0.1-0.3,0.4-0.3,0.6c0,0.3,0.1,0.5,0.3,0.7c0.2,0.2,0.5,0.3,0.8,0.3c0.3,0,0.6-0.1,0.8-0.2
	c0.2-0.1,0.4-0.3,0.6-0.5L330.6,118.3L330.6,118.3z"/>
<path class="st5" d="M336,120.6c-0.2,0.1-0.3,0.1-0.5,0.2c-0.2,0-0.4,0.1-0.6,0.1c-0.4,0-0.7-0.1-0.9-0.4c-0.2-0.2-0.3-0.6-0.3-1.1
	v-3.3h-0.8v-1h0.8v-1.6l1.1-0.6v2.2h1.4v1h-1.4v3.1c0,0.3,0,0.5,0.1,0.5c0.1,0.1,0.3,0.2,0.5,0.1c0.2,0,0.3,0,0.4-0.1
	c0.1,0,0.3-0.1,0.4-0.2L336,120.6z"/>
<path class="st5" d="M339.5,113.8c-0.1,0-0.3,0-0.4,0.1c-0.1,0.1-0.1,0.3-0.1,0.4v0.7h1.1v1h-1.1v4.7h-1.1v-4.7h-0.7v-1h0.7v-0.8
	c0-0.2,0-0.5,0.1-0.7c0.1-0.2,0.2-0.3,0.3-0.4c0.1-0.1,0.3-0.2,0.5-0.3c0.2-0.1,0.4-0.1,0.6-0.1c0.1,0,0.3,0,0.4,0
	c0.1,0,0.3,0,0.4,0.1v1C339.9,113.9,339.7,113.8,339.5,113.8z"/>
<path class="st5" d="M345.8,119.1c-0.1,0.4-0.3,0.7-0.5,1c-0.2,0.3-0.5,0.5-0.8,0.6c-0.3,0.1-0.7,0.2-1,0.2c-0.7,0-1.4-0.3-1.8-0.8
	c-0.2-0.3-0.4-0.6-0.5-0.9c-0.1-0.4-0.2-0.8-0.2-1.2c0-0.4,0.1-0.9,0.2-1.3c0.1-0.3,0.3-0.7,0.5-0.9c0.2-0.3,0.5-0.5,0.8-0.6
	c0.3-0.1,0.7-0.2,1-0.2c0.7,0,1.4,0.3,1.8,0.8c0.2,0.3,0.4,0.6,0.5,0.9c0.1,0.4,0.2,0.8,0.2,1.2C346,118.3,345.9,118.7,345.8,119.1z
	 M344.4,116.5c-0.2-0.3-0.7-0.5-1.1-0.5c-0.4,0-0.8,0.2-1,0.5c-0.2,0.3-0.4,0.8-0.4,1.4c0,0.6,0.1,1.1,0.4,1.4
	c0.2,0.3,0.6,0.5,1,0.5c0.2,0,0.4-0.1,0.6-0.2c0.2-0.1,0.3-0.2,0.4-0.4c0.1-0.2,0.2-0.4,0.3-0.6c0.1-0.2,0.1-0.5,0.1-0.7
	C344.8,117.3,344.7,116.8,344.4,116.5L344.4,116.5z"/>
<path class="st5" d="M350.5,116.2c-0.1-0.1-0.2-0.1-0.4-0.2c-0.2,0-0.3-0.1-0.5-0.1c-0.3,0-0.6,0.1-0.8,0.4
	c-0.2,0.2-0.3,0.6-0.3,1.1v3.3h-1.1V115h1.1v0.5c0.3-0.4,0.8-0.7,1.3-0.7c0.2,0,0.4,0,0.6,0.1c0.1,0,0.3,0.1,0.4,0.2L350.5,116.2z"
	/>
<path class="st5" d="M358.6,120.8v-3.2c0-0.6-0.1-1-0.3-1.2c-0.2-0.2-0.5-0.3-0.8-0.3c-0.4,0-0.7,0.1-0.8,0.4
	c-0.2,0.3-0.3,0.6-0.3,1.1v3.4h-1.1v-3.2c0-0.6-0.1-1-0.3-1.2c-0.2-0.2-0.5-0.3-0.8-0.3c-0.4,0-0.7,0.1-0.8,0.4
	c-0.2,0.3-0.3,0.6-0.3,1.1v3.4h-1.1V115h1.1v0.6c0.1-0.2,0.3-0.4,0.6-0.5c0.2-0.1,0.5-0.2,0.8-0.2c0.3,0,0.7,0.1,1,0.2
	c0.3,0.2,0.5,0.4,0.6,0.6c0.1-0.1,0.2-0.2,0.3-0.4c0.1-0.1,0.2-0.2,0.4-0.3c0.1-0.1,0.3-0.1,0.5-0.2c0.2,0,0.4-0.1,0.6-0.1
	c0.7,0,1.2,0.2,1.5,0.7c0.3,0.4,0.5,1.1,0.5,1.9v3.3H358.6L358.6,120.8z"/>
</svg>
