<?xml version="1.0" encoding="utf-8"?>
<!-- Generator: Adobe Illustrator 17.1.0, SVG Export Plug-In . SVG Version: 6.00 Build 0)  -->
<!DOCTYPE svg PUBLIC "-//W3C//DTD SVG 1.1//EN" "http://www.w3.org/Graphics/SVG/1.1/DTD/svg11.dtd">
<svg version="1.1" id="Layer_1" xmlns="http://www.w3.org/2000/svg" xmlns:xlink="http://www.w3.org/1999/xlink" x="0px" y="0px"
	 viewBox="0 0 184 108" enable-background="new 0 0 184 108" xml:space="preserve">
<g>
	<g>
		<path fill="#FFFFFF" d="M71.819,62.823h0.162l0.245,0.402h0.158l-0.265-0.41c0.138-0.016,0.242-0.089,0.242-0.254
			c0-0.185-0.109-0.264-0.328-0.264h-0.354v0.928h0.14V62.823z M71.819,62.704v-0.288h0.192c0.098,0,0.203,0.022,0.203,0.137
			c0,0.142-0.106,0.152-0.226,0.152H71.819z"/>
		<path fill="#FFFFFF" d="M72.895,62.762c0,0.501-0.408,0.909-0.91,0.909c-0.502,0-0.91-0.408-0.91-0.909
			c0-0.502,0.408-0.91,0.91-0.91C72.488,61.852,72.895,62.26,72.895,62.762z M71.985,62.013c-0.414,0-0.749,0.335-0.749,0.75
			c0,0.413,0.335,0.746,0.749,0.746c0.413,0,0.748-0.334,0.748-0.746C72.733,62.348,72.398,62.013,71.985,62.013z"/>
		<path fill="#FFFFFF" d="M66.938,63.524c-1.273,0-2.432,0.22-3.286,0.577c-0.094,0.047-0.161,0.145-0.161,0.257
			c0,0.041,0.01,0.082,0.026,0.118c0.101,0.293-0.065,0.61-0.892,0.792c-1.226,0.269-2,1.535-2.443,1.955
			c-0.52,0.494-1.989,0.797-1.768,0.503c0.173-0.23,0.834-0.948,1.236-1.724c0.36-0.694,0.68-0.891,1.121-1.553
			c0.129-0.194,0.631-0.876,0.777-1.415c0.164-0.526,0.109-1.187,0.171-1.459c0.09-0.393,0.461-1.244,0.488-1.724
			c0.016-0.272-1.135,0.388-1.681,0.388c-0.546,0-1.078-0.328-1.566-0.351c-0.604-0.028-0.992,0.466-1.539,0.38
			c-0.312-0.05-0.575-0.325-1.12-0.345c-0.776-0.028-1.725,0.432-3.507,0.374c-1.753-0.057-3.372-2.216-3.593-2.559
			c-0.259-0.402-0.575-0.402-0.92-0.086c-0.345,0.316-0.77,0.067-0.891-0.145c-0.23-0.402-0.845-1.577-1.797-1.824
			c-1.317-0.341-1.983,0.729-1.897,1.58c0.088,0.864,0.646,1.107,0.905,1.566c0.258,0.46,0.391,0.756,0.878,0.959
			c0.345,0.145,0.473,0.357,0.371,0.64c-0.09,0.247-0.449,0.303-0.685,0.315c-0.502,0.024-0.853-0.112-1.11-0.276
			c-0.298-0.191-0.541-0.455-0.801-0.903c-0.301-0.495-0.776-0.71-1.328-0.71c-0.263,0-0.51,0.069-0.729,0.182
			c-0.866,0.451-1.897,0.718-3.007,0.718l-1.252,0.001C39.34,66.874,46.071,72,54.001,72c6.334,0,11.903-3.271,15.112-8.216
			C68.418,63.625,67.683,63.524,66.938,63.524z"/>
		<path d="M57.927,62.12c-0.016,0-0.031,0.007-0.042,0.018c-0.233,0.271-0.334,0.36-0.502,0.495
			c-0.406,0.327-0.87-0.042-1.167-0.217c-0.661-0.388-1.193-0.143-1.322,0.157c-0.129,0.303,0.014,0.666,0.374,0.618
			c0.504-0.065,0.526,0.013,0.891,0.244c0.679,0.43,1.174,0.196,1.427-0.007c0.211-0.168,0.328-0.311,0.438-0.516
			c0.195-0.385,0.036-0.69-0.057-0.78C57.955,62.126,57.941,62.12,57.927,62.12z"/>
		<path d="M54.001,36C44.059,36,36,44.059,36,54c0,2.012,0.33,3.948,0.939,5.754h1.252c1.11,0,2.141-0.267,3.007-0.718
			c0.219-0.112,0.466-0.182,0.729-0.182c0.553,0,1.027,0.215,1.328,0.71c0.26,0.449,0.503,0.713,0.801,0.902
			c0.256,0.164,0.608,0.3,1.11,0.277c0.236-0.011,0.595-0.068,0.685-0.315c0.103-0.283-0.026-0.497-0.371-0.64
			c-0.487-0.203-0.619-0.501-0.878-0.961c-0.259-0.459-0.818-0.702-0.905-1.566c-0.087-0.851,0.58-1.922,1.897-1.58
			c0.952,0.246,1.567,1.422,1.797,1.825c0.121,0.212,0.546,0.46,0.891,0.145c0.344-0.317,0.661-0.317,0.92,0.086
			c0.221,0.343,1.84,2.501,3.593,2.558c1.782,0.057,2.731-0.403,3.507-0.374c0.545,0.021,0.808,0.295,1.12,0.345
			c0.547,0.086,0.935-0.408,1.539-0.379c0.488,0.024,1.02,0.35,1.566,0.35c0.546,0,1.697-0.659,1.681-0.387
			c-0.028,0.48-0.398,1.332-0.488,1.724c-0.063,0.272-0.008,0.933-0.171,1.46c-0.146,0.539-0.648,1.221-0.777,1.416
			c-0.441,0.661-0.761,0.859-1.121,1.552c-0.402,0.776-1.063,1.494-1.236,1.724c-0.221,0.294,1.248-0.009,1.768-0.503
			c0.443-0.421,1.217-1.685,2.443-1.955c0.827-0.182,0.993-0.499,0.892-0.792c-0.015-0.034-0.026-0.076-0.026-0.117
			c0-0.112,0.067-0.21,0.161-0.258c0.854-0.355,2.013-0.576,3.286-0.576c0.744,0,1.48,0.099,2.174,0.26
			c1.827-2.818,2.888-6.177,2.888-9.785C72.001,44.059,63.942,36,54.001,36z"/>
		<path fill="#CC0000" d="M64.158,49.211c-0.178,0.598-0.431,1.363-1.556,1.94c-0.164,0.084-0.227-0.054-0.151-0.183
			c0.425-0.723,0.501-0.904,0.625-1.19c0.173-0.417,0.264-1.011-0.08-2.249c-0.677-2.436-2.089-5.692-3.116-6.749
			c-0.99-1.019-2.785-1.306-4.408-0.89c-0.598,0.153-1.767,0.761-3.934,0.273c-3.752-0.845-4.308,1.034-4.523,1.852
			c-0.216,0.819-0.733,3.145-0.733,3.145c-0.172,0.948-0.398,2.595,5.428,3.705c2.714,0.517,2.852,1.218,2.972,1.723
			c0.216,0.904,0.56,1.422,0.948,1.68c0.388,0.259,0,0.473-0.43,0.517c-1.156,0.12-5.428-1.105-7.955-2.541
			c-2.068-1.264-2.102-2.401-1.629-3.367c-3.123-0.338-5.468,0.293-5.892,1.771c-0.729,2.537,5.579,6.872,12.762,9.047
			c7.538,2.282,15.292,0.689,16.154-4.05C69.029,51.493,67.216,49.901,64.158,49.211z M52.6,44.571
			c-2.079,0.15-2.295,0.375-2.684,0.79c-0.549,0.585-1.273-0.759-1.273-0.759c-0.434-0.091-0.96-0.791-0.677-1.445
			c0.28-0.646,0.796-0.453,0.958-0.251c0.197,0.245,0.617,0.646,1.163,0.632c0.546-0.014,1.175-0.129,2.053-0.129
			c0.89,0,1.488,0.332,1.522,0.618C53.692,44.27,53.59,44.499,52.6,44.571z M57.097,42.501c-0.373-0.009-0.724-0.063-1.026-0.15
			c-0.036-0.009-0.061-0.04-0.061-0.076c0-0.036,0.026-0.067,0.062-0.076c0.72-0.167,1.206-0.439,1.171-0.696
			c-0.045-0.341-0.987-0.527-2.103-0.415c-0.122,0.013-0.241,0.028-0.357,0.046c-0.003,0-0.006,0.001-0.009,0.001
			c-0.032,0-0.058-0.025-0.058-0.055c0-0.022,0.013-0.041,0.033-0.05c0.403-0.213,1.004-0.382,1.693-0.452
			c0.207-0.021,0.408-0.032,0.603-0.033c0.034,0,0.068,0,0.103,0c1.154,0.026,2.077,0.485,2.064,1.024
			C59.198,42.111,58.252,42.527,57.097,42.501z"/>
	</g>
	<g>
		<path fill="#FFFFFF" d="M81.176,55.136c0-1.651-0.034-2.865-0.101-3.963h2.7l0.116,2.342h0.088
			c0.607-1.736,2.045-2.621,3.376-2.621c0.305,0,0.482,0.011,0.731,0.067v2.937c-0.292-0.057-0.564-0.089-0.939-0.089
			c-1.486,0-2.517,0.945-2.795,2.359c-0.053,0.275-0.081,0.605-0.081,0.941v6.395h-3.12L81.176,55.136z"/>
		<path fill="#FFFFFF" d="M91.851,58.178c0.082,2.235,1.812,3.212,3.809,3.212c1.434,0,2.46-0.225,3.403-0.571l0.461,2.145
			c-1.055,0.448-2.52,0.782-4.309,0.782c-4.005,0-6.35-2.473-6.35-6.251c0-3.404,2.065-6.624,6.031-6.624
			c4.01,0,5.315,3.298,5.315,5.998c0,0.579-0.052,1.045-0.111,1.332L91.851,58.178z M97.274,56.006
			c0.014-1.143-0.483-3.005-2.571-3.005c-1.92,0-2.718,1.741-2.858,3.005H97.274z"/>
		<path fill="#FFFFFF" d="M137.132,60.573c0,0.976,0.039,1.986,0.18,2.932h-1.124l-0.179-1.769h-0.058
			c-0.598,0.951-1.973,2.049-3.935,2.049c-2.483,0-3.639-1.746-3.639-3.392c0-2.849,2.515-4.565,7.535-4.512v-0.33
			c0-1.221-0.237-3.656-3.157-3.637c-1.08,0-2.205,0.289-3.098,0.92l-0.389-0.888c1.127-0.764,2.505-1.066,3.621-1.066
			c3.562,0,4.243,2.674,4.243,4.879V60.573z M135.912,56.908c-2.688-0.077-6.236,0.33-6.236,3.293c0,1.774,1.171,2.571,2.456,2.571
			c2.057,0,3.226-1.273,3.652-2.475c0.089-0.263,0.128-0.528,0.128-0.739V56.908z"/>
		<path fill="#FFFFFF" d="M141.993,48.442v2.72h3.518v0.99h-3.518v8.022c0,1.569,0.487,2.553,1.813,2.553
			c0.636,0,1.086-0.084,1.402-0.193l0.148,0.945c-0.399,0.167-0.958,0.297-1.703,0.297c-0.901,0-1.648-0.284-2.13-0.875
			c-0.559-0.648-0.75-1.684-0.75-2.943v-7.805h-2.083v-0.99h2.083v-2.269L141.993,48.442z"/>
		<path fill="#FFFFFF" d="M147.053,62.848h0.162l0.245,0.402h0.158l-0.265-0.41c0.138-0.017,0.242-0.089,0.242-0.254
			c0-0.185-0.11-0.264-0.328-0.264h-0.354v0.928h0.141V62.848z M147.053,62.728V62.44h0.191c0.097,0,0.203,0.022,0.203,0.136
			c0,0.143-0.106,0.152-0.226,0.152H147.053z"/>
		<path fill="#FFFFFF" d="M148.13,62.786c0,0.501-0.408,0.909-0.91,0.909c-0.501,0-0.91-0.408-0.91-0.909
			c0-0.502,0.409-0.91,0.91-0.91C147.722,61.876,148.13,62.284,148.13,62.786z M147.22,62.037c-0.415,0-0.749,0.335-0.749,0.749
			c0,0.413,0.334,0.746,0.749,0.746c0.413,0,0.748-0.333,0.748-0.746C147.968,62.372,147.632,62.037,147.22,62.037z"/>
		<path fill="#FFFFFF" d="M110.529,52.5h-0.051c-0.552-0.911-1.768-1.606-3.456-1.606c-2.966,0-5.548,2.454-5.529,6.586
			c0,3.791,2.332,6.302,5.277,6.302c1.78,0,3.267-0.848,4.004-2.23h0.055l0.14,1.953h2.778c-0.057-0.838-0.103-2.196-0.103-3.459
			V46.44l-3.117-0.895V52.5z M110.529,58.158c0,0.327-0.023,0.631-0.094,0.91c-0.314,1.35-1.417,2.219-2.693,2.219
			c-1.963,0-3.087-1.655-3.087-3.921c0-2.288,1.114-4.059,3.122-4.059c1.402,0,2.406,0.988,2.682,2.189
			c0.053,0.253,0.07,0.564,0.07,0.814V58.158z"/>
		<path fill="#FFFFFF" d="M121.891,50.88c-0.939,0-1.78,0.271-2.487,0.707c-0.734,0.43-1.331,1.093-1.686,1.78h-0.049v-5.771
			l-1.221-0.351v16.26h1.221v-7.548c0-0.501,0.038-0.849,0.166-1.216c0.527-1.535,1.974-2.795,3.723-2.795
			c2.527,0,3.401,2.026,3.401,4.249v7.31h1.22V56.06C126.178,51.463,123.06,50.88,121.891,50.88z"/>
	</g>
</g>
</svg>
